<?xml version="1.0" encoding="UTF-8" standalone="no"?>
<!DOCTYPE svg PUBLIC "-//W3C//DTD SVG 1.1//EN" "http://www.w3.org/Graphics/SVG/1.1/DTD/svg11.dtd">
<svg width="100%" height="100%" viewBox="0 0 16 16" version="1.1" xmlns="http://www.w3.org/2000/svg" xmlns:xlink="http://www.w3.org/1999/xlink" xml:space="preserve" xmlns:serif="http://www.serif.com/" style="fill-rule:evenodd;clip-rule:evenodd;stroke-linejoin:round;stroke-miterlimit:2;">
    <g transform="matrix(1,0,0,1,0,-144)">
        <path d="M8,147C10.76,147 13,149.24 13,152C13,154.76 10.76,157 8,157C5.24,157 3,154.76 3,152C3,149.24 5.24,147 8,147ZM9,150L7,150L7,149.5C7,149.224 6.776,149 6.5,149C6.224,149 6,149.224 6,149.5L6,150L5.5,150C5.224,150 5,150.224 5,150.5C5,150.776 5.224,151 5.5,151L6,151L6,153L5.5,153C5.224,153 5,153.224 5,153.5C5,153.776 5.224,154 5.5,154L6,154L6,154.5C6,154.776 6.224,155 6.5,155C6.776,155 7,154.776 7,154.5L7,154L9,154L9,154.5C9,154.776 9.224,155 9.5,155C9.776,155 10,154.776 10,154.5L10,154L10.5,154C10.776,154 11,153.776 11,153.5C11,153.224 10.776,153 10.5,153L10,153L10,151L10.5,151C10.776,151 11,150.776 11,150.5C11,150.224 10.776,150 10.5,150L10,150L10,149.5C10,149.224 9.776,149 9.5,149C9.224,149 9,149.224 9,149.5L9,150ZM9,151L7,151L7,153L9,153L9,151Z"/>
        <path d="M9,150L7,150L7,149.5C7,149.224 6.776,149 6.5,149C6.224,149 6,149.224 6,149.5L6,150L5.5,150C5.224,150 5,150.224 5,150.5C5,150.776 5.224,151 5.5,151L6,151L6,153L5.5,153C5.224,153 5,153.224 5,153.5C5,153.776 5.224,154 5.5,154L6,154L6,154.5C6,154.776 6.224,155 6.5,155C6.776,155 7,154.776 7,154.5L7,154L9,154L9,154.5C9,154.776 9.224,155 9.5,155C9.776,155 10,154.776 10,154.5L10,154L10.5,154C10.776,154 11,153.776 11,153.5C11,153.224 10.776,153 10.5,153L10,153L10,151L10.5,151C10.776,151 11,150.776 11,150.5C11,150.224 10.776,150 10.5,150L10,150L10,149.5C10,149.224 9.776,149 9.5,149C9.224,149 9,149.224 9,149.5L9,150ZM9,151L7,151L7,153L9,153L9,151Z" style="fill:none;"/>
    </g>
</svg>
