<?xml version="1.0" encoding="UTF-8" standalone="no"?>
<!DOCTYPE svg PUBLIC "-//W3C//DTD SVG 1.1//EN" "http://www.w3.org/Graphics/SVG/1.1/DTD/svg11.dtd">
<svg width="100%" height="100%" viewBox="0 0 20 20" version="1.1" xmlns="http://www.w3.org/2000/svg" xmlns:xlink="http://www.w3.org/1999/xlink" xml:space="preserve" xmlns:serif="http://www.serif.com/" style="fill-rule:evenodd;clip-rule:evenodd;stroke-linejoin:round;stroke-miterlimit:2;">
    <g id="dark">
        <g id="blue">
        </g>
        <g id="yellow">
            <path d="M10,1C14.967,1 19,5.033 19,10C19,14.967 14.967,19 10,19C5.033,19 1,14.967 1,10C1,5.033 5.033,1 10,1ZM10,14.5C10.828,14.5 11.5,15.172 11.5,16C11.5,16.828 10.828,17.5 10,17.5C9.172,17.5 8.5,16.828 8.5,16C8.5,15.172 9.172,14.5 10,14.5ZM7.997,7.079C8.101,5.761 9.345,5.5 10,5.5C11.426,5.5 12,6.36 12,7C12,7.536 11.718,7.897 11.397,8.227C11.073,8.56 10.701,8.862 10.363,9.187C9.595,9.925 9,10.768 9,12C9,12.552 9.448,13 10,13C10.552,13 11,12.552 11,12C11,11.464 11.282,11.103 11.603,10.773C11.927,10.44 12.299,10.138 12.637,9.813C13.405,9.075 14,8.232 14,7C14,5.639 13.032,3.5 10,3.5C8.648,3.5 6.219,4.203 6.003,6.921C5.959,7.471 6.371,7.953 6.921,7.997C7.471,8.041 7.953,7.629 7.997,7.079Z" style="fill:rgb(229,115,26);"/>
        </g>
        <g id="red">
        </g>
        <g id="gray">
        </g>
        <g id="text">
        </g>
        <g id="working">
        </g>
    </g>
</svg>
