<?xml version="1.0" encoding="UTF-8" standalone="no"?>
<!DOCTYPE svg PUBLIC "-//W3C//DTD SVG 1.1//EN" "http://www.w3.org/Graphics/SVG/1.1/DTD/svg11.dtd">
<svg width="100%" height="100%" viewBox="0 0 16 16" version="1.1" xmlns="http://www.w3.org/2000/svg" xmlns:xlink="http://www.w3.org/1999/xlink" xml:space="preserve" xmlns:serif="http://www.serif.com/" style="fill-rule:evenodd;clip-rule:evenodd;stroke-linejoin:round;stroke-miterlimit:2;">
    <g id="dark">
        <g id="green">
            <path d="M14,6.5l-2.5,-2.5l-5.753,0c-0.198,0 -0.388,0.079 -0.528,0.219c-0.14,0.14 -0.219,0.33 -0.219,0.528c0,2.153 0,8.353 0,10.506c-0,0.198 0.079,0.388 0.219,0.528c0.14,0.14 0.33,0.219 0.528,0.219c1.694,0 5.812,0 7.506,0c0.198,0 0.388,-0.079 0.528,-0.219c0.14,-0.14 0.219,-0.33 0.219,-0.528c0,-2.242 0,-8.753 0,-8.753Zm-1,0.5l-2,-2l0,2l2,0Z" style="fill:rgb(41,121,255);"/>
        </g>
        <g id="red">
        </g>
        <g id="gray">
        </g>
        <g id="yellow">
        </g>
        <g id="icon">
            <path d="M10,2.5l-2.5,-2.5l-5.753,0c-0.198,0 -0.388,0.079 -0.528,0.219c-0.14,0.14 -0.219,0.33 -0.219,0.528c0,2.153 0,8.353 0,10.506c-0,0.412 0.335,0.747 0.747,0.747c0.889,0 2.253,0 2.253,0l0,-7.503c-0,-0.397 0.158,-0.778 0.439,-1.058c0.28,-0.281 0.661,-0.439 1.058,-0.439c0.751,0 1.503,0 1.503,0l0,-2l2,2l1,0l0,-0.5Z" style="fill:rgb(151,159,173);"/>
        </g>
    </g>
    <g id="menu">
    </g>
</svg>
