<?xml version="1.0" encoding="UTF-8" standalone="no"?>
<!DOCTYPE svg PUBLIC "-//W3C//DTD SVG 1.1//EN" "http://www.w3.org/Graphics/SVG/1.1/DTD/svg11.dtd">
<svg width="100%" height="100%" viewBox="0 0 20 20" version="1.1" xmlns="http://www.w3.org/2000/svg" xmlns:xlink="http://www.w3.org/1999/xlink" xml:space="preserve" xmlns:serif="http://www.serif.com/" style="fill-rule:evenodd;clip-rule:evenodd;stroke-linejoin:round;stroke-miterlimit:2;">
    <g id="dark">
        <g id="blue">
        </g>
        <g id="yellow">
        </g>
        <g id="red">
        </g>
        <g id="text">
            <path d="M19.253,20C19.665,20 20,19.665 20,19.253C20,16.1 20,3.9 20,0.747C20,0.335 19.665,0 19.253,0C16.1,0 3.9,0 0.747,0C0.335,0 0,0.335 0,0.747C0,3.9 0,16.1 0,19.253C0,19.665 0.335,20 0.747,20L19.253,20ZM17.369,10.316C17.453,10.232 17.5,10.118 17.5,10C17.5,9.882 17.453,9.768 17.369,9.684C17.168,9.483 16.88,9.195 16.533,8.848C12.925,5.24 7.075,5.24 3.467,8.848C3.12,9.195 2.832,9.483 2.631,9.684C2.547,9.768 2.5,9.882 2.5,10C2.5,10.118 2.547,10.232 2.631,10.316C2.832,10.517 3.12,10.805 3.467,11.152C7.075,14.76 12.925,14.76 16.533,11.152C16.88,10.805 17.168,10.517 17.369,10.316ZM10,7C11.656,7 13,8.344 13,10C13,11.656 11.656,13 10,13C8.344,13 7,11.656 7,10C7,8.344 8.344,7 10,7ZM10,9C10.552,9 11,9.448 11,10C11,10.552 10.552,11 10,11C9.448,11 9,10.552 9,10C9,9.448 9.448,9 10,9Z" style="fill:rgb(151,159,173);"/>
        </g>
        <g id="working">
        </g>
    </g>
</svg>
