<?xml version="1.0" encoding="UTF-8" standalone="no"?>
<!DOCTYPE svg PUBLIC "-//W3C//DTD SVG 1.1//EN" "http://www.w3.org/Graphics/SVG/1.1/DTD/svg11.dtd">
<svg width="100%" height="100%" viewBox="0 0 16 16" version="1.1" xmlns="http://www.w3.org/2000/svg" xmlns:xlink="http://www.w3.org/1999/xlink" xml:space="preserve" xmlns:serif="http://www.serif.com/" style="fill-rule:evenodd;clip-rule:evenodd;stroke-linejoin:round;stroke-miterlimit:2;">
    <g id="dark">
        <g id="green">
        </g>
        <g id="red">
        </g>
        <g id="gray">
        </g>
        <g id="yellow">
            <path d="M11,2l0,1c0,0 0.681,0 1.249,0c0.199,-0 0.39,0.079 0.531,0.22c0.141,0.141 0.22,0.332 0.22,0.531c0,0.945 -0,2.556 -0,3.499c-0,0.414 -0.336,0.75 -0.75,0.75c-1.854,0 -6.642,0 -8.499,0c-0.415,-0 -0.751,-0.336 -0.751,-0.751c0,-0.944 0,-2.554 0,-3.498c0,-0.199 0.079,-0.39 0.22,-0.531c0.141,-0.141 0.332,-0.22 0.531,-0.22c0.568,0 1.249,-0 1.249,-0l-0,-1l-2.249,-0c-0.199,-0 -0.39,0.079 -0.531,0.22c-0.141,0.141 -0.22,0.332 -0.22,0.531c-0,2.295 -0,9.203 -0,11.498c-0,0.415 0.336,0.751 0.751,0.751c2.155,0 8.343,0 10.498,0c0.415,-0 0.751,-0.336 0.751,-0.751c0,-2.295 0,-9.203 0,-11.498c0,-0.199 -0.079,-0.39 -0.22,-0.531c-0.141,-0.141 -0.332,-0.22 -0.531,-0.22c-0.888,0 -2.249,0 -2.249,0Z" style="fill:rgb(229,115,26);"/>
        </g>
        <g id="icon">
            <path d="M6,1.987c0.007,-1.098 0.9,-1.987 2,-1.987c1.104,0 2,0.896 2,2l0,2l2,0l0,3l-8,0l0,-3l2,0l0,-2.013Zm2,-0.987c0.552,0 1,0.448 1,1c0,0.552 -0.448,1 -1,1c-0.552,0 -1,-0.448 -1,-1c0,-0.552 0.448,-1 1,-1Z" style="fill:rgb(151,159,173);"/>
        </g>
    </g>
    <g id="menu">
    </g>
</svg>
