<?xml version="1.0" encoding="UTF-8" standalone="no"?>
<!DOCTYPE svg PUBLIC "-//W3C//DTD SVG 1.1//EN" "http://www.w3.org/Graphics/SVG/1.1/DTD/svg11.dtd">
<svg width="100%" height="100%" viewBox="0 0 16 16" version="1.1" xmlns="http://www.w3.org/2000/svg" xmlns:xlink="http://www.w3.org/1999/xlink" xml:space="preserve" xmlns:serif="http://www.serif.com/" style="fill-rule:evenodd;clip-rule:evenodd;stroke-linejoin:round;stroke-miterlimit:2;">
    <g id="gdark">
        <path d="M3.787,15.287C3.976,15.476 4.233,15.582 4.5,15.582C4.767,15.582 5.024,15.476 5.213,15.287C7.274,13.226 13.226,7.274 15.287,5.213C15.476,5.024 15.582,4.767 15.582,4.5C15.582,4.233 15.476,3.976 15.287,3.787C14.446,2.946 13.054,1.554 12.213,0.713C12.024,0.524 11.767,0.418 11.5,0.418C11.233,0.418 10.976,0.524 10.787,0.713C8.726,2.774 2.774,8.726 0.713,10.787C0.524,10.976 0.418,11.233 0.418,11.5C0.418,11.767 0.524,12.024 0.713,12.213C1.554,13.054 2.946,14.446 3.787,15.287Z" style="fill:rgb(188,192,200);"/>
        <path d="M3.787,15.287C3.976,15.476 4.233,15.582 4.5,15.582C4.767,15.582 5.024,15.476 5.213,15.287C7.274,13.226 13.226,7.274 15.287,5.213C15.476,5.024 15.582,4.767 15.582,4.5C15.582,4.233 15.476,3.976 15.287,3.787C14.446,2.946 13.054,1.554 12.213,0.713C12.024,0.524 11.767,0.418 11.5,0.418C11.233,0.418 10.976,0.524 10.787,0.713C8.726,2.774 2.774,8.726 0.713,10.787C0.524,10.976 0.418,11.233 0.418,11.5C0.418,11.767 0.524,12.024 0.713,12.213C1.554,13.054 2.946,14.446 3.787,15.287ZM4.141,14.934L1.066,11.859C0.971,11.764 0.918,11.635 0.918,11.5C0.918,11.365 0.971,11.236 1.066,11.141C1.066,11.141 11.141,1.066 11.141,1.066C11.236,0.971 11.365,0.918 11.5,0.918C11.635,0.918 11.764,0.971 11.859,1.066L14.934,4.141C15.029,4.236 15.082,4.365 15.082,4.5C15.082,4.635 15.029,4.764 14.934,4.859C14.934,4.859 4.859,14.934 4.859,14.934C4.764,15.029 4.635,15.082 4.5,15.082C4.365,15.082 4.236,15.029 4.141,14.934Z" style="fill:url(#_Linear1);"/>
        <path d="M1.854,9.646L1.146,10.354L3.646,12.854C3.842,13.049 4.158,13.049 4.354,12.854C4.549,12.658 4.549,12.342 4.354,12.146L1.854,9.646ZM3.554,7.946L2.846,8.654L4.346,10.154C4.542,10.349 4.858,10.349 5.054,10.154C5.249,9.958 5.249,9.642 5.054,9.446L3.554,7.946ZM5.254,6.246L4.546,6.954L7.046,9.454C7.242,9.649 7.558,9.649 7.754,9.454C7.949,9.258 7.949,8.942 7.754,8.746L5.254,6.246ZM6.954,4.546L6.246,5.254L7.746,6.754C7.942,6.949 8.258,6.949 8.454,6.754C8.649,6.558 8.649,6.242 8.454,6.046L6.954,4.546ZM8.654,2.846L7.946,3.554L10.446,6.054C10.642,6.249 10.958,6.249 11.154,6.054C11.349,5.858 11.349,5.542 11.154,5.346L8.654,2.846ZM10.354,1.146L9.646,1.854L11.146,3.354C11.342,3.549 11.658,3.549 11.854,3.354C12.049,3.158 12.049,2.842 11.854,2.646L10.354,1.146Z" style="fill:rgb(72,72,74);"/>
    </g>
    <defs>
        <linearGradient id="_Linear1" x1="0" y1="0" x2="1" y2="0" gradientUnits="userSpaceOnUse" gradientTransform="matrix(-4,-7,7,-4,12,9.5)"><stop offset="0" style="stop-color:black;stop-opacity:0.2"/><stop offset="1" style="stop-color:white;stop-opacity:0.2"/></linearGradient>
    </defs>
</svg>
