<?xml version="1.0" encoding="UTF-8" standalone="no"?>
<!DOCTYPE svg PUBLIC "-//W3C//DTD SVG 1.1//EN" "http://www.w3.org/Graphics/SVG/1.1/DTD/svg11.dtd">
<svg width="100%" height="100%" viewBox="0 0 16 16" version="1.1" xmlns="http://www.w3.org/2000/svg" xmlns:xlink="http://www.w3.org/1999/xlink" xml:space="preserve" xmlns:serif="http://www.serif.com/" style="fill-rule:evenodd;clip-rule:evenodd;stroke-linejoin:round;stroke-miterlimit:2;">
    <g id="green_dark">
    </g>
    <g id="red_dark">
    </g>
    <g id="gray_dark">
    </g>
    <g id="yellow_dark">
        <path d="M2.503,14C1.673,14 1,13.327 1,12.497C1,9.276 1,2 1,2L6.5,2L8.5,4L13,4L13,6L15.5,6C15.5,6 14.327,10.693 13.777,12.89C13.614,13.542 13.028,14 12.356,14C10.09,14 5.034,14 2.503,14ZM12,6L4.5,6C4.5,6 3.163,11.348 2.826,12.695C2.781,12.874 2.62,13 2.435,13C2.425,13 2.414,13 2.403,13C2.18,13 2,12.82 2,12.597C2,10.729 2,3 2,3L6.086,3C6.086,3 8.086,5 8.086,5L12,5L12,6Z" style="fill:rgb(229,115,26);"/>
    </g>
    <g id="icon_dark">
    </g>
</svg>
