<?xml version="1.0" encoding="UTF-8" standalone="no"?>
<!DOCTYPE svg PUBLIC "-//W3C//DTD SVG 1.1//EN" "http://www.w3.org/Graphics/SVG/1.1/DTD/svg11.dtd">
<svg width="100%" height="100%" viewBox="0 0 16 16" version="1.1" xmlns="http://www.w3.org/2000/svg" xmlns:xlink="http://www.w3.org/1999/xlink" xml:space="preserve" xmlns:serif="http://www.serif.com/" style="fill-rule:evenodd;clip-rule:evenodd;stroke-linejoin:round;stroke-miterlimit:2;">
    <g id="gdark">
        <path d="M1.529,16C1.191,16 0.877,15.83 0.692,15.547C0.507,15.265 0.478,14.908 0.613,14.599C2.319,10.699 7,0 7,0L7,16L1.529,16Z" style="fill:rgb(188,192,200);"/>
        <path d="M1.529,16C1.191,16 0.877,15.83 0.692,15.547C0.507,15.265 0.478,14.908 0.613,14.599C2.319,10.699 7,0 7,0L7,16L1.529,16ZM1.529,15.5C1.36,15.5 1.203,15.415 1.111,15.274C1.018,15.133 1.003,14.954 1.071,14.8C1.071,14.8 6.5,2.39 6.5,2.39C6.5,2.39 6.5,15.5 6.5,15.5L1.529,15.5Z" style="fill:rgb(181,185,192);"/>
        <path d="M14.471,16C14.809,16 15.123,15.83 15.308,15.547C15.493,15.265 15.522,14.908 15.387,14.599C13.681,10.699 9,0 9,0L9,16L14.471,16Z" style="fill:rgb(41,121,255);"/>
        </g>
    </svg>
