<?xml version="1.0" encoding="UTF-8" standalone="no"?>
<!DOCTYPE svg PUBLIC "-//W3C//DTD SVG 1.1//EN" "http://www.w3.org/Graphics/SVG/1.1/DTD/svg11.dtd">
<svg width="100%" height="100%" viewBox="0 0 16 16" version="1.1" xmlns="http://www.w3.org/2000/svg" xmlns:xlink="http://www.w3.org/1999/xlink" xml:space="preserve" xmlns:serif="http://www.serif.com/" style="fill-rule:evenodd;clip-rule:evenodd;stroke-linejoin:round;stroke-miterlimit:2;">
    <g id="gdark">
        <path d="M9.5,10.349L14.5,15.349L15.349,14.5L10.349,9.5L9.5,10.349Z" style="fill:rgb(151,159,173);"/>
        <path d="M9.5,10.349L11.576,12.424L12.424,11.576L10.349,9.5L9.5,10.349Z" style="fill:url(#_Linear1);"/>
        <path d="M6,0C9.311,0 12,2.689 12,6C12,9.311 9.311,12 6,12C2.689,12 0,9.311 0,6C0,2.689 2.689,0 6,0ZM6,1C8.76,1 11,3.24 11,6C11,8.76 8.76,11 6,11C3.24,11 1,8.76 1,6C1,3.24 3.24,1 6,1Z" style="fill:rgb(114,114,114);"/>
        <path d="M14.293,15.707L14.293,15.707L10.293,11.707L11.707,10.293L15.707,14.293L15.707,14.293C15.888,14.474 16,14.724 16,15C16,15.552 15.552,16 15,16C14.724,16 14.474,15.888 14.293,15.707Z" style="fill:rgb(114,114,114);"/>
        <path d="M14.293,15.707L14.293,15.707L10.293,11.707L11.707,10.293L15.707,14.293L15.707,14.293C15.888,14.474 16,14.724 16,15C16,15.552 15.552,16 15,16C14.724,16 14.474,15.888 14.293,15.707Z" style="fill:url(#_Linear2);"/>
        <path d="M5,5L5,2.994C5.003,2.445 5.45,2 6,2C6.552,2 7,2.448 7,3L7,5L9.006,5C9.555,5.003 10,5.45 10,6C10,6.552 9.552,7 9,7L7,7L7,9.006C6.997,9.555 6.55,10 6,10C5.448,10 5,9.552 5,9L5,7L2.994,7C2.445,6.997 2,6.55 2,6C2,5.448 2.448,5 3,5L5,5Z" style="fill:rgb(41,121,255);"/>
        <circle cx="6" cy="6" r="5" style="fill:url(#_Linear3);"/>
    </g>
    <defs>
        <linearGradient id="_Linear1" x1="0" y1="0" x2="1" y2="0" gradientUnits="userSpaceOnUse" gradientTransform="matrix(-1,-1,1,-1,10.9243,10.9243)"><stop offset="0" style="stop-color:black;stop-opacity:0"/><stop offset="1" style="stop-color:black;stop-opacity:0.5"/></linearGradient>
        <linearGradient id="_Linear2" x1="0" y1="0" x2="1" y2="0" gradientUnits="userSpaceOnUse" gradientTransform="matrix(1.5,-1.5,1.5,1.5,12.5,14)"><stop offset="0" style="stop-color:white;stop-opacity:0"/><stop offset="0.5" style="stop-color:white;stop-opacity:0.3"/><stop offset="1" style="stop-color:white;stop-opacity:0"/></linearGradient>
        <linearGradient id="_Linear3" x1="0" y1="0" x2="1" y2="0" gradientUnits="userSpaceOnUse" gradientTransform="matrix(-2.10526,-4.73684,4.73684,-2.10526,6.26316,6.26316)"><stop offset="0" style="stop-color:white;stop-opacity:0"/><stop offset="1" style="stop-color:white;stop-opacity:0.3"/></linearGradient>
    </defs>
</svg>
