<?xml version="1.0" encoding="UTF-8" standalone="no"?>
<!DOCTYPE svg PUBLIC "-//W3C//DTD SVG 1.1//EN" "http://www.w3.org/Graphics/SVG/1.1/DTD/svg11.dtd">
<svg width="100%" height="100%" viewBox="0 0 16 16" version="1.1" xmlns="http://www.w3.org/2000/svg" xmlns:xlink="http://www.w3.org/1999/xlink" xml:space="preserve" xmlns:serif="http://www.serif.com/" style="fill-rule:evenodd;clip-rule:evenodd;stroke-linejoin:round;stroke-miterlimit:2;">
    <g id="gdark">
        <path d="M16,5L0,5L0,14.994C0,15.55 0.45,16 1.006,16C3.883,16 12.117,16 14.994,16C15.55,16 16,15.55 16,14.994C16,12.278 16,5 16,5Z" style="fill:rgb(188,192,200);"/>
        <path d="M16,1.006C16,0.739 15.894,0.483 15.705,0.295C15.517,0.106 15.261,-0 14.994,-0C12.117,0 3.883,0 1.006,-0C0.739,-0 0.483,0.106 0.295,0.295C0.106,0.483 -0,0.739 0,1.006C0,2.466 0,5 0,5L16,5L16,1.006Z" style="fill:rgb(41,121,255);"/>
        <path d="M16,1C16,0.735 15.895,0.48 15.707,0.293C15.52,0.105 15.265,-0 15,0L1,0C0.735,-0 0.48,0.105 0.293,0.293C0.105,0.48 -0,0.735 0,1L0,15C-0,15.265 0.105,15.52 0.293,15.707C0.48,15.895 0.735,16 1,16L15,16C15.265,16 15.52,15.895 15.707,15.707C15.895,15.52 16,15.265 16,15L16,1ZM15.5,1L15.5,15C15.5,15.133 15.447,15.26 15.354,15.354C15.26,15.447 15.133,15.5 15,15.5L1,15.5C0.867,15.5 0.74,15.447 0.646,15.354C0.553,15.26 0.5,15.133 0.5,15L0.5,1C0.5,0.867 0.553,0.74 0.646,0.646C0.74,0.553 0.867,0.5 1,0.5L15,0.5C15.133,0.5 15.26,0.553 15.354,0.646C15.447,0.74 15.5,0.867 15.5,1Z" style="fill:white;fill-opacity:0.2;"/>
        <path d="M7,12.5L7,14L5,14L5,11L3,11L8,7L13,11L11,11L11,14L9,14L9,12.5C9,11.948 8.552,11.5 8,11.5C7.45,11.5 7.003,11.945 7,12.494L7,12.5Z" style="fill:rgb(41,121,255);"/>
    </g>
    </svg>
