<?xml version="1.0" encoding="UTF-8" standalone="no"?>
<!DOCTYPE svg PUBLIC "-//W3C//DTD SVG 1.1//EN" "http://www.w3.org/Graphics/SVG/1.1/DTD/svg11.dtd">
<svg width="100%" height="100%" viewBox="0 0 16 16" version="1.1" xmlns="http://www.w3.org/2000/svg" xmlns:xlink="http://www.w3.org/1999/xlink" xml:space="preserve" xmlns:serif="http://www.serif.com/" style="fill-rule:evenodd;clip-rule:evenodd;stroke-linejoin:round;stroke-miterlimit:2;">
    <g id="gdark">
        <path d="M8,7.998C8,8.552 7.552,9 6.998,9L1.002,9C0.448,9 0,8.552 0,7.998C0,6.266 0,2.731 0,1C-0,0.735 0.105,0.481 0.293,0.293C0.481,0.105 0.735,-0 1,0C2.537,-0 5.463,-0 7,-0C7.265,-0 7.519,0.105 7.707,0.293C7.895,0.481 8,0.735 8,1C8,2.731 8,6.266 8,7.998Z" style="fill:rgb(188,192,200);"/>
        <path d="M8,7.998C8,8.552 7.552,9 6.998,9L1.002,9C0.448,9 0,8.552 0,7.998C0,6.266 0,2.731 0,1C-0,0.735 0.105,0.481 0.293,0.293C0.481,0.105 0.735,-0 1,0C2.537,-0 5.463,-0 7,-0C7.265,-0 7.519,0.105 7.707,0.293C7.895,0.481 8,0.735 8,1C8,2.731 8,6.266 8,7.998ZM7.5,7.998C7.5,8.275 7.275,8.5 6.998,8.5L1.002,8.5C0.725,8.5 0.5,8.275 0.5,7.998C0.5,6.266 0.5,2.731 0.5,1C0.5,0.868 0.553,0.74 0.647,0.647C0.74,0.553 0.868,0.5 1,0.5L7,0.5C7.132,0.5 7.26,0.553 7.353,0.647C7.447,0.74 7.5,0.868 7.5,1L7.5,7.998Z" style="fill:rgb(181,185,192);"/>
        <g id="move_shadow3" serif:id="move_shadow">
            <clipPath id="_clip1">
                <path d="M8,7.993C8,8.549 7.549,9 6.993,9C5.456,9 2.544,9 1.007,9C0.451,9 -0,8.549 -0,7.993C0,6.258 0,2.729 0,1C-0,0.735 0.105,0.481 0.293,0.293C0.481,0.105 0.735,-0 1,0C2.537,-0 5.463,-0 7,-0C7.265,-0 7.519,0.105 7.707,0.293C7.895,0.481 8,0.735 8,1C8,2.729 8,6.258 8,7.993Z"/>
            </clipPath>
            <g clip-path="url(#_clip1)">
                <g opacity="0.5">
                    <g style="filter:url(#_Effect2);">
                        <path d="M7,7C7.265,7 7.519,7.105 7.707,7.293C7.895,7.481 8,7.735 8,8C8,9.732 8,13.268 8,15C8,15.265 7.895,15.519 7.707,15.707C7.519,15.895 7.265,16 7,16C5.463,16 2.537,16 1,16C0.735,16 0.481,15.895 0.293,15.707C0.105,15.519 -0,15.265 -0,15C0,13.268 0,9.732 0,8C-0,7.735 0.105,7.481 0.293,7.293C0.481,7.105 0.735,7 1,7C2.537,7 5.463,7 7,7Z"/>
                    </g>
                </g>
            </g>
        </g>
        <path d="M7,7C7.265,7 7.519,7.105 7.707,7.293C7.895,7.481 8,7.735 8,8C8,9.732 8,13.268 8,15C8,15.265 7.895,15.519 7.707,15.707C7.519,15.895 7.265,16 7,16C5.463,16 2.537,16 1,16C0.735,16 0.481,15.895 0.293,15.707C0.105,15.519 -0,15.265 -0,15C0,13.268 0,9.732 0,8C-0,7.735 0.105,7.481 0.293,7.293C0.481,7.105 0.735,7 1,7C2.537,7 5.463,7 7,7Z" style="fill:rgb(41,121,255);"/>
        <path d="M14,13L16,13L13,16L10,13L12,13L12,8L14,8L14,13Z" style="fill:rgb(151,159,173);"/>
        <path d="M7,7C7.265,7 7.519,7.105 7.707,7.293C7.895,7.481 8,7.735 8,8L8,9L7.5,9L7.5,7.994C7.5,7.721 7.279,7.5 7.006,7.5L0.994,7.5C0.721,7.5 0.5,7.721 0.5,7.994L0.5,9L0,9L0,8C-0,7.735 0.105,7.481 0.293,7.293C0.481,7.105 0.735,7 1,7L7,7Z" style="fill:url(#_Linear3);"/>
        </g>
    <defs>
        <filter id="_Effect2" filterUnits="userSpaceOnUse" x="-12" y="-5" width="32" height="33">
            <feGaussianBlur in="SourceGraphic" stdDeviation="2"/>
        </filter>
        <linearGradient id="_Linear3" x1="0" y1="0" x2="1" y2="0" gradientUnits="userSpaceOnUse" gradientTransform="matrix(7,-1.71451e-15,1.71451e-15,7,0.5,7.5)"><stop offset="0" style="stop-color:white;stop-opacity:0"/><stop offset="0.25" style="stop-color:white;stop-opacity:0.23"/><stop offset="0.75" style="stop-color:white;stop-opacity:0.23"/><stop offset="1" style="stop-color:white;stop-opacity:0"/></linearGradient>
    </defs>
</svg>
