<?xml version="1.0" encoding="UTF-8" standalone="no"?>
<!DOCTYPE svg PUBLIC "-//W3C//DTD SVG 1.1//EN" "http://www.w3.org/Graphics/SVG/1.1/DTD/svg11.dtd">
<svg width="100%" height="100%" viewBox="0 0 20 20" version="1.1" xmlns="http://www.w3.org/2000/svg" xmlns:xlink="http://www.w3.org/1999/xlink" xml:space="preserve" xmlns:serif="http://www.serif.com/" style="fill-rule:evenodd;clip-rule:evenodd;stroke-linejoin:round;stroke-miterlimit:2;">
    <g id="dark">
        <g id="blue">
            <path d="M4,19L4,11L16,11L16,19L18.253,19C18.666,19 19,18.666 19,18.253C19,15.158 19,3.5 19,3.5L16.5,1L15,1C15,1 15,5.449 15,7.253C15,7.451 14.921,7.641 14.781,7.781C14.641,7.921 14.451,8 14.253,8C12.559,8 8.441,8 6.747,8C6.549,8 6.359,7.921 6.219,7.781C6.079,7.641 6,7.451 6,7.253C6,5.449 6,1 6,1L1.747,1C1.549,1 1.359,1.079 1.219,1.219C1.079,1.359 1,1.549 1,1.747C1,4.672 1,15.328 1,18.253C1,18.666 1.334,19 1.747,19C2.635,19 4,19 4,19Z" style="fill:rgb(41,121,255);"/>
        </g>
        <g id="yellow">
        </g>
        <g id="red">
        </g>
        <g id="text">
            <path d="M5,19L5,12L15,12L15,19L5,19Z" style="fill:rgb(151,159,173);"/>
            <path d="M14,1L14,7C14,7 7,7 7,7L7,1L14,1ZM13,2L11,2L11,5L13,5L13,2Z" style="fill:rgb(151,159,173);"/>
        </g>
        <g id="working">
        </g>
    </g>
</svg>
