<?xml version="1.0" encoding="UTF-8" standalone="no"?>
<!DOCTYPE svg PUBLIC "-//W3C//DTD SVG 1.1//EN" "http://www.w3.org/Graphics/SVG/1.1/DTD/svg11.dtd">
<svg width="100%" height="100%" viewBox="0 0 16 16" version="1.1" xmlns="http://www.w3.org/2000/svg" xmlns:xlink="http://www.w3.org/1999/xlink" xml:space="preserve" xmlns:serif="http://www.serif.com/" style="fill-rule:evenodd;clip-rule:evenodd;stroke-linejoin:round;stroke-miterlimit:2;">
    <g id="green_dark">
        <path d="M4,2.086L6.707,4.793C6.895,4.98 7,5.235 7,5.5L7,5.5L7,5.5L7,5.501C7,5.767 6.894,6.022 6.705,6.209L5.91,7L15.5,7L4,0.5L4,2.086Z" style="fill:rgb(41,121,255);"/>
    </g>
    <g id="red_dark">
    </g>
    <g id="gray_dark">
        <path d="M4,15.5L4,9L15.5,9L4,15.5Z" style="fill:rgb(114,114,114);"/>
    </g>
    <g id="yellow_dark">
    </g>
    <g id="icon_dark">
        <path d="M2.983,8.5L2.983,6C1.888,6 1,6.888 1,7.983C1,7.983 1,8.017 1,8.017C1,8.543 1.209,9.047 1.581,9.419C1.861,9.699 2.217,9.887 2.6,9.963C2.871,10.016 3.048,10.279 2.994,10.55C2.941,10.821 2.678,10.997 2.407,10.944C1.831,10.83 1.296,10.548 0.874,10.126C0.314,9.567 0,8.808 0,8.017L0,7.983C0,6.336 1.336,5 2.983,5L3,2.5L6,5.5L2.983,8.5Z" style="fill:rgb(151,159,173);"/>
    </g>
</svg>
