<?xml version="1.0" encoding="UTF-8" standalone="no"?>
<!DOCTYPE svg PUBLIC "-//W3C//DTD SVG 1.1//EN" "http://www.w3.org/Graphics/SVG/1.1/DTD/svg11.dtd">
<svg width="100%" height="100%" viewBox="0 0 16 16" version="1.1" xmlns="http://www.w3.org/2000/svg" xmlns:xlink="http://www.w3.org/1999/xlink" xml:space="preserve" xmlns:serif="http://www.serif.com/" style="fill-rule:evenodd;clip-rule:evenodd;stroke-linejoin:round;stroke-miterlimit:2;">
    <g id="dark">
        <g id="green">
            <path d="M3,15l0,-5.48c-0,-0.403 0.16,-0.79 0.445,-1.075c0.285,-0.285 0.672,-0.445 1.075,-0.445c1.732,0 5.228,0 6.96,0c0.403,-0 0.79,0.16 1.075,0.445c0.285,0.285 0.445,0.672 0.445,1.075l-0,5.48l1.254,0c0.412,-0 0.746,-0.334 0.746,-0.746c0,-2.623 0,-11.254 0,-11.254l-2,-2l-1,0l0,6c0,0 -5.261,0 -7.251,0c-0.198,0 -0.389,-0.079 -0.529,-0.22c-0.141,-0.14 -0.22,-0.331 -0.22,-0.529c0,-1.61 0,-5.251 0,-5.251l-2.254,-0c-0.412,0 -0.746,0.334 -0.746,0.746c0,2.428 0,10.08 0,12.508c-0,0.412 0.334,0.746 0.746,0.746c0.569,-0 1.254,-0 1.254,-0Z" style="fill:rgb(41,121,255);"/>
        </g>
        <g id="red">
        </g>
        <g id="gray">
        </g>
        <g id="yellow">
        </g>
        <g id="icon">
            <path d="M12,15l-0,-5.48c0,-0.138 -0.055,-0.27 -0.152,-0.368c-0.098,-0.097 -0.23,-0.152 -0.368,-0.152l-6.96,-0c-0.138,-0 -0.27,0.055 -0.368,0.152c-0.097,0.098 -0.152,0.23 -0.152,0.368l0,5.48l8,-0Z" style="fill:rgb(151,159,173);"/>
            <path d="M11,6l0,-5l-6,0l0,5l6,0Zm-1,-4l-2,0l0,3c0,0 2,0 2,0l0,-3Z" style="fill:rgb(151,159,173);"/>
        </g>
    </g>
    <g id="menu">
    </g>
</svg>
