<?xml version="1.0" encoding="UTF-8" standalone="no"?>
<!DOCTYPE svg PUBLIC "-//W3C//DTD SVG 1.1//EN" "http://www.w3.org/Graphics/SVG/1.1/DTD/svg11.dtd">
<svg width="100%" height="100%" viewBox="0 0 16 16" version="1.1" xmlns="http://www.w3.org/2000/svg" xmlns:xlink="http://www.w3.org/1999/xlink" xml:space="preserve" xmlns:serif="http://www.serif.com/" style="fill-rule:evenodd;clip-rule:evenodd;stroke-linejoin:round;stroke-miterlimit:2;">
    <g id="green_dark">
        <path d="M9,10.087L9,0.5L15.5,12L13.899,12L11.209,9.295C11.022,9.106 10.767,9 10.501,9L10.5,9L10.5,9L10.5,9C10.234,9 9.98,9.106 9.792,9.294L9,10.087Z" style="fill:rgb(41,121,255);"/>
    </g>
    <g id="red_dark">
    </g>
    <g id="gray_dark">
        <path d="M0.5,12L7,12L7,0.5L0.5,12Z" style="fill:rgb(114,114,114);"/>
    </g>
    <g id="yellow_dark">
    </g>
    <g id="icon_dark">
        <path d="M7.5,13.006L10,13.017C10,14.112 9.112,15 8.017,15C8.017,15 7.983,15 7.983,15C7.457,15 6.953,14.791 6.581,14.419C6.301,14.139 6.113,13.783 6.037,13.4C5.984,13.129 5.721,12.952 5.45,13.006C5.179,13.059 5.003,13.322 5.056,13.593C5.17,14.169 5.452,14.704 5.874,15.126C6.433,15.686 7.192,16 7.983,16L8.017,16C9.664,16 11,14.664 11,13.017L13.5,13.017L10.5,10L7.5,13.006Z" style="fill:rgb(151,159,173);"/>
    </g>
</svg>
