<?xml version="1.0" encoding="UTF-8" standalone="no"?>
<!DOCTYPE svg PUBLIC "-//W3C//DTD SVG 1.1//EN" "http://www.w3.org/Graphics/SVG/1.1/DTD/svg11.dtd">
<svg width="100%" height="100%" viewBox="0 0 20 20" version="1.1" xmlns="http://www.w3.org/2000/svg" xmlns:xlink="http://www.w3.org/1999/xlink" xml:space="preserve" xmlns:serif="http://www.serif.com/" style="fill-rule:evenodd;clip-rule:evenodd;stroke-linejoin:round;stroke-miterlimit:2;">
    <g id="dark">
        <g id="blue">
            <path d="M10,2C14.415,2 18,5.585 18,10C18,14.415 14.415,18 10,18C5.585,18 2,14.415 2,10C2,5.585 5.585,2 10,2ZM11.636,7L9.663,7L9.967,5.163C10.057,4.619 9.688,4.104 9.144,4.013C8.599,3.923 8.084,4.292 7.994,4.837L7.636,7L6.325,7C5.773,7 5.325,7.448 5.325,8C5.325,8.552 5.773,9 6.325,9L7.305,9L6.973,11L5.675,11C5.124,11 4.675,11.448 4.675,12C4.675,12.552 5.124,13 5.675,13L6.642,13L6.338,14.837C6.248,15.381 6.617,15.896 7.161,15.987C7.706,16.077 8.221,15.708 8.311,15.163L8.669,13L10.642,13L10.338,14.837C10.248,15.381 10.617,15.896 11.161,15.987C11.706,16.077 12.221,15.708 12.311,15.163L12.669,13L13.675,13C14.227,13 14.675,12.552 14.675,12C14.675,11.448 14.227,11 13.675,11L13.001,11L13.332,9L14.325,9C14.876,9 15.325,8.552 15.325,8C15.325,7.448 14.876,7 14.325,7L13.663,7L13.967,5.163C14.057,4.619 13.688,4.104 13.144,4.013C12.599,3.923 12.084,4.292 11.994,4.837L11.636,7ZM11.305,9L9.332,9L9.001,11L10.973,11L11.305,9Z" style="fill:rgb(41,121,255);"/>
        </g>
        <g id="yellow">
        </g>
        <g id="red">
        </g>
        <g id="text">
        </g>
        <g id="working">
        </g>
    </g>
</svg>
