<?xml version="1.0" encoding="UTF-8" standalone="no"?>
<!DOCTYPE svg PUBLIC "-//W3C//DTD SVG 1.1//EN" "http://www.w3.org/Graphics/SVG/1.1/DTD/svg11.dtd">
<svg width="100%" height="100%" viewBox="0 0 20 20" version="1.1" xmlns="http://www.w3.org/2000/svg" xmlns:xlink="http://www.w3.org/1999/xlink" xml:space="preserve" xmlns:serif="http://www.serif.com/" style="fill-rule:evenodd;clip-rule:evenodd;stroke-linejoin:round;stroke-miterlimit:2;">
    <g id="dark">
        <g id="blue">
            <path d="M1.749,8C1.55,8 1.36,7.921 1.219,7.781C1.079,7.64 1,7.45 1,7.251C1,5.906 1,3.094 1,1.749C1,1.55 1.079,1.36 1.219,1.219C1.36,1.079 1.55,1 1.749,1C4.675,1 15.325,1 18.251,1C18.45,1 18.64,1.079 18.781,1.219C18.921,1.36 19,1.55 19,1.749C19,3.094 19,5.906 19,7.251C19,7.45 18.921,7.64 18.781,7.781C18.64,7.921 18.45,8 18.251,8C15.325,8 4.675,8 1.749,8Z" style="fill:rgb(41,121,255);"/>
        </g>
        <g id="yellow">
        </g>
        <g id="red">
        </g>
        <g id="gray">
            <path d="M14,9L14,17L17,17L17,9L19,9C19,14.598 19,17.154 19,18.25C19,18.449 18.921,18.639 18.781,18.78C18.64,18.92 18.45,18.999 18.251,18.999C16.906,18.999 14.094,18.999 12.749,18.999C12.335,18.999 12,18.664 12,18.25C12,15.927 12,9 12,9L14,9Z" style="fill:rgb(114,114,114);"/>
        </g>
        <g id="text">
            <path d="M6,11L7.502,11C8.43,11 9.32,11.369 9.976,12.024C10.631,12.68 11,13.57 11,14.498C11,15.952 11,17.5 11,17.5C11,18.052 10.552,18.5 10,18.5C9.448,18.5 9,18.052 9,17.5L9,14.498C9,14.101 8.842,13.72 8.561,13.439C8.28,13.158 7.899,13 7.502,13L6,13C6,13 6,14.926 6,14.926C6,15.117 5.89,15.292 5.718,15.375C5.545,15.458 5.341,15.434 5.191,15.315C3.776,14.183 1,11.962 1,11.962C1,11.962 3.776,9.741 5.191,8.609C5.341,8.49 5.545,8.466 5.718,8.549C5.89,8.632 6,8.807 6,8.998L6,11Z" style="fill:rgb(151,159,173);"/>
        </g>
        <g id="working">
        </g>
    </g>
</svg>
