<?xml version="1.0" encoding="UTF-8" standalone="no"?>
<!DOCTYPE svg PUBLIC "-//W3C//DTD SVG 1.1//EN" "http://www.w3.org/Graphics/SVG/1.1/DTD/svg11.dtd">
<svg width="100%" height="100%" viewBox="0 0 20 20" version="1.1" xmlns="http://www.w3.org/2000/svg" xmlns:xlink="http://www.w3.org/1999/xlink" xml:space="preserve" xmlns:serif="http://www.serif.com/" style="fill-rule:evenodd;clip-rule:evenodd;stroke-linejoin:round;stroke-miterlimit:2;">
    <g id="dark">
        <g id="blue">
        </g>
        <g id="yellow">
        </g>
        <g id="red">
        </g>
        <g id="gray">
        </g>
        <g id="text">
            <path d="M18.253,19C18.665,19 19,18.665 19,18.253L19,1.747C19,1.335 18.665,1 18.253,1L1.747,1C1.335,1 1,1.335 1,1.747L1,18.253C1,18.665 1.335,19 1.747,19L18.253,19ZM11.943,13L15.057,13L15.564,14.351C15.757,14.868 16.334,15.13 16.851,14.936C17.368,14.743 17.63,14.166 17.436,13.649L14.436,5.649C14.385,5.511 14.305,5.391 14.207,5.293C14.109,5.195 13.989,5.115 13.851,5.064C13.735,5.02 13.617,5 13.5,5C13.383,5 13.265,5.02 13.149,5.064C13.011,5.115 12.891,5.195 12.793,5.293C12.695,5.391 12.615,5.511 12.564,5.649L9.564,13.649C9.37,14.166 9.632,14.743 10.149,14.936C10.666,15.13 11.243,14.868 11.436,14.351L11.943,13ZM6.5,11.152L4.436,5.649C4.243,5.132 3.666,4.87 3.149,5.064C2.632,5.257 2.37,5.834 2.564,6.351L5.564,14.351C5.615,14.489 5.695,14.609 5.793,14.707C5.891,14.805 6.011,14.885 6.149,14.936C6.263,14.979 6.38,15 6.495,15L6.505,15C6.62,15 6.737,14.979 6.851,14.936C6.989,14.885 7.109,14.805 7.207,14.707C7.305,14.609 7.385,14.489 7.436,14.351L10.436,6.351C10.63,5.834 10.368,5.257 9.851,5.064C9.334,4.87 8.757,5.132 8.564,5.649L6.5,11.152ZM12.693,11L14.307,11L13.5,8.848L12.693,11Z" style="fill:rgb(151,159,173);"/>
        </g>
        <g id="working">
        </g>
    </g>
</svg>
