<?xml version="1.0" encoding="UTF-8" standalone="no"?>
<!DOCTYPE svg PUBLIC "-//W3C//DTD SVG 1.1//EN" "http://www.w3.org/Graphics/SVG/1.1/DTD/svg11.dtd">
<svg width="100%" height="100%" viewBox="0 0 20 20" version="1.1" xmlns="http://www.w3.org/2000/svg" xmlns:xlink="http://www.w3.org/1999/xlink" xml:space="preserve" xmlns:serif="http://www.serif.com/" style="fill-rule:evenodd;clip-rule:evenodd;stroke-linejoin:round;stroke-miterlimit:2;">
    <g id="dark">
                <g id="yellow">
            <path d="M1,9.51C1,9.905 1.157,10.284 1.436,10.564C1.716,10.843 2.095,11 2.49,11C4.72,11 8.878,11 10.874,11C11.524,11 12.078,10.53 12.185,9.889C12.343,8.942 12.703,6.781 12.887,5.676C12.915,5.508 12.868,5.336 12.758,5.205C12.647,5.075 12.485,5 12.314,5C11.429,5 10,5 10,5L10,2.754C10,2.338 9.662,2 9.246,2C7.549,2 3.451,2 1.754,2C1.554,2 1.362,2.079 1.221,2.221C1.079,2.362 1,2.554 1,2.755C1,4.323 1,7.92 1,9.51ZM8,5C8,5 5.835,5 4.69,5C4.294,5 3.956,5.29 3.898,5.683C3.733,6.78 3.428,8.812 3.428,8.812C3.428,8.812 3.378,9 3.198,9C3.126,9 3,8.932 3,8.812C3,7.903 3,4 3,4L8,4L8,5Z" style="fill:rgb(229,115,26);"/>
        </g>
                <g id="text">
            <path d="M2,14L18,14C18.552,14 19,13.552 19,13C19,12.448 18.552,12 18,12L2,12C1.448,12 1,12.448 1,13C1,13.552 1.448,14 2,14Z" style="fill:rgb(151,159,173);"/>
            <path d="M14,10L18,10C18.552,10 19,9.552 19,9C19,8.448 18.552,8 18,8L14,8C13.448,8 13,8.448 13,9C13,9.552 13.448,10 14,10Z" style="fill:rgb(151,159,173);"/>
            <path d="M2,18L18,18C18.552,18 19,17.552 19,17C19,16.448 18.552,16 18,16L2,16C1.448,16 1,16.448 1,17C1,17.552 1.448,18 2,18Z" style="fill:rgb(151,159,173);"/>
        </g>
            </g>
</svg>
