<?xml version="1.0" encoding="UTF-8" standalone="no"?>
<!DOCTYPE svg PUBLIC "-//W3C//DTD SVG 1.1//EN" "http://www.w3.org/Graphics/SVG/1.1/DTD/svg11.dtd">
<svg width="100%" height="100%" viewBox="0 0 16 16" version="1.1" xmlns="http://www.w3.org/2000/svg" xmlns:xlink="http://www.w3.org/1999/xlink" xml:space="preserve" xmlns:serif="http://www.serif.com/" style="fill-rule:evenodd;clip-rule:evenodd;stroke-linejoin:round;stroke-miterlimit:2;">
    <g id="gdark">
        <g id="rotate_ccw_shadow">
        </g>
        <g id="rotate_cw_shadow">
        </g>
        <g id="move_shadow">
        </g>
        <g id="move_shadow1" serif:id="move_shadow">
        </g>
        <g id="move_shadow2" serif:id="move_shadow">
        </g>
        <g id="move_shadow3" serif:id="move_shadow">
        </g>
        <g id="folder_shadow">
        </g>
        <g id="export_shadow">
        </g>
        <g id="copy_shadow">
        </g>
        <g id="copy_shadow1" serif:id="copy_shadow">
        </g>
        <g id="clip_shadow">
        </g>
        <g id="clip_shadow1" serif:id="clip_shadow">
        </g>
        <g id="cut_shadow">
        </g>
        <path d="M8,5.002C8,4.449 7.551,4 6.998,4L5.002,4C4.449,4 4,4.449 4,5.002L4,6.998C4,7.551 4.449,8 5.002,8L6.998,8C7.551,8 8,7.551 8,6.998L8,5.002Z" style="fill:rgb(41,121,255);"/>
        <path d="M13,10.002C13,9.449 12.551,9 11.998,9L10.002,9C9.449,9 9,9.449 9,10.002L9,11.998C9,12.551 9.449,13 10.002,13L11.998,13C12.551,13 13,12.551 13,11.998L13,10.002Z" style="fill:rgb(41,121,255);"/>
        <path d="M13,5.002C13,4.449 12.551,4 11.998,4L10.002,4C9.449,4 9,4.449 9,5.002L9,6.998C9,7.551 9.449,8 10.002,8L11.998,8C12.551,8 13,7.551 13,6.998L13,5.002Z" style="fill:rgb(151,159,173);"/>
        <path d="M8,10.002C8,9.449 7.551,9 6.998,9L5.002,9C4.449,9 4,9.449 4,10.002L4,11.998C4,12.551 4.449,13 5.002,13L6.998,13C7.551,13 8,12.551 8,11.998L8,10.002Z" style="fill:rgb(151,159,173);"/>
    </g>
    <g id="menu">
    </g>
</svg>
