<?xml version="1.0" encoding="UTF-8" standalone="no"?>
<!DOCTYPE svg PUBLIC "-//W3C//DTD SVG 1.1//EN" "http://www.w3.org/Graphics/SVG/1.1/DTD/svg11.dtd">
<svg width="100%" height="100%" viewBox="0 0 20 20" version="1.1" xmlns="http://www.w3.org/2000/svg" xmlns:xlink="http://www.w3.org/1999/xlink" xml:space="preserve" xmlns:serif="http://www.serif.com/" style="fill-rule:evenodd;clip-rule:evenodd;stroke-linejoin:round;stroke-miterlimit:2;">
    <g id="dark">
        <g id="blue">
            <path d="M3,8C4.104,8 5,8.896 5,10C5,11.104 4.104,12 3,12C1.896,12 1,11.104 1,10C1,8.896 1.896,8 3,8ZM10,8C11.104,8 12,8.896 12,10C12,11.104 11.104,12 10,12C8.896,12 8,11.104 8,10C8,8.896 8.896,8 10,8ZM17,8C18.104,8 19,8.896 19,10C19,11.104 18.104,12 17,12C15.896,12 15,11.104 15,10C15,8.896 15.896,8 17,8Z" style="fill:rgb(41,121,255);"/>
        </g>
        <g id="yellow">
        </g>
        <g id="red">
        </g>
        <g id="text">
        </g>
        <g id="working">
        </g>
    </g>
</svg>
