<?xml version="1.0" encoding="UTF-8" standalone="no"?>
<!DOCTYPE svg PUBLIC "-//W3C//DTD SVG 1.1//EN" "http://www.w3.org/Graphics/SVG/1.1/DTD/svg11.dtd">
<svg width="100%" height="100%" viewBox="0 0 20 20" version="1.1" xmlns="http://www.w3.org/2000/svg" xmlns:xlink="http://www.w3.org/1999/xlink" xml:space="preserve" xmlns:serif="http://www.serif.com/" style="fill-rule:evenodd;clip-rule:evenodd;stroke-linejoin:round;stroke-miterlimit:2;">
    <g id="dark">
        <g id="blue">
        </g>
        <g id="yellow">
            <path d="M14.013,3L14.013,5C14.013,5 14.689,5 15.252,5C15.665,5 16,5.335 16,5.748C16,6.692 16,8.308 16,9.252C16,9.665 15.665,10 15.252,10C13.099,10 6.901,10 4.748,10C4.335,10 4,9.665 4,9.252C4,8.308 4,6.692 4,5.748C4,5.549 4.079,5.359 4.219,5.219C4.359,5.079 4.549,5 4.748,5C5.316,5 6,5 6,5L6,3L2.75,3C2.336,3 2,3.336 2,3.75C2,6.436 2,15.564 2,18.25C2,18.449 2.079,18.64 2.22,18.78C2.36,18.921 2.551,19 2.75,19C5.436,19 14.564,19 17.25,19C17.449,19 17.64,18.921 17.78,18.78C17.921,18.64 18,18.449 18,18.25C18,15.564 18,6.436 18,3.75C18,3.336 17.664,3 17.25,3C16.095,3 14.013,3 14.013,3Z" style="fill:rgb(229,115,26);"/>
        </g>
        <g id="red">
        </g>
        <g id="gray">
        </g>
        <g id="text">
            <path d="M7,3.5C7,1.844 8.344,0.5 10,0.5C11.656,0.5 13,1.844 13,3.5L13,6L15,6L15,9L5,9L5,6L7,6L7,3.5ZM10,2.5C10.552,2.5 11,2.948 11,3.5C11,4.052 10.552,4.5 10,4.5C9.448,4.5 9,4.052 9,3.5C9,2.948 9.448,2.5 10,2.5Z" style="fill:rgb(151,159,173);"/>
        </g>
        <g id="working">
        </g>
    </g>
</svg>
