<?xml version="1.0" encoding="UTF-8" standalone="no"?>
<!DOCTYPE svg PUBLIC "-//W3C//DTD SVG 1.1//EN" "http://www.w3.org/Graphics/SVG/1.1/DTD/svg11.dtd">
<svg width="100%" height="100%" viewBox="0 0 16 16" version="1.1" xmlns="http://www.w3.org/2000/svg" xmlns:xlink="http://www.w3.org/1999/xlink" xml:space="preserve" xmlns:serif="http://www.serif.com/" style="fill-rule:evenodd;clip-rule:evenodd;stroke-linejoin:round;stroke-miterlimit:2;">
    <g id="green_dark">
    </g>
    <g id="red_dark">
    </g>
    <g id="gray_dark">
    </g>
    <g id="yellow_dark">
        <path d="M8,1C11.863,1 15,4.137 15,8C15,11.863 11.863,15 8,15C4.137,15 1,11.863 1,8C1,4.137 4.137,1 8,1ZM8,11.5C8.404,11.5 8.733,11.828 8.733,12.233C8.733,12.637 8.404,12.965 8,12.965C7.596,12.965 7.267,12.637 7.267,12.233C7.267,11.828 7.596,11.5 8,11.5ZM6,5.535L6,5.535C6,5.535 6.041,5.538 6.102,5.524C6.247,5.494 6.377,5.4 6.447,5.258L6.448,5.256C6.524,5.124 7.005,4.535 8.5,4.535C9.307,4.535 10,5.228 10,6.035C10,6.983 9.216,7.34 8.632,7.674C8.292,7.868 7.992,8.056 7.802,8.265C7.605,8.481 7.5,8.722 7.5,9L7.5,10C7.5,10.276 7.724,10.5 8,10.5C8.276,10.5 8.5,10.276 8.5,10L8.5,9C8.5,8.966 8.531,8.947 8.557,8.921C8.594,8.885 8.637,8.85 8.684,8.816C8.909,8.652 9.21,8.502 9.509,8.32C10.271,7.858 11,7.221 11,6.035C11,4.69 9.845,3.535 8.5,3.535C6.06,3.535 5.546,4.825 5.546,4.825C5.43,5.076 5.54,5.373 5.79,5.489C5.858,5.52 5.93,5.535 6,5.535Z" style="fill:rgb(229,115,26);"/>
    </g>
    <g id="icon_dark">
    </g>
</svg>
