<?xml version="1.0" encoding="UTF-8" standalone="no"?>
<!DOCTYPE svg PUBLIC "-//W3C//DTD SVG 1.1//EN" "http://www.w3.org/Graphics/SVG/1.1/DTD/svg11.dtd">
<svg width="100%" height="100%" viewBox="0 0 16 16" version="1.1" xmlns="http://www.w3.org/2000/svg" xmlns:xlink="http://www.w3.org/1999/xlink" xml:space="preserve" xmlns:serif="http://www.serif.com/" style="fill-rule:evenodd;clip-rule:evenodd;stroke-linejoin:round;stroke-miterlimit:2;">
    <g id="dark">
        <g id="green">
            <path d="M9.576,6l-2.486,0l0.237,-1.418c0.045,-0.272 -0.139,-0.53 -0.411,-0.575c-0.273,-0.045 -0.53,0.139 -0.576,0.411l-0.264,1.582l-1.076,0c-0.276,0 -0.5,0.224 -0.5,0.5c-0,0.276 0.224,0.5 0.5,0.5l0.91,0l-0.334,2l-1.076,0c-0.276,0 -0.5,0.224 -0.5,0.5c0,0.276 0.224,0.5 0.5,0.5l0.91,0l-0.237,1.418c-0.045,0.272 0.139,0.53 0.411,0.575c0.273,0.046 0.53,-0.139 0.576,-0.411l0.264,-1.582l2.486,0l-0.237,1.418c-0.045,0.272 0.139,0.53 0.411,0.575c0.273,0.046 0.53,-0.139 0.576,-0.411l0.264,-1.582l1.076,0c0.276,0 0.5,-0.224 0.5,-0.5c0,-0.276 -0.224,-0.5 -0.5,-0.5l-0.91,0l0.334,-2l1.076,0c0.276,0 0.5,-0.224 0.5,-0.5c-0,-0.276 -0.224,-0.5 -0.5,-0.5l-0.91,0l0.237,-1.418c0.045,-0.272 -0.139,-0.53 -0.411,-0.575c-0.273,-0.045 -0.53,0.139 -0.576,0.411l-0.264,1.582Zm-2.652,1l-0.334,2l2.486,0l0.334,-2l-2.486,0Z" style="fill:rgb(41,121,255);"/>
        </g>
        <g id="red">
        </g>
        <g id="gray">
        </g>
        <g id="yellow">
        </g>
        <g id="icon">
        </g>
    </g>
    <g id="menu">
    </g>
</svg>
