<?xml version="1.0" encoding="UTF-8" standalone="no"?>
<!DOCTYPE svg PUBLIC "-//W3C//DTD SVG 1.1//EN" "http://www.w3.org/Graphics/SVG/1.1/DTD/svg11.dtd">
<svg width="100%" height="100%" viewBox="0 0 20 20" version="1.1" xmlns="http://www.w3.org/2000/svg" xmlns:xlink="http://www.w3.org/1999/xlink" xml:space="preserve" xmlns:serif="http://www.serif.com/" style="fill-rule:evenodd;clip-rule:evenodd;stroke-linejoin:round;stroke-miterlimit:2;">
    <g id="dark">
        <g id="blue">
        </g>
        <g id="yellow">
        </g>
        <g id="red">
        </g>
        <g id="text">
            <path d="M7.228,1.134C7.123,1.013 6.955,0.969 6.804,1.022C5.714,1.411 4.704,1.994 3.824,2.744C3.703,2.848 3.657,3.015 3.708,3.166C3.931,3.823 4.52,5.562 4.52,5.562C4.054,6.137 3.682,6.782 3.417,7.473C3.417,7.473 1.616,7.832 0.936,7.968C0.779,7.999 0.656,8.122 0.627,8.279C0.419,9.417 0.419,10.583 0.628,11.721C0.657,11.877 0.779,12.001 0.936,12.032C1.616,12.168 3.417,12.527 3.417,12.527C3.682,13.218 4.054,13.863 4.52,14.438C4.52,14.438 3.931,16.177 3.708,16.834C3.656,16.985 3.702,17.153 3.823,17.257C4.704,18.006 5.714,18.589 6.804,18.977C6.955,19.03 7.122,18.986 7.227,18.866C7.686,18.345 8.897,16.965 8.897,16.965C9.628,17.08 10.372,17.08 11.103,16.965C11.103,16.965 12.314,18.345 12.772,18.866C12.877,18.987 13.045,19.031 13.196,18.978C14.286,18.589 15.296,18.006 16.176,17.256C16.297,17.152 16.343,16.985 16.292,16.834C16.069,16.177 15.48,14.438 15.48,14.438C15.946,13.863 16.318,13.218 16.583,12.527C16.583,12.527 18.384,12.168 19.064,12.032C19.221,12.001 19.344,11.878 19.373,11.721C19.581,10.583 19.581,9.417 19.372,8.279C19.343,8.123 19.221,7.999 19.064,7.968C18.384,7.832 16.583,7.473 16.583,7.473C16.318,6.782 15.946,6.137 15.48,5.562C15.48,5.562 16.069,3.823 16.292,3.166C16.344,3.015 16.298,2.847 16.177,2.743C15.296,1.994 14.286,1.411 13.196,1.023C13.045,0.97 12.878,1.014 12.773,1.134C12.314,1.655 11.103,3.035 11.103,3.035C10.372,2.92 9.628,2.92 8.897,3.035C8.897,3.035 7.686,1.655 7.228,1.134ZM8.25,6.969C9.923,6.003 12.065,6.577 13.031,8.25C13.997,9.923 13.423,12.065 11.75,13.031C10.077,13.997 7.935,13.423 6.969,11.75C6.003,10.077 6.577,7.935 8.25,6.969Z" style="fill:rgb(151,159,173);"/>
        </g>
        <g id="working">
        </g>
    </g>
</svg>
