<?xml version="1.0" encoding="UTF-8" standalone="no"?>
<!DOCTYPE svg PUBLIC "-//W3C//DTD SVG 1.1//EN" "http://www.w3.org/Graphics/SVG/1.1/DTD/svg11.dtd">
<svg width="100%" height="100%" viewBox="0 0 16 16" version="1.1" xmlns="http://www.w3.org/2000/svg" xmlns:xlink="http://www.w3.org/1999/xlink" xml:space="preserve" xmlns:serif="http://www.serif.com/" style="fill-rule:evenodd;clip-rule:evenodd;stroke-linejoin:round;stroke-miterlimit:2;">
    <g id="dark">
        <g id="green">
            <path d="M8,9.75c0,-0.414 0.336,-0.75 0.75,-0.75l4.5,0c0.414,0 0.75,0.336 0.75,0.75l0,4.5c-0,0.414 -0.336,0.75 -0.75,0.75l-4.5,0c-0.414,-0 -0.75,-0.336 -0.75,-0.75l0,-4.5Z" style="fill:rgb(41,121,255);"/>
        </g>
        <g id="red">
        </g>
        <g id="gray">
            <path d="M7,10l-4,0l0,4l4,0l0,1c0,-0 -2.854,-0 -4.25,-0c-0.414,-0 -0.75,-0.336 -0.75,-0.75c-0,-1.153 -0,-3.347 -0,-4.5c0,-0.414 0.336,-0.75 0.75,-0.75c1.396,0 4.25,0 4.25,0l0,1Z" style="fill:rgb(114,114,114);"/>
        </g>
        <g id="yellow">
        </g>
        <g id="icon">
            <path d="M2.51,4l8.49,0l0,2.5l3,-3l-3,-3l0,2.5l-8.5,-0c-0.276,-0 -0.5,0.224 -0.5,0.5c0,0.276 0.224,0.5 0.5,0.5c0.003,0 0.007,0 0.01,-0Z" style="fill:rgb(151,159,173);"/>
        </g>
    </g>
    <g id="menu">
    </g>
</svg>
