<?xml version="1.0" encoding="UTF-8" standalone="no"?>
<!DOCTYPE svg PUBLIC "-//W3C//DTD SVG 1.1//EN" "http://www.w3.org/Graphics/SVG/1.1/DTD/svg11.dtd">
<svg width="100%" height="100%" viewBox="0 0 20 20" version="1.1" xmlns="http://www.w3.org/2000/svg" xmlns:xlink="http://www.w3.org/1999/xlink" xml:space="preserve" xmlns:serif="http://www.serif.com/" style="fill-rule:evenodd;clip-rule:evenodd;stroke-linejoin:round;stroke-miterlimit:2;">
    <g id="dark">
        <g id="blue">
        </g>
        <g id="yellow">
        </g>
        <g id="red">
        </g>
        <g id="text">
            <path d="M19.253,20C19.665,20 20,19.665 20,19.253C20,16.1 20,3.9 20,0.747C20,0.335 19.665,0 19.253,0C16.1,0 3.9,0 0.747,0C0.335,0 0,0.335 0,0.747C0,3.9 0,16.1 -0,19.253C0,19.665 0.335,20 0.747,20L19.253,20ZM5.131,12.5L4.577,13.977C4.459,14.291 4.158,14.5 3.822,14.5C3.514,14.5 3.132,14.5 2.821,14.5C2.689,14.5 2.565,14.436 2.489,14.327C2.414,14.219 2.395,14.081 2.44,13.956C3.031,12.322 4.786,7.473 5.334,5.958C5.434,5.683 5.695,5.5 5.987,5.5C6.298,5.5 6.702,5.5 7.013,5.5C7.305,5.5 7.566,5.683 7.666,5.958C8.214,7.473 9.969,12.322 10.56,13.956C10.605,14.081 10.586,14.219 10.511,14.327C10.435,14.436 10.311,14.5 10.179,14.5C9.868,14.5 9.486,14.5 9.178,14.5C8.842,14.5 8.541,14.291 8.423,13.977L7.869,12.5L5.131,12.5ZM17.56,6.044C17.605,5.919 17.586,5.781 17.511,5.673C17.435,5.564 17.311,5.5 17.179,5.5C16.867,5.5 16.485,5.5 16.177,5.5C15.841,5.5 15.541,5.708 15.422,6.022C14.999,7.143 14.019,9.741 13.744,10.5C13.643,10.781 13.5,11.363 13.5,11.363C13.5,11.363 13.357,10.781 13.256,10.5C12.981,9.741 12.001,7.143 11.578,6.022C11.459,5.708 11.159,5.5 10.823,5.5C10.515,5.5 10.133,5.5 9.821,5.5C9.689,5.5 9.565,5.564 9.489,5.673C9.414,5.781 9.395,5.919 9.44,6.044C10.031,7.678 11.786,12.527 12.334,14.042C12.434,14.317 12.695,14.5 12.987,14.5C13.298,14.5 13.702,14.5 14.013,14.5C14.305,14.5 14.566,14.317 14.666,14.042C15.214,12.527 16.969,7.678 17.56,6.044ZM7.494,11.5L5.506,11.5C5.506,11.5 6.09,9.969 6.256,9.5C6.35,9.233 6.5,8.685 6.5,8.685C6.5,8.685 6.65,9.233 6.744,9.5C6.91,9.969 7.494,11.5 7.494,11.5Z" style="fill:rgb(151,159,173);"/>
        </g>
        <g id="working">
        </g>
    </g>
</svg>
