<?xml version="1.0" encoding="UTF-8" standalone="no"?>
<!DOCTYPE svg PUBLIC "-//W3C//DTD SVG 1.1//EN" "http://www.w3.org/Graphics/SVG/1.1/DTD/svg11.dtd">
<svg width="100%" height="100%" viewBox="0 0 20 20" version="1.1" xmlns="http://www.w3.org/2000/svg" xmlns:xlink="http://www.w3.org/1999/xlink" xml:space="preserve" xmlns:serif="http://www.serif.com/" style="fill-rule:evenodd;clip-rule:evenodd;stroke-linejoin:round;stroke-miterlimit:2;">
    <g id="dark">
        <g id="blue">
            <path d="M18,1.749C18,1.551 17.921,1.36 17.78,1.22C17.64,1.079 17.449,1 17.251,1C15.725,1 12.275,1 10.749,1C10.551,1 10.36,1.079 10.22,1.22C10.079,1.36 10,1.551 10,1.749C10,3.444 10,7.556 10,9.251C10,9.449 10.079,9.64 10.22,9.78C10.36,9.921 10.551,10 10.749,10C12.275,10 15.725,10 17.251,10C17.449,10 17.64,9.921 17.78,9.78C17.921,9.64 18,9.449 18,9.251C18,7.556 18,3.444 18,1.749Z" style="fill:rgb(41,121,255);"/>
        </g>
        <g id="yellow">
        </g>
        <g id="red">
        </g>
        <g id="gray">
            <path d="M10,11L12,11L12,17L16,17L16,11L18,11C18,11 18,16.261 18,18.251C18,18.449 17.921,18.64 17.78,18.78C17.64,18.921 17.449,19 17.251,19L10.749,19C10.551,19 10.36,18.921 10.22,18.78C10.079,18.64 10,18.449 10,18.251C10,16.261 10,11 10,11Z" style="fill:rgb(114,114,114);"/>
        </g>
        <g id="text">
            <path d="M6.038,9L6.038,15C6.038,15.552 5.59,16 5.038,16C4.486,16 4.038,15.552 4.038,15L4.038,9L2.036,9C1.845,9 1.67,8.89 1.587,8.718C1.504,8.545 1.528,8.341 1.647,8.191C2.779,6.776 5,4 5,4C5,4 7.221,6.776 8.353,8.191C8.472,8.341 8.496,8.545 8.413,8.718C8.33,8.89 8.155,9 7.964,9L6.038,9Z" style="fill:rgb(151,159,173);"/>
        </g>
        <g id="working">
        </g>
    </g>
</svg>
