<?xml version="1.0" encoding="UTF-8" standalone="no"?>
<!DOCTYPE svg PUBLIC "-//W3C//DTD SVG 1.1//EN" "http://www.w3.org/Graphics/SVG/1.1/DTD/svg11.dtd">
<svg width="100%" height="100%" viewBox="0 0 16 16" version="1.1" xmlns="http://www.w3.org/2000/svg" xmlns:xlink="http://www.w3.org/1999/xlink" xml:space="preserve" xmlns:serif="http://www.serif.com/" style="fill-rule:evenodd;clip-rule:evenodd;stroke-linejoin:round;stroke-miterlimit:2;">
    <g id="gdark">
        <path d="M15,6L10,6C9.448,6 9,6.448 9,7C9,7.552 9.448,8 10,8L15,8C15.552,8 16,7.552 16,7C16,6.448 15.552,6 15,6Z" style="fill:rgb(151,159,173);"/>
        <path d="M15,10L1,10C0.448,10 -0,10.448 0,11C0,11.552 0.448,12 1,12L15,12C15.552,12 16,11.552 16,11C16,10.448 15.552,10 15,10Z" style="fill:rgb(151,159,173);"/>
        <path d="M15,14L1,14C0.448,14 -0,14.448 0,15C0,15.552 0.448,16 1,16L15,16C15.552,16 16,15.552 16,15C16,14.448 15.552,14 15,14Z" style="fill:rgb(151,159,173);"/>
        <path d="M2.586,4L0.293,6.293C-0.097,6.683 -0.097,7.317 0.293,7.707C0.683,8.097 1.317,8.097 1.707,7.707L4,5.414L6.293,7.707C6.683,8.097 7.317,8.097 7.707,7.707C8.097,7.317 8.097,6.683 7.707,6.293L5.414,4L7.707,1.707C8.097,1.317 8.097,0.683 7.707,0.293C7.317,-0.097 6.683,-0.097 6.293,0.293L4,2.586L1.707,0.293C1.317,-0.097 0.683,-0.097 0.293,0.293C-0.097,0.683 -0.097,1.317 0.293,1.707L2.586,4Z" style="fill:rgb(144,50,61);"/>
    </g>
    </svg>
