<?xml version="1.0" encoding="UTF-8" standalone="no"?>
<!DOCTYPE svg PUBLIC "-//W3C//DTD SVG 1.1//EN" "http://www.w3.org/Graphics/SVG/1.1/DTD/svg11.dtd">
<svg width="100%" height="100%" viewBox="0 0 16 16" version="1.1" xmlns="http://www.w3.org/2000/svg" xmlns:xlink="http://www.w3.org/1999/xlink" xml:space="preserve" xmlns:serif="http://www.serif.com/" style="fill-rule:evenodd;clip-rule:evenodd;stroke-linejoin:round;stroke-miterlimit:2;">
    <g id="green_dark">
    </g>
    <g id="red_dark">
    </g>
    <g id="gray_dark">
    </g>
    <g id="yellow_dark">
    </g>
    <g id="icon_dark">
        <path d="M11,0.5L15.5,5L5,15.5L0.5,11L11,0.5ZM3.811,9.104L3.104,9.811L4.146,10.854C4.342,11.049 4.658,11.049 4.854,10.854C5.049,10.658 5.049,10.342 4.854,10.146L3.811,9.104ZM5.811,7.104L5.104,7.811L6.146,8.854C6.342,9.049 6.658,9.049 6.854,8.854C7.049,8.658 7.049,8.342 6.854,8.146L5.811,7.104ZM7.811,5.104L7.104,5.811L8.146,6.854C8.342,7.049 8.658,7.049 8.854,6.854C9.049,6.658 9.049,6.342 8.854,6.146L7.811,5.104ZM9.811,3.104L9.104,3.811L10.146,4.854C10.342,5.049 10.658,5.049 10.854,4.854C11.049,4.658 11.049,4.342 10.854,4.146L9.811,3.104Z" style="fill:rgb(151,159,173);"/>
    </g>
</svg>
