<?xml version="1.0" encoding="UTF-8" standalone="no"?>
<!DOCTYPE svg PUBLIC "-//W3C//DTD SVG 1.1//EN" "http://www.w3.org/Graphics/SVG/1.1/DTD/svg11.dtd">
<svg width="100%" height="100%" viewBox="0 0 16 16" version="1.1" xmlns="http://www.w3.org/2000/svg" xmlns:xlink="http://www.w3.org/1999/xlink" xml:space="preserve" xmlns:serif="http://www.serif.com/" style="fill-rule:evenodd;clip-rule:evenodd;stroke-linejoin:round;stroke-miterlimit:2;">
    <g id="dark">
        <g id="green">
            <path d="M11,10l2.057,-0c1.371,-0 2.567,0.933 2.899,2.264l0.028,0.114c0.01,0.036 0.016,0.079 0.016,0.122c0,0.276 -0.224,0.5 -0.5,0.5c0,-0 -0.405,-0.058 -0.514,-0.494l0,0c-0.221,-0.885 -1.017,-1.506 -1.929,-1.506l-2.057,-0l0,2.5l-3,-3l3,-3l-0,2.5Z" style="fill:rgb(41,121,255);"/>
        </g>
        <g id="red">
        </g>
        <g id="gray">
        </g>
        <g id="yellow">
            <path d="M14,12.692c-0.129,-0.41 -0.509,-0.692 -0.943,-0.692l-1.057,-0l0,1.5c0,0.404 -0.244,0.769 -0.617,0.924c-0.374,0.155 -0.804,0.069 -1.09,-0.217l-3,-3c-0.391,-0.391 -0.391,-1.024 -0,-1.414l1.793,-1.793c-0,0 -3.707,0 -5.335,0c-0.415,-0 -0.751,-0.336 -0.751,-0.751c0,-0.944 0,-2.554 0,-3.498c0,-0.199 0.079,-0.39 0.22,-0.531c0.141,-0.141 0.332,-0.22 0.531,-0.22c0.568,0 1.249,-0 1.249,-0l0,-1l-2.249,-0c-0.199,-0 -0.39,0.079 -0.531,0.22c-0.141,0.141 -0.22,0.332 -0.22,0.531c0,2.295 0,9.203 0,11.498c-0,0.415 0.336,0.751 0.751,0.751c2.155,0 8.343,0 10.498,0c0.199,-0 0.39,-0.079 0.531,-0.22c0.141,-0.141 0.22,-0.332 0.22,-0.531c0,-0.674 0,-1.557 0,-1.557Zm0,-3.579l-0,-6.362c-0,-0.415 -0.336,-0.751 -0.751,-0.751c-0.888,0 -2.249,0 -2.249,0l0,1c0,0 0.681,0 1.249,0c0.199,-0 0.39,0.079 0.531,0.22c0.141,0.141 0.22,0.332 0.22,0.531c0,0.944 -0,2.554 -0,3.498c-0,0.199 -0.079,0.39 -0.22,0.531c-0.141,0.141 -0.332,0.22 -0.531,0.22c-0.143,0 -0.249,0 -0.249,0l-0,1l1.057,-0c0.323,-0 0.639,0.039 0.943,0.113Z" style="fill:rgb(229,115,26);"/>
        </g>
        <g id="icon">
            <path d="M6,1.987c0.007,-1.098 0.9,-1.987 2,-1.987c1.104,0 2,0.896 2,2l0,2l2,0l0,3l-8,0l0,-3l2,0l0,-2.013Zm2,-0.987c0.552,0 1,0.448 1,1c0,0.552 -0.448,1 -1,1c-0.552,0 -1,-0.448 -1,-1c0,-0.552 0.448,-1 1,-1Z" style="fill:rgb(151,159,173);"/>
        </g>
    </g>
    <g id="menu">
    </g>
</svg>
