<?xml version="1.0" encoding="UTF-8" standalone="no"?>
<!DOCTYPE svg PUBLIC "-//W3C//DTD SVG 1.1//EN" "http://www.w3.org/Graphics/SVG/1.1/DTD/svg11.dtd">
<svg width="100%" height="100%" viewBox="0 0 20 20" version="1.1" xmlns="http://www.w3.org/2000/svg" xmlns:xlink="http://www.w3.org/1999/xlink" xml:space="preserve" xmlns:serif="http://www.serif.com/" style="fill-rule:evenodd;clip-rule:evenodd;stroke-linejoin:round;stroke-miterlimit:2;">
    <g id="dark">
        <g id="blue">
            <path d="M19.105,2.23C19.293,2.008 19.336,1.697 19.213,1.433C19.091,1.169 18.827,1 18.536,1C15.597,1 9.403,1 6.464,1C6.173,1 5.909,1.169 5.787,1.433C5.664,1.697 5.707,2.008 5.895,2.23C7.524,4.146 10.615,7.783 11.908,9.304C12.056,9.477 12.272,9.578 12.5,9.578C12.728,9.578 12.944,9.477 13.092,9.304C14.385,7.783 17.476,4.146 19.105,2.23Z" style="fill:rgb(41,121,255);"/>
        </g>
        <g id="yellow">
        </g>
        <g id="red">
        </g>
        <g id="text">
            <path d="M4.963,8.925L4.963,14.925C4.963,15.477 4.515,15.925 3.963,15.925C3.411,15.925 2.963,15.477 2.963,14.925L2.963,8.925L0.961,8.925C0.77,8.925 0.595,8.815 0.512,8.643C0.429,8.47 0.453,8.266 0.572,8.116C1.704,6.701 3.925,3.925 3.925,3.925C3.925,3.925 6.146,6.701 7.278,8.116C7.397,8.266 7.421,8.47 7.338,8.643C7.255,8.815 7.08,8.925 6.889,8.925L4.963,8.925Z" style="fill:rgb(151,159,173);"/>
            <path d="M19.105,17.77C19.293,17.992 19.336,18.303 19.213,18.567C19.091,18.831 18.827,19 18.536,19C15.597,19 9.403,19 6.464,19C6.173,19 5.909,18.831 5.787,18.567C5.664,18.303 5.707,17.992 5.895,17.77C7.524,15.854 10.615,12.217 11.908,10.696C12.056,10.523 12.272,10.422 12.5,10.422C12.728,10.422 12.944,10.523 13.092,10.696C14.385,12.217 17.476,15.854 19.105,17.77ZM9.175,17L15.825,17L12.5,13.088L9.175,17Z" style="fill:rgb(151,159,173);"/>
        </g>
        <g id="working">
        </g>
    </g>
</svg>
