<?xml version="1.0" encoding="UTF-8" standalone="no"?>
<svg
   width="100%"
   height="100%"
   viewBox="0 0 16 16"
   version="1.1"
   xml:space="preserve"
   style="fill-rule:evenodd;clip-rule:evenodd;stroke-linejoin:round;stroke-miterlimit:2;"
   id="svg25"
   xmlns="http://www.w3.org/2000/svg"
   xmlns:svg="http://www.w3.org/2000/svg"
   xmlns:serif="http://www.serif.com/"><defs
   id="defs29" />
    <g
   id="gdark">
        <g
   id="rotate_ccw_shadow">
        </g>
        <g
   id="rotate_cw_shadow">
        </g>
        <g
   id="move_shadow">
        </g>
        <g
   id="move_shadow1"
   serif:id="move_shadow">
        </g>
        <g
   id="move_shadow2"
   serif:id="move_shadow">
        </g>
        <g
   id="move_shadow3"
   serif:id="move_shadow">
        </g>
        <g
   id="folder_shadow">
        </g>
        <g
   id="export_shadow">
        </g>
        <g
   id="copy_shadow">
        </g>
        <g
   id="copy_shadow1"
   serif:id="copy_shadow">
        </g>
        <g
   id="clip_shadow">
        </g>
        <g
   id="clip_shadow1"
   serif:id="clip_shadow">
        </g>
        <g
   id="cut_shadow">
        </g>
        <path
   d="M 8,5 C 7.9997337,4.7340001 7.894,4.479 7.707,4.291 7.519,4.104 7.2639999,3.9977335 6.998,3.998 L 5.002,4 C 4.7360001,4.0002665 4.481,4.106 4.293,4.293 4.106,4.481 3.9997337,4.7360001 4,5.002 L 4.002,7 c 2.663e-4,0.2659999 0.106,0.521 0.293,0.709 0.188,0.187 0.4430001,0.2932665 0.709,0.293 L 7,8 C 7.2659999,7.9997335 7.521,7.894 7.709,7.707 7.896,7.519 8.0022663,7.2639999 8.002,6.998 Z"
   style="fill:#2979ff"
   id="path15" />
        <path
   d="M 13,10 C 12.999734,9.7340001 12.894,9.479 12.707,9.291 12.519,9.104 12.264,8.9977335 11.998,8.998 L 10.002,9 C 9.7360001,9.0002665 9.481,9.106 9.293,9.293 9.106,9.481 8.9997337,9.7360001 9,10.002 L 9.002,12 c 2.663e-4,0.266 0.106,0.521 0.293,0.709 0.188,0.187 0.4430001,0.293267 0.709,0.293 L 12,13 c 0.266,-2.67e-4 0.521,-0.106 0.709,-0.293 0.187,-0.188 0.293266,-0.443 0.293,-0.709 z"
   style="fill:#2979ff"
   id="path17" />
        <path
   d="M 13,5 C 12.999734,4.7340001 12.894,4.479 12.707,4.291 12.519,4.104 12.264,3.9977335 11.998,3.998 L 10.002,4 C 9.7360001,4.0002665 9.481,4.106 9.293,4.293 9.106,4.481 8.9997337,4.7360001 9,5.002 L 9.002,7 c 2.663e-4,0.2659999 0.106,0.521 0.293,0.709 0.188,0.187 0.4430001,0.2932665 0.709,0.293 L 12,8 c 0.266,-2.665e-4 0.521,-0.106 0.709,-0.293 0.187,-0.188 0.293266,-0.4430001 0.293,-0.709 z"
   style="fill:#979fad"
   id="path19" />
        <path
   d="M 8,10 C 7.9997337,9.7340001 7.894,9.479 7.707,9.291 7.519,9.104 7.2639999,8.9977335 6.998,8.998 L 5.002,9 C 4.7360001,9.0002665 4.481,9.106 4.293,9.293 4.106,9.481 3.9997337,9.7360001 4,10.002 L 4.002,12 c 2.663e-4,0.266 0.106,0.521 0.293,0.709 0.188,0.187 0.4430001,0.293267 0.709,0.293 L 7,13 c 0.2659999,-2.67e-4 0.521,-0.106 0.709,-0.293 0.187,-0.188 0.2932663,-0.443 0.293,-0.709 z"
   style="fill:#979fad"
   id="path21" />
    </g>
    <g
   id="menu">
    </g>
</svg>
