<?xml version="1.0" encoding="UTF-8" standalone="no"?>
<!DOCTYPE svg PUBLIC "-//W3C//DTD SVG 1.1//EN" "http://www.w3.org/Graphics/SVG/1.1/DTD/svg11.dtd">
<svg width="100%" height="100%" viewBox="0 0 20 20" version="1.1" xmlns="http://www.w3.org/2000/svg" xmlns:xlink="http://www.w3.org/1999/xlink" xml:space="preserve" xmlns:serif="http://www.serif.com/" style="fill-rule:evenodd;clip-rule:evenodd;stroke-linejoin:round;stroke-miterlimit:2;">
    <g id="dark">
        <g id="blue">
            <path d="M1,18.251C1,18.664 1.336,19 1.749,19L18.251,19C18.664,19 19,18.664 19,18.251C19,15.152 19,3.5 19,3.5L16.5,1L15,1L15,7.251C15,7.449 14.921,7.64 14.78,7.78C14.64,7.921 14.449,8 14.251,8C12.556,8 8.444,8 6.749,8C6.551,8 6.36,7.921 6.22,7.78C6.079,7.64 6,7.449 6,7.251C6,5.445 6,1 6,1C6,1 3.145,1 1.749,1C1.336,1 1,1.336 1,1.749C1,4.677 1,15.323 1,18.251ZM5,13.5C5.828,13.5 6.5,14.172 6.5,15C6.5,15.828 5.828,16.5 5,16.5C4.172,16.5 3.5,15.828 3.5,15C3.5,14.172 4.172,13.5 5,13.5ZM10,13.5C10.828,13.5 11.5,14.172 11.5,15C11.5,15.828 10.828,16.5 10,16.5C9.172,16.5 8.5,15.828 8.5,15C8.5,14.172 9.172,13.5 10,13.5ZM15,13.5C15.828,13.5 16.5,14.172 16.5,15C16.5,15.828 15.828,16.5 15,16.5C14.172,16.5 13.5,15.828 13.5,15C13.5,14.172 14.172,13.5 15,13.5Z" style="fill:rgb(41,121,255);"/>
        </g>
        <g id="yellow">
        </g>
        <g id="red">
        </g>
        <g id="gray">
        </g>
        <g id="text">
            <path d="M14,1L14,7C14,7 7,7 7,7L7,1L14,1ZM13,2L11,2L11,5L13,5L13,2Z" style="fill:rgb(151,159,173);"/>
        </g>
        <g id="working">
        </g>
    </g>
</svg>
