<?xml version="1.0" encoding="UTF-8" standalone="no"?>
<!DOCTYPE svg PUBLIC "-//W3C//DTD SVG 1.1//EN" "http://www.w3.org/Graphics/SVG/1.1/DTD/svg11.dtd">
<svg width="100%" height="100%" viewBox="0 0 20 20" version="1.1" xmlns="http://www.w3.org/2000/svg" xmlns:xlink="http://www.w3.org/1999/xlink" xml:space="preserve" xmlns:serif="http://www.serif.com/" style="fill-rule:evenodd;clip-rule:evenodd;stroke-linejoin:round;stroke-miterlimit:2;">
    <g id="dark">
        <g id="blue">
            <path d="M12,11L13.482,11C15.977,11 18,13.023 18,15.518L18,16.5L17.991,16.631C17.967,16.838 17.889,16.996 17.788,17.116C17.614,17.337 17.35,17.484 17.051,17.499L17,17.5L16.957,17.495C16.766,17.468 16,17.309 16,16.488L16,15.518C16,14.127 14.873,13 13.483,13L12,13L12,14.926C12,15.117 11.89,15.292 11.718,15.375C11.545,15.458 11.341,15.434 11.191,15.315C9.776,14.183 7,11.962 7,11.962C7,11.962 9.776,9.741 11.191,8.609C11.341,8.49 11.545,8.466 11.718,8.549C11.89,8.632 12,8.807 12,8.998L12,11Z" style="fill:rgb(41,121,255);"/>
        </g>
        <g id="yellow">
            <path d="M18,18.232C18,18.232 18,18.238 18,18.25C18,18.449 17.921,18.64 17.78,18.78C17.64,18.921 17.449,19 17.25,19C14.563,19 5.437,19 2.75,19C2.336,19 2,18.664 2,18.25C2,15.563 2,6.437 2,3.75C2,3.551 2.079,3.36 2.22,3.22C2.36,3.079 2.551,3 2.75,3C3.908,3 6,3 6,3L6,5C6,5 5.316,5 4.748,5C4.335,5 4,5.335 4,5.748C4,6.693 4,8.307 4,9.252C4,9.45 4.079,9.641 4.219,9.781C4.359,9.921 4.55,10 4.748,10C5.868,10 7.852,10 7.852,10L6.375,11.181C6.138,11.371 6,11.658 6,11.962C6,12.266 6.138,12.553 6.375,12.743C6.375,12.743 9.151,14.964 10.566,16.096C11.016,16.455 11.632,16.526 12.151,16.276C12.67,16.027 13,15.502 13,14.926C13,14.926 13,14 13,14C13,14 13.482,14 13.482,14C14.321,14 15,14.679 15,15.518L15,16.488C15,18.085 16.446,18.433 16.818,18.485C16.914,18.499 17.009,18.502 17.102,18.497C17.428,18.481 17.733,18.386 18,18.232ZM13.482,10C13.482,10 14.51,10 15.252,10C15.665,10 16,9.665 16,9.252C16,8.307 16,6.693 16,5.748C16,5.335 15.665,5 15.252,5C14.688,5 14.013,5 14.013,5L14.013,3L17.25,3C17.664,3 18,3.336 18,3.75C18,5.97 18,12.349 18,12.349C17.002,10.928 15.35,10 13.482,10Z" style="fill:rgb(229,115,26);"/>
        </g>
        <g id="red">
        </g>
        <g id="text">
            <path d="M9.102,9L5,9L5,6L7,6L7,3.5C7,1.844 8.344,0.5 10,0.5C11.656,0.5 13,1.844 13,3.5L13,6L15,6L15,9L13,9L13,8.998C13,8.422 12.67,7.897 12.151,7.648C11.632,7.398 11.016,7.469 10.566,7.828L9.102,9ZM10,2.5C10.552,2.5 11,2.948 11,3.5C11,4.052 10.552,4.5 10,4.5C9.448,4.5 9,4.052 9,3.5C9,2.948 9.448,2.5 10,2.5Z" style="fill:rgb(151,159,173);"/>
        </g>
        <g id="working">
        </g>
    </g>
</svg>
