<?xml version="1.0" encoding="UTF-8" standalone="no"?>
<!DOCTYPE svg PUBLIC "-//W3C//DTD SVG 1.1//EN" "http://www.w3.org/Graphics/SVG/1.1/DTD/svg11.dtd">
<svg width="100%" height="100%" viewBox="0 0 16 16" version="1.1" xmlns="http://www.w3.org/2000/svg" xmlns:xlink="http://www.w3.org/1999/xlink" xml:space="preserve" xmlns:serif="http://www.serif.com/" style="fill-rule:evenodd;clip-rule:evenodd;stroke-linejoin:round;stroke-miterlimit:2;">
    <g id="gdark">
        <path d="M8.002,8C7.448,8 7,8.448 7,9.002L7,14.998C7,15.552 7.448,16 8.002,16C9.734,16 13.269,16 15,16C15.265,16 15.519,15.895 15.707,15.707C15.895,15.519 16,15.265 16,15C16,13.463 16,10.537 16,9C16,8.735 15.895,8.481 15.707,8.293C15.519,8.105 15.265,8 15,8C13.269,8 9.734,8 8.002,8Z" style="fill:rgb(188,192,200);"/>
        <path d="M8.002,8C7.448,8 7,8.448 7,9.002L7,14.998C7,15.552 7.448,16 8.002,16C9.734,16 13.269,16 15,16C15.265,16 15.519,15.895 15.707,15.707C15.895,15.519 16,15.265 16,15C16,13.463 16,10.537 16,9C16,8.735 15.895,8.481 15.707,8.293C15.519,8.105 15.265,8 15,8C13.269,8 9.734,8 8.002,8ZM8.002,8.5L15,8.5C15.132,8.5 15.26,8.553 15.353,8.647C15.447,8.74 15.5,8.868 15.5,9L15.5,15C15.5,15.132 15.447,15.26 15.353,15.353C15.26,15.447 15.132,15.5 15,15.5L8.002,15.5C7.725,15.5 7.5,15.275 7.5,14.998L7.5,9.002C7.5,8.725 7.725,8.5 8.002,8.5Z" style="fill:rgb(181,185,192);"/>
        <g id="move_shadow">
            <clipPath id="_clip1">
                <path d="M8.007,8C7.451,8 7,8.451 7,9.007C7,10.544 7,13.456 7,14.993C7,15.549 7.451,16 8.007,16C9.742,16 13.271,16 15,16C15.265,16 15.519,15.895 15.707,15.707C15.895,15.519 16,15.265 16,15C16,13.463 16,10.537 16,9C16,8.735 15.895,8.481 15.707,8.293C15.519,8.105 15.265,8 15,8C13.271,8 9.742,8 8.007,8Z"/>
            </clipPath>
            <g clip-path="url(#_clip1)">
                <g opacity="0.5">
                    <g style="filter:url(#_Effect2);">
                        <path d="M9,9C9,8.735 8.895,8.481 8.707,8.293C8.519,8.105 8.265,8 8,8C6.268,8 2.732,8 1,8C0.735,8 0.481,8.105 0.293,8.293C0.105,8.481 -0,8.735 0,9C0,10.537 0,13.463 0,15C-0,15.265 0.105,15.519 0.293,15.707C0.481,15.895 0.735,16 1,16C2.732,16 6.268,16 8,16C8.265,16 8.519,15.895 8.707,15.707C8.895,15.519 9,15.265 9,15C9,13.463 9,10.537 9,9Z"/>
                    </g>
                </g>
            </g>
        </g>
        <path d="M9,9C9,8.735 8.895,8.481 8.707,8.293C8.519,8.105 8.265,8 8,8C6.268,8 2.732,8 1,8C0.735,8 0.481,8.105 0.293,8.293C0.105,8.481 -0,8.735 0,9C-0,10.537 -0,13.463 -0,15C-0,15.265 0.105,15.519 0.293,15.707C0.481,15.895 0.735,16 1,16C2.732,16 6.268,16 8,16C8.265,16 8.519,15.895 8.707,15.707C8.895,15.519 9,15.265 9,15C9,13.463 9,10.537 9,9Z" style="fill:rgb(41,121,255);"/>
        <path d="M3,4L3,6L0,3L3,0L3,2L8,2L8,4L3,4Z" style="fill:rgb(151,159,173);"/>
        <path d="M9,15C9,15.265 8.895,15.519 8.707,15.707C8.519,15.895 8.265,16 8,16L7,16L7,15.5L8.006,15.5C8.279,15.5 8.5,15.279 8.5,15.006L8.5,8.994C8.5,8.721 8.279,8.5 8.006,8.5L7,8.5L7,8L8,8C8.265,8 8.519,8.105 8.707,8.293C8.895,8.481 9,8.735 9,9L9,15Z" style="fill:url(#_Linear3);"/>
        </g>
    <defs>
        <filter id="_Effect2" filterUnits="userSpaceOnUse" x="-12" y="-4" width="33" height="32">
            <feGaussianBlur in="SourceGraphic" stdDeviation="2"/>
        </filter>
        <linearGradient id="_Linear3" x1="0" y1="0" x2="1" y2="0" gradientUnits="userSpaceOnUse" gradientTransform="matrix(4.28626e-16,7,-7,4.28626e-16,8.5,8.5)"><stop offset="0" style="stop-color:white;stop-opacity:0"/><stop offset="0.25" style="stop-color:white;stop-opacity:0.23"/><stop offset="0.75" style="stop-color:white;stop-opacity:0.23"/><stop offset="1" style="stop-color:white;stop-opacity:0"/></linearGradient>
    </defs>
</svg>
