<?xml version="1.0" encoding="UTF-8" standalone="no"?>
<!DOCTYPE svg PUBLIC "-//W3C//DTD SVG 1.1//EN" "http://www.w3.org/Graphics/SVG/1.1/DTD/svg11.dtd">
<svg width="100%" height="100%" viewBox="0 0 16 16" version="1.1" xmlns="http://www.w3.org/2000/svg" xmlns:xlink="http://www.w3.org/1999/xlink" xml:space="preserve" xmlns:serif="http://www.serif.com/" style="fill-rule:evenodd;clip-rule:evenodd;stroke-linejoin:round;stroke-miterlimit:2;">
    <g id="dark">
        <g id="green">
            <path d="M6,5l-0,-4l-4.457,4.5l4.457,4.5l-0,-4l3.501,0c0.928,-0 1.818,0.369 2.474,1.025c0.656,0.656 1.025,1.546 1.025,2.474c-0,0.001 -0,0.001 -0,0.002c0,1.932 -1.567,3.499 -3.499,3.499l-0.501,-0c-0.276,-0 -0.5,0.224 -0.5,0.5c-0,0.275 0.222,0.498 0.497,0.5l0.003,-0l0.617,-0.001c2.431,-0.062 4.383,-2.052 4.383,-4.498c-0,-0.001 -0,-0.001 -0,-0.002c0,-1.193 -0.474,-2.337 -1.318,-3.181c-0.844,-0.844 -1.988,-1.318 -3.181,-1.318l-3.501,0Z" style="fill:rgb(41,121,255);"/>
        </g>
        <g id="red">
        </g>
        <g id="gray">
        </g>
        <g id="yellow">
        </g>
        <g id="icon">
        </g>
    </g>
    <g id="menu">
    </g>
</svg>
