<?xml version="1.0" encoding="UTF-8" standalone="no"?>
<!DOCTYPE svg PUBLIC "-//W3C//DTD SVG 1.1//EN" "http://www.w3.org/Graphics/SVG/1.1/DTD/svg11.dtd">
<svg width="100%" height="100%" viewBox="0 0 16 16" version="1.1" xmlns="http://www.w3.org/2000/svg" xmlns:xlink="http://www.w3.org/1999/xlink" xml:space="preserve" xmlns:serif="http://www.serif.com/" style="fill-rule:evenodd;clip-rule:evenodd;stroke-linejoin:round;stroke-miterlimit:2;">
    <g id="dark">
        <g id="green">
        </g>
        <g id="red">
        </g>
        <g id="gray">
        </g>
        <g id="yellow">
        </g>
        <g id="icon">
            <path d="M9.833,1.807c-0.013,-0.346 -0.263,-0.638 -0.603,-0.703c-0.814,-0.14 -1.646,-0.14 -2.459,0.005c-0.338,0.064 -0.587,0.354 -0.6,0.698c-0.025,0.547 -0.052,1.292 -0.052,1.292c-0.515,0.197 -0.995,0.474 -1.423,0.821c0,-0 -0.659,-0.348 -1.143,-0.604c-0.306,-0.162 -0.684,-0.091 -0.911,0.171c-0.528,0.635 -0.944,1.355 -1.224,2.131c-0.114,0.326 0.013,0.686 0.305,0.869c0.461,0.295 1.092,0.692 1.092,0.692c-0.087,0.544 -0.087,1.098 -0,1.642c-0,0 -0.631,0.397 -1.095,0.688c-0.293,0.184 -0.421,0.547 -0.307,0.874c0.285,0.775 0.701,1.495 1.233,2.127c0.225,0.26 0.601,0.331 0.905,0.17c0.486,-0.252 1.145,-0.6 1.145,-0.6c0.428,0.347 0.908,0.624 1.423,0.821c-0,0 0.027,0.745 0.048,1.292c0.013,0.346 0.263,0.638 0.603,0.703c0.814,0.14 1.646,0.14 2.459,-0.005c0.338,-0.064 0.587,-0.354 0.6,-0.698c0.025,-0.547 0.052,-1.292 0.052,-1.292c0.515,-0.197 0.995,-0.474 1.423,-0.821c-0,0 0.659,0.348 1.143,0.604c0.306,0.162 0.684,0.091 0.911,-0.171c0.528,-0.635 0.944,-1.355 1.224,-2.131c0.114,-0.326 -0.013,-0.686 -0.305,-0.869c-0.461,-0.295 -1.092,-0.692 -1.092,-0.692c0.087,-0.544 0.087,-1.098 0,-1.642c0,-0 0.631,-0.397 1.095,-0.688c0.293,-0.184 0.421,-0.547 0.307,-0.874c-0.285,-0.775 -0.701,-1.495 -1.233,-2.127c-0.225,-0.26 -0.601,-0.331 -0.905,-0.17c-0.486,0.252 -1.145,0.6 -1.145,0.6c-0.428,-0.347 -0.908,-0.624 -1.423,-0.821c0,-0 -0.027,-0.745 -0.048,-1.292Zm-1.833,4.193c1.104,0 2,0.896 2,2c-0,1.104 -0.896,2 -2,2c-1.104,0 -2,-0.896 -2,-2c-0,-1.104 0.896,-2 2,-2Z" style="fill:rgb(151,159,173);"/>
        </g>
    </g>
    <g id="menu">
    </g>
</svg>
