<?xml version="1.0" encoding="UTF-8" standalone="no"?>
<!DOCTYPE svg PUBLIC "-//W3C//DTD SVG 1.1//EN" "http://www.w3.org/Graphics/SVG/1.1/DTD/svg11.dtd">
<svg width="100%" height="100%" viewBox="0 0 16 16" version="1.1" xmlns="http://www.w3.org/2000/svg" xmlns:xlink="http://www.w3.org/1999/xlink" xml:space="preserve" xmlns:serif="http://www.serif.com/" style="fill-rule:evenodd;clip-rule:evenodd;stroke-linejoin:round;stroke-miterlimit:2;">
    <g id="gdark">
        <path d="M13.657,2.343C12.664,1.35 11.427,0.636 10.071,0.273L8.939,2.074C8.317,1.975 7.683,1.975 7.061,2.074L5.929,0.273C4.573,0.636 3.336,1.35 2.343,2.343L3.337,4.224C2.941,4.713 2.624,5.262 2.399,5.85L0.273,5.929C-0.091,7.286 -0.091,8.714 0.273,10.071L2.399,10.15C2.624,10.738 2.941,11.287 3.337,11.776L2.343,13.657C3.336,14.65 4.573,15.364 5.929,15.727L7.061,13.926C7.683,14.025 8.317,14.025 8.939,13.926L10.071,15.727C11.427,15.364 12.664,14.65 13.657,13.657L12.663,11.776C13.059,11.287 13.376,10.738 13.601,10.15L15.727,10.071C16.091,8.714 16.091,7.286 15.727,5.929L13.601,5.85C13.376,5.262 13.059,4.713 12.663,4.224L13.657,2.343ZM8,6C9.104,6 10,6.896 10,8C10,9.104 9.104,10 8,10C6.896,10 6,9.104 6,8C6,6.896 6.896,6 8,6Z" style="fill:rgb(151,159,173);"/>
        <path d="M13.657,2.343C12.664,1.35 11.427,0.636 10.071,0.273L8.939,2.074C8.317,1.975 7.683,1.975 7.061,2.074L5.929,0.273C4.573,0.636 3.336,1.35 2.343,2.343L3.337,4.224C2.941,4.713 2.624,5.262 2.399,5.85L0.273,5.929C-0.091,7.286 -0.091,8.714 0.273,10.071L2.399,10.15C2.624,10.738 2.941,11.287 3.337,11.776L2.343,13.657C3.336,14.65 4.573,15.364 5.929,15.727L7.061,13.926C7.683,14.025 8.317,14.025 8.939,13.926L10.071,15.727C11.427,15.364 12.664,14.65 13.657,13.657L12.663,11.776C13.059,11.287 13.376,10.738 13.601,10.15L15.727,10.071C16.091,8.714 16.091,7.286 15.727,5.929L13.601,5.85C13.376,5.262 13.059,4.713 12.663,4.224L13.657,2.343ZM8,6C9.104,6 10,6.896 10,8C10,9.104 9.104,10 8,10C6.896,10 6,9.104 6,8C6,6.896 6.896,6 8,6Z" style="fill:url(#_Linear2);"/>
        <circle cx="8" cy="8" r="2" style="fill:rgb(41,121,255);"/>
        <circle cx="8" cy="8" r="2" style="fill:url(#_Linear3);"/>
        <path d="M9.5,5.402C10.934,6.23 11.426,8.066 10.598,9.5C9.77,10.934 7.934,11.426 6.5,10.598C5.066,9.77 4.574,7.934 5.402,6.5C6.23,5.066 8.066,4.574 9.5,5.402ZM8,6C9.104,6 10,6.896 10,8C10,9.104 9.104,10 8,10C6.896,10 6,9.104 6,8C6,6.896 6.896,6 8,6Z" style="fill:white;"/>
    </g>
    <defs>
        <filter id="_Effect1" filterUnits="userSpaceOnUse" x="21.6412" y="22.5346" width="20.3241" height="20.3241">
            <feGaussianBlur in="SourceGraphic" stdDeviation="0.5"/>
        </filter>
        <linearGradient id="_Linear2" x1="0" y1="0" x2="1" y2="0" gradientUnits="userSpaceOnUse" gradientTransform="matrix(1.5,16,-15.4548,1.44889,6,0)"><stop offset="0" style="stop-color:white;stop-opacity:0.3"/><stop offset="1" style="stop-color:black;stop-opacity:0.2"/></linearGradient>
        <linearGradient id="_Linear3" x1="0" y1="0" x2="1" y2="0" gradientUnits="userSpaceOnUse" gradientTransform="matrix(-0.681889,-4.11357,4.11357,-0.681889,8.05678,10.1921)"><stop offset="0" style="stop-color:black;stop-opacity:0.1"/><stop offset="1" style="stop-color:white;stop-opacity:0.2"/></linearGradient>
    </defs>
</svg>
