<?xml version="1.0" encoding="UTF-8" standalone="no"?>
<!DOCTYPE svg PUBLIC "-//W3C//DTD SVG 1.1//EN" "http://www.w3.org/Graphics/SVG/1.1/DTD/svg11.dtd">
<svg width="100%" height="100%" viewBox="0 0 16 16" version="1.1" xmlns="http://www.w3.org/2000/svg" xmlns:xlink="http://www.w3.org/1999/xlink" xml:space="preserve" xmlns:serif="http://www.serif.com/" style="fill-rule:evenodd;clip-rule:evenodd;stroke-linejoin:round;stroke-miterlimit:2;">
    <g id="dark">
        <g id="green">
        </g>
        <g id="red">
            <path d="M5,3.293l-2.146,-2.147c-0.196,-0.195 -0.512,-0.195 -0.708,0c-0.195,0.196 -0.195,0.512 0,0.708l2.147,2.146l-2.147,2.146c-0.195,0.196 -0.195,0.512 0,0.708c0.196,0.195 0.512,0.195 0.708,-0l2.146,-2.147l2.146,2.147c0.196,0.195 0.512,0.195 0.708,-0c0.195,-0.196 0.195,-0.512 -0,-0.708l-2.147,-2.146l2.147,-2.146c0.195,-0.196 0.195,-0.512 -0,-0.708c-0.196,-0.195 -0.512,-0.195 -0.708,0l-2.146,2.147Z" style="fill:rgb(144,50,61);"/>
        </g>
        <g id="gray">
        </g>
        <g id="yellow">
        </g>
        <g id="icon">
            <path d="M2.5,15l11,0c0.276,-0 0.5,-0.224 0.5,-0.5c-0,-0.276 -0.224,-0.5 -0.5,-0.5l-11,0c-0.276,-0 -0.5,0.224 -0.5,0.5c-0,0.276 0.224,0.5 0.5,0.5Z" style="fill:rgb(151,159,173);"/>
            <path d="M2.5,12l11,0c0.276,0 0.5,-0.224 0.5,-0.5c0,-0.276 -0.224,-0.5 -0.5,-0.5l-11,0c-0.276,0 -0.5,0.224 -0.5,0.5c0,0.276 0.224,0.5 0.5,0.5Z" style="fill:rgb(151,159,173);"/>
            <path d="M2.5,9l11,0c0.276,-0 0.5,-0.224 0.5,-0.5c-0,-0.276 -0.224,-0.5 -0.5,-0.5l-11,0c-0.276,-0 -0.5,0.224 -0.5,0.5c-0,0.276 0.224,0.5 0.5,0.5Z" style="fill:rgb(151,159,173);"/>
            <path d="M9.5,6l4,0c0.276,-0 0.5,-0.224 0.5,-0.5c-0,-0.276 -0.224,-0.5 -0.5,-0.5l-4,0c-0.276,-0 -0.5,0.224 -0.5,0.5c-0,0.276 0.224,0.5 0.5,0.5Z" style="fill:rgb(151,159,173);"/>
        </g>
    </g>
    <g id="menu">
    </g>
</svg>
