<?xml version="1.0" encoding="UTF-8" standalone="no"?>
<!DOCTYPE svg PUBLIC "-//W3C//DTD SVG 1.1//EN" "http://www.w3.org/Graphics/SVG/1.1/DTD/svg11.dtd">
<svg width="100%" height="100%" viewBox="0 0 16 16" version="1.1" xmlns="http://www.w3.org/2000/svg" xmlns:xlink="http://www.w3.org/1999/xlink" xml:space="preserve" xmlns:serif="http://www.serif.com/" style="fill-rule:evenodd;clip-rule:evenodd;stroke-linejoin:round;stroke-miterlimit:2;">
    <g transform="matrix(1,0,0,1,-144,-120)">
        <g id="green_dark">
        </g>
        <g id="red_dark">
            <path d="M149,123.293L146.854,121.146C146.658,120.951 146.342,120.951 146.146,121.146C145.951,121.342 145.951,121.658 146.146,121.854L148.293,124L146.146,126.146C145.951,126.342 145.951,126.658 146.146,126.854C146.342,127.049 146.658,127.049 146.854,126.854L149,124.707L151.146,126.854C151.342,127.049 151.658,127.049 151.854,126.854C152.049,126.658 152.049,126.342 151.854,126.146L149.707,124L151.854,121.854C152.049,121.658 152.049,121.342 151.854,121.146C151.658,120.951 151.342,120.951 151.146,121.146L149,123.293Z" style="fill:rgb(179,74,86);"/>
        </g>
        <g id="gray_dark">
        </g>
        <g id="yellow_dark">
        </g>
        <g id="icon_dark">
            <path d="M146.5,135L157.5,135C157.776,135 158,134.776 158,134.5C158,134.224 157.776,134 157.5,134L146.5,134C146.224,134 146,134.224 146,134.5C146,134.776 146.224,135 146.5,135Z" style="fill:rgb(151,159,173);"/>
            <path d="M146.5,132L157.5,132C157.776,132 158,131.776 158,131.5C158,131.224 157.776,131 157.5,131L146.5,131C146.224,131 146,131.224 146,131.5C146,131.776 146.224,132 146.5,132Z" style="fill:rgb(151,159,173);"/>
            <path d="M146.5,129L157.5,129C157.776,129 158,128.776 158,128.5C158,128.224 157.776,128 157.5,128L146.5,128C146.224,128 146,128.224 146,128.5C146,128.776 146.224,129 146.5,129Z" style="fill:rgb(151,159,173);"/>
            <path d="M153.5,126L157.5,126C157.776,126 158,125.776 158,125.5C158,125.224 157.776,125 157.5,125L153.5,125C153.224,125 153,125.224 153,125.5C153,125.776 153.224,126 153.5,126Z" style="fill:rgb(151,159,173);"/>
        </g>
    </g>
</svg>
