<?xml version="1.0" encoding="UTF-8" standalone="no"?>
<!DOCTYPE svg PUBLIC "-//W3C//DTD SVG 1.1//EN" "http://www.w3.org/Graphics/SVG/1.1/DTD/svg11.dtd">
<svg width="100%" height="100%" viewBox="0 0 16 16" version="1.1" xmlns="http://www.w3.org/2000/svg" xmlns:xlink="http://www.w3.org/1999/xlink" xml:space="preserve" xmlns:serif="http://www.serif.com/" style="fill-rule:evenodd;clip-rule:evenodd;stroke-linejoin:round;stroke-miterlimit:2;">
    <g id="gdark">
        <path d="M7,0L1,0L1,13L11,13L11,4L7,0Z" style="fill:rgb(188,192,200);"/>
        <path d="M7,0L1,0L1,13L11,13L11,4L7,0ZM6.793,0.5L10.5,4.207C10.5,4.207 10.5,12.5 10.5,12.5C10.5,12.5 1.5,12.5 1.5,12.5C1.5,12.5 1.5,0.5 1.5,0.5L6.793,0.5Z" style="fill:rgb(181,185,192);"/>
        <g id="copy_shadow">
            <clipPath id="_clip1">
                <path d="M7,0L1,0L1,13L11,13L11,4L7,0Z"/>
            </clipPath>
            <g clip-path="url(#_clip1)">
                <g opacity="0.5">
                    <g style="filter:url(#_Effect2);">
                        <path d="M7,0L7,5L11,4L7,0Z"/>
                    </g>
                </g>
                <g opacity="0.5">
                    <g style="filter:url(#_Effect3);">
                        <path d="M11,3L5,3L5,16L15,16L15,7L11,3Z"/>
                    </g>
                </g>
            </g>
        </g>
        <path d="M7,0L7,4L11,4L7,0Z" style="fill:rgb(195,198,205);"/>
        <path d="M11,3L5,3L5,16L15,16L15,7L11,3Z" style="fill:rgb(41,121,255);"/>
        <g id="copy_shadow1" serif:id="copy_shadow">
            <clipPath id="_clip4">
                <path d="M11,3L5.5,3L5.5,16L15,16L15,7L11,3Z"/>
            </clipPath>
            <g clip-path="url(#_clip4)">
                <g opacity="0.3">
                    <g style="filter:url(#_Effect5);">
                        <path d="M11,3L11,8L15,7L11,3Z"/>
                    </g>
                </g>
            </g>
        </g>
        <path d="M11,3L11,7L15,7L11,3Z" style="fill:rgb(141,177,237);"/>
        <path d="M5,13L5.5,13L5.5,3.5L11,3.5L11,3L5,3L5,13Z" style="fill:url(#_Linear6);"/>
        </g>
    <defs>
        <filter id="_Effect2" filterUnits="userSpaceOnUse" x="4" y="-3" width="10" height="11">
            <feGaussianBlur in="SourceGraphic" stdDeviation="0.5"/>
        </filter>
        <filter id="_Effect3" filterUnits="userSpaceOnUse" x="-1" y="-3" width="22" height="25">
            <feGaussianBlur in="SourceGraphic" stdDeviation="1"/>
        </filter>
        <filter id="_Effect5" filterUnits="userSpaceOnUse" x="8" y="0" width="10" height="11">
            <feGaussianBlur in="SourceGraphic" stdDeviation="0.5"/>
        </filter>
        <linearGradient id="_Linear6" x1="0" y1="0" x2="1" y2="0" gradientUnits="userSpaceOnUse" gradientTransform="matrix(6.4294e-16,10.5,-21,1.28588e-15,5.5,2)"><stop offset="0" style="stop-color:white;stop-opacity:0"/><stop offset="0.25" style="stop-color:white;stop-opacity:0.23"/><stop offset="0.75" style="stop-color:white;stop-opacity:0.23"/><stop offset="1" style="stop-color:white;stop-opacity:0"/></linearGradient>
    </defs>
</svg>
