<?xml version="1.0" encoding="UTF-8" standalone="no"?>
<!DOCTYPE svg PUBLIC "-//W3C//DTD SVG 1.1//EN" "http://www.w3.org/Graphics/SVG/1.1/DTD/svg11.dtd">
<svg width="100%" height="100%" viewBox="0 0 16 16" version="1.1" xmlns="http://www.w3.org/2000/svg" xmlns:xlink="http://www.w3.org/1999/xlink" xml:space="preserve" xmlns:serif="http://www.serif.com/" style="fill-rule:evenodd;clip-rule:evenodd;stroke-linejoin:round;stroke-miterlimit:2;">
    <g transform="matrix(1,0,0,1,0,-144)">
        <g transform="matrix(1,0,0,1,-1.66667,6.53975e-05)">
            <g id="green">
                <path d="M11.243,150L8.757,150L8.993,148.582C9.039,148.31 8.854,148.052 8.582,148.007C8.31,147.961 8.052,148.146 8.007,148.418L7.743,150L6.667,150C6.391,150 6.167,150.224 6.167,150.5C6.167,150.776 6.391,151 6.667,151L7.576,151L7.243,153L6.167,153C5.891,153 5.667,153.224 5.667,153.5C5.667,153.776 5.891,154 6.167,154L7.076,154L6.84,155.418C6.795,155.69 6.979,155.948 7.251,155.993C7.523,156.039 7.781,155.854 7.827,155.582L8.09,154L10.576,154L10.34,155.418C10.295,155.69 10.479,155.948 10.751,155.993C11.023,156.039 11.281,155.854 11.327,155.582L11.59,154L12.667,154C12.943,154 13.167,153.776 13.167,153.5C13.167,153.224 12.943,153 12.667,153L11.757,153L12.09,151L13.167,151C13.443,151 13.667,150.776 13.667,150.5C13.667,150.224 13.443,150 13.167,150L12.257,150L12.493,148.582C12.539,148.31 12.354,148.052 12.082,148.007C11.81,147.961 11.552,148.146 11.507,148.418L11.243,150ZM8.59,151L8.257,153L10.743,153L11.076,151L8.59,151Z" style="fill:rgb(41,121,255);"/>
            </g>
        </g>
        <g id="red">
        </g>
        <g id="gray">
        </g>
        <g id="yellow">
        </g>
        <g id="icon">
        </g>
    </g>
</svg>
