<?xml version="1.0" encoding="UTF-8" standalone="no"?>
<!DOCTYPE svg PUBLIC "-//W3C//DTD SVG 1.1//EN" "http://www.w3.org/Graphics/SVG/1.1/DTD/svg11.dtd">
<svg width="100%" height="100%" viewBox="0 0 20 20" version="1.1" xmlns="http://www.w3.org/2000/svg" xmlns:xlink="http://www.w3.org/1999/xlink" xml:space="preserve" xmlns:serif="http://www.serif.com/" style="fill-rule:evenodd;clip-rule:evenodd;stroke-linejoin:round;stroke-miterlimit:2;">
    <g id="light">
        <g id="blue">
            <path d="M17.77,0.895C17.992,0.707 18.303,0.664 18.567,0.787C18.831,0.909 19,1.173 19,1.464C19,4.403 19,10.597 19,13.536C19,13.827 18.831,14.091 18.567,14.213C18.303,14.336 17.992,14.293 17.77,14.105C15.307,12.011 10,7.5 10,7.5C10,7.5 15.307,2.989 17.77,0.895Z" style="fill:rgb(41,121,255);"/>
            <path d="M2.23,0.895C2.008,0.707 1.697,0.664 1.433,0.787C1.169,0.909 1,1.173 1,1.464C1,4.403 1,10.597 1,13.536C1,13.827 1.169,14.091 1.433,14.213C1.697,14.336 2.008,14.293 2.23,14.105C4.693,12.011 10,7.5 10,7.5C10,7.5 4.693,2.989 2.23,0.895ZM3,4.175L3,10.825L6.912,7.5L3,4.175Z" style="fill:rgb(114,114,114);"/>
        </g>
        <g id="yellow">
        </g>
        <g id="red">
        </g>
        <g id="gray">
        </g>
        <g id="text">
            <path d="M11,14.962L5,14.962C4.448,14.962 4,15.41 4,15.962C4,16.514 4.448,16.962 5,16.962L11,16.962L11,18.964C11,19.155 11.11,19.33 11.282,19.413C11.455,19.496 11.659,19.472 11.809,19.353C13.224,18.221 16,16 16,16C16,16 13.224,13.779 11.809,12.647C11.659,12.528 11.455,12.504 11.282,12.587C11.11,12.67 11,12.845 11,13.036L11,14.962Z" style="fill:rgb(72,72,74);"/>
        </g>
        <g id="working">
        </g>
    </g>
</svg>
