<?xml version="1.0" encoding="UTF-8" standalone="no"?>
<!DOCTYPE svg PUBLIC "-//W3C//DTD SVG 1.1//EN" "http://www.w3.org/Graphics/SVG/1.1/DTD/svg11.dtd">
<svg width="100%" height="100%" viewBox="0 0 20 20" version="1.1" xmlns="http://www.w3.org/2000/svg" xmlns:xlink="http://www.w3.org/1999/xlink" xml:space="preserve" xmlns:serif="http://www.serif.com/" style="fill-rule:evenodd;clip-rule:evenodd;stroke-linejoin:round;stroke-miterlimit:2;">
    <g id="light">
        <g id="blue">
            <path d="M3.086,17L2,17C1.448,17 1,17.448 1,18C1,18.552 1.448,19 2,19L6.326,19C5.513,18.958 4.712,18.626 4.091,18.005L3.086,17ZM9.927,17L8.911,18.011C8.291,18.628 7.493,18.958 6.682,19L18,19C18.552,19 19,18.552 19,18C19,17.448 18.552,17 18,17L9.927,17Z" style="fill:rgb(41,121,255);"/>
        </g>
        <g id="yellow">
        </g>
        <g id="red">
        </g>
        <g id="text">
            <path d="M11.5,14.021L18.5,7.011L12.989,1.5L5.989,8.509L11.5,14.021Z" style="fill:rgb(72,72,74);"/>
            <path d="M10.749,14.77L5.25,9.271C5.25,9.271 3.894,10.62 2.714,11.794C2.26,12.246 2.004,12.86 2.003,13.501C2.003,14.142 2.257,14.757 2.71,15.21C3.375,15.875 4.134,16.634 4.798,17.298C5.739,18.239 7.263,18.24 8.206,17.302C9.388,16.126 10.749,14.77 10.749,14.77Z" style="fill:rgb(72,72,74);"/>
        </g>
        <g id="working">
        </g>
    </g>
</svg>
