<?xml version="1.0" encoding="UTF-8" standalone="no"?>
<!DOCTYPE svg PUBLIC "-//W3C//DTD SVG 1.1//EN" "http://www.w3.org/Graphics/SVG/1.1/DTD/svg11.dtd">
<svg width="100%" height="100%" viewBox="0 0 16 16" version="1.1" xmlns="http://www.w3.org/2000/svg" xmlns:xlink="http://www.w3.org/1999/xlink" xml:space="preserve" xmlns:serif="http://www.serif.com/" style="fill-rule:evenodd;clip-rule:evenodd;stroke-linejoin:round;stroke-miterlimit:2;">
    <g id="light">
        <g id="green">
            <path d="M2.962,9.214c0.977,-0.965 2.553,-0.961 3.525,0.011c0.975,0.976 0.975,2.56 -0,3.536l-1.415,1.414c-0.975,0.976 -2.56,0.976 -3.535,-0c-0.976,-0.976 -0.976,-2.56 -0,-3.536l1.425,-1.425Zm5.845,1.426c-0.107,0.751 0.129,1.543 0.706,2.121l1.415,1.414c0.975,0.976 2.56,0.976 3.535,-0c0.976,-0.976 0.976,-2.56 0,-3.536l-1.425,-1.425c-0.977,-0.965 -2.553,-0.961 -3.525,0.011c-0.121,0.121 -0.227,0.251 -0.318,0.389l-0.487,-0.489c0.375,-0.375 0.586,-0.884 0.585,-1.414c0,-0.531 -0.211,-1.04 -0.586,-1.415c-0.388,-0.387 -0.704,-0.703 -0.704,-0.703l-4.5,-4.5c-1.172,1.172 -1.172,3.071 0,4.243l5.304,5.304Zm-5.141,-0.716c0.586,-0.577 1.531,-0.574 2.113,0.008c0.586,0.586 0.586,1.536 0,2.122c0,-0 -1.414,1.414 -1.414,1.414c-0.585,0.585 -1.536,0.585 -2.121,-0c-0.585,-0.586 -0.585,-1.536 -0,-2.122l1.422,-1.422Zm8.668,0l1.422,1.422c0.585,0.586 0.585,1.536 0,2.122c-0.585,0.585 -1.536,0.585 -2.121,-0c-0,-0 -1.414,-1.414 -1.414,-1.414c-0.586,-0.586 -0.586,-1.536 -0,-2.122c0.582,-0.582 1.527,-0.585 2.113,-0.008l-0,0Zm-3.627,-5.041l3.79,-3.79c1.172,1.172 1.172,3.071 -0,4.243l-2.208,2.208c-0.041,-0.735 -0.352,-1.432 -0.876,-1.956l-0.706,-0.705Z" style="fill:rgb(41,121,255);"/>
        </g>
        <g id="red">
        </g>
        <g id="gray">
        </g>
        <g id="yellow">
        </g>
        <g id="icon">
        </g>
    </g>
    <g id="menu">
    </g>
</svg>
