<?xml version="1.0" encoding="UTF-8" standalone="no"?>
<!DOCTYPE svg PUBLIC "-//W3C//DTD SVG 1.1//EN" "http://www.w3.org/Graphics/SVG/1.1/DTD/svg11.dtd">
<svg width="100%" height="100%" viewBox="0 0 16 16" version="1.1" xmlns="http://www.w3.org/2000/svg" xmlns:xlink="http://www.w3.org/1999/xlink" xml:space="preserve" xmlns:serif="http://www.serif.com/" style="fill-rule:evenodd;clip-rule:evenodd;stroke-linejoin:round;stroke-miterlimit:2;">
    <g id="glight">
        <g id="rotate_ccw_shadow">
        </g>
        <g id="rotate_cw_shadow">
        </g>
        <g id="move_shadow">
        </g>
        <g id="move_shadow1" serif:id="move_shadow">
        </g>
        <g id="move_shadow2" serif:id="move_shadow">
        </g>
        <g id="move_shadow3" serif:id="move_shadow">
        </g>
        <g id="folder_shadow">
        </g>
        <g id="export_shadow">
        </g>
        <g id="copy_shadow">
        </g>
        <g id="copy_shadow1" serif:id="copy_shadow">
        </g>
        <g id="clip_shadow">
        </g>
        <g id="clip_shadow1" serif:id="clip_shadow">
        </g>
        <g id="cut_shadow">
        </g>
        <path d="M7,5.002C7,4.736 6.894,4.481 6.707,4.293C6.519,4.106 6.264,4 5.998,4C5.677,4 5.323,4 5.002,4C4.736,4 4.481,4.106 4.293,4.293C4.106,4.481 4,4.736 4,5.002C4,5.323 4,5.677 4,5.998C4,6.264 4.106,6.519 4.293,6.707C4.481,6.894 4.736,7 5.002,7C5.323,7 5.677,7 5.998,7C6.264,7 6.519,6.894 6.707,6.707C6.894,6.519 7,6.264 7,5.998L7,5.002Z" style="fill:rgb(41,121,255);"/>
        <path d="M12,10.002C12,9.736 11.894,9.481 11.707,9.293C11.519,9.106 11.264,9 10.998,9C10.677,9 10.323,9 10.002,9C9.736,9 9.481,9.106 9.293,9.293C9.106,9.481 9,9.736 9,10.002C9,10.323 9,10.677 9,10.998C9,11.264 9.106,11.519 9.293,11.707C9.481,11.894 9.736,12 10.002,12C10.323,12 10.677,12 10.998,12C11.264,12 11.519,11.894 11.707,11.707C11.894,11.519 12,11.264 12,10.998L12,10.002Z" style="fill:rgb(41,121,255);"/>
        <path d="M12,5.002C12,4.736 11.894,4.481 11.707,4.293C11.519,4.106 11.264,4 10.998,4C10.677,4 10.323,4 10.002,4C9.736,4 9.481,4.106 9.293,4.293C9.106,4.481 9,4.736 9,5.002C9,5.323 9,5.677 9,5.998C9,6.264 9.106,6.519 9.293,6.707C9.481,6.894 9.736,7 10.002,7C10.323,7 10.677,7 10.998,7C11.264,7 11.519,6.894 11.707,6.707C11.894,6.519 12,6.264 12,5.998L12,5.002Z" style="fill:rgb(72,72,74);"/>
        <path d="M7,10.002C7,9.736 6.894,9.481 6.707,9.293C6.519,9.106 6.264,9 5.998,9C5.677,9 5.323,9 5.002,9C4.736,9 4.481,9.106 4.293,9.293C4.106,9.481 4,9.736 4,10.002C4,10.323 4,10.677 4,10.998C4,11.264 4.106,11.519 4.293,11.707C4.481,11.894 4.736,12 5.002,12C5.323,12 5.677,12 5.998,12C6.264,12 6.519,11.894 6.707,11.707C6.894,11.519 7,11.264 7,10.998L7,10.002Z" style="fill:rgb(72,72,74);"/>
    </g>
    <g id="menu">
    </g>
</svg>
