<?xml version="1.0" encoding="UTF-8" standalone="no"?>
<!DOCTYPE svg PUBLIC "-//W3C//DTD SVG 1.1//EN" "http://www.w3.org/Graphics/SVG/1.1/DTD/svg11.dtd">
<svg width="100%" height="100%" viewBox="0 0 16 16" version="1.1" xmlns="http://www.w3.org/2000/svg" xmlns:xlink="http://www.w3.org/1999/xlink" xml:space="preserve" xmlns:serif="http://www.serif.com/" style="fill-rule:evenodd;clip-rule:evenodd;stroke-linejoin:round;stroke-miterlimit:2;">
    <g id="light">
        </g>
    <g id="Layer1">
        <path d="M13,3.998C13,3.447 12.553,3 12.002,3C10.416,3 7.5,3 7.5,3C7.5,3 6.348,1.848 5.792,1.292C5.605,1.105 5.351,1 5.086,1C4.225,1 2.218,1 0.998,1C0.734,1 0.48,1.105 0.292,1.292C0.105,1.48 -0,1.734 0,1.998C0,4.512 0,11.055 0,13.261C0,13.669 0.331,14 0.739,14L13,14L13,3.998Z" style="fill:rgb(229,115,26);"/>
        <g id="folder_shadow">
            <clipPath id="_clip1">
                <path d="M13,3.998C13,3.447 12.553,3 12.002,3C10.417,3 7.5,3 7.5,3C7.5,3 6.348,1.848 5.792,1.292C5.605,1.105 5.351,1 5.087,1C4.225,1 2.218,1 0.998,1C0.733,1 0.479,1.105 0.292,1.292C0.105,1.479 0,1.733 -0,1.998C0,4.511 0,11.055 -0,13.261C0,13.669 0.331,14 0.739,14L13,14L13,3.998Z"/>
            </clipPath>
            <g clip-path="url(#_clip1)">
                <g opacity="0.8">
                    <g style="filter:url(#_Effect2);">
                        <path d="M13.73,13.695C13.73,13.695 14.516,9.244 14.851,7.343C14.888,7.134 14.831,6.919 14.694,6.757C14.557,6.594 14.356,6.5 14.144,6.5C11.802,6.5 5.308,6.5 2.907,6.5C2.382,6.5 1.934,6.877 1.842,7.393C1.502,9.32 0.73,13.695 0.73,13.695C0.73,13.695 0.504,15 -0.232,15L12.768,15C13.504,15 13.73,13.695 13.73,13.695Z"/>
                    </g>
                </g>
            </g>
        </g>
        <path d="M14.73,12.695C14.73,12.695 15.492,8.381 15.835,6.434C15.876,6.202 15.812,5.965 15.661,5.784C15.51,5.604 15.287,5.5 15.051,5.5C12.637,5.5 6.282,5.5 3.91,5.5C3.384,5.5 2.933,5.878 2.842,6.396C2.501,8.325 1.73,12.695 1.73,12.695C1.73,12.695 1.504,14 0.768,14L13.768,14C14.504,14 14.73,12.695 14.73,12.695Z" style="fill:rgb(229,132,57);"/>
        <path d="M13,5.5L13,6C13,6 5.801,6 3.884,6C3.615,6 3.385,6.193 3.339,6.457C3.069,7.983 2.219,12.803 2.219,12.803C2.205,12.875 2.101,13.301 2.003,13.5C1.8,13.913 1.63,14 1.63,14L0.768,14C1.24,14 1.503,13.462 1.63,13.077L1.73,13.195L1.63,13.076C1.701,12.862 1.73,12.695 1.73,12.695C1.73,12.695 2.504,8.312 2.843,6.388C2.934,5.874 3.38,5.5 3.902,5.5C6.361,5.5 13,5.5 13,5.5Z" style="fill:url(#_Linear3);"/>
        </g>
    <defs>
        <filter id="_Effect2" filterUnits="userSpaceOnUse" x="-18.2323" y="-11.5" width="51.0944" height="44.5">
            <feGaussianBlur in="SourceGraphic" stdDeviation="3"/>
        </filter>
        <linearGradient id="_Linear3" x1="0" y1="0" x2="1" y2="0" gradientUnits="userSpaceOnUse" gradientTransform="matrix(3.5,5,-5.49642,3.8475,3,5.5)"><stop offset="0" style="stop-color:white;stop-opacity:0.3"/><stop offset="1" style="stop-color:white;stop-opacity:0"/></linearGradient>
    </defs>
</svg>
