<?xml version="1.0" encoding="UTF-8" standalone="no"?>
<!DOCTYPE svg PUBLIC "-//W3C//DTD SVG 1.1//EN" "http://www.w3.org/Graphics/SVG/1.1/DTD/svg11.dtd">
<svg width="100%" height="100%" viewBox="0 0 16 16" version="1.1" xmlns="http://www.w3.org/2000/svg" xmlns:xlink="http://www.w3.org/1999/xlink" xml:space="preserve" xmlns:serif="http://www.serif.com/" style="fill-rule:evenodd;clip-rule:evenodd;stroke-linejoin:round;stroke-miterlimit:2;">
    <g id="glight">
        <g id="rotate_ccw_shadow">
        </g>
        <g id="rotate_cw_shadow">
        </g>
        <g id="move_shadow">
        </g>
        <g id="move_shadow1" serif:id="move_shadow">
        </g>
        <g id="move_shadow2" serif:id="move_shadow">
        </g>
        <g id="move_shadow3" serif:id="move_shadow">
        </g>
        <g id="folder_shadow">
        </g>
        <g id="export_shadow">
        </g>
        <g id="copy_shadow">
        </g>
        <g id="copy_shadow1" serif:id="copy_shadow">
        </g>
        <g id="clip_shadow">
        </g>
        <g id="clip_shadow1" serif:id="clip_shadow">
        </g>
        <path d="M8.735,10.741L4.259,6.265L1.543,8.981C1.195,9.329 1,9.801 1,10.293C1,10.785 1.195,11.257 1.543,11.605C2.127,12.188 2.812,12.873 3.395,13.457C3.743,13.805 4.215,14 4.707,14C5.199,14 5.671,13.805 6.019,13.457L8.735,10.741Z" style="fill:rgb(188,192,200);"/>
        <path d="M8.487,10.989L9.024,10.451L4.535,5.99L4.011,6.513L8.487,10.989Z" style="fill-opacity:0.2;"/>
        <path d="M8.735,10.741L4.259,6.265L1.543,8.981C1.195,9.329 1,9.801 1,10.293C1,10.785 1.195,11.257 1.543,11.605C2.127,12.188 2.812,12.873 3.395,13.457C3.743,13.805 4.215,14 4.707,14C5.199,14 5.671,13.805 6.019,13.457L8.735,10.741Z" style="fill:rgb(188,192,200);"/>
        <path d="M8.488,10.987L14.595,4.877L10.12,0.402L4.013,6.512L8.488,10.987Z" style="fill-opacity:0.2;"/>
        <path d="M8.735,10.741L15,4.475L10.525,0L4.259,6.265L8.735,10.741Z" style="fill:rgb(41,121,255);"/>
        <path d="M10.525,0L1.543,8.981C1.195,9.329 1,9.801 1,10.293C1,10.785 1.195,11.257 1.543,11.605C2.127,12.188 2.812,12.873 3.395,13.457C3.743,13.805 4.215,14 4.707,14C5.199,14 5.671,13.805 6.019,13.457L15,4.475L10.525,0Z" style="fill:url(#_Linear1);"/>
        <path d="M8.735,10.741L15,4.475L10.525,0L4.259,6.265L8.735,10.741Z" style="fill:rgb(41,121,255);"/>
        <path d="M10.525,0L1.543,8.981C1.195,9.329 1,9.801 1,10.293C1,10.785 1.195,11.257 1.543,11.605C2.127,12.188 2.812,12.873 3.395,13.457C3.743,13.805 4.215,14 4.707,14C5.199,14 5.671,13.805 6.019,13.457L15,4.475L10.525,0ZM10.525,0.707L14.293,4.475C14.293,4.475 5.665,13.103 5.665,13.103C5.411,13.357 5.066,13.5 4.707,13.5C4.347,13.5 4.003,13.357 3.748,13.103L1.897,11.252C1.643,10.997 1.5,10.653 1.5,10.293C1.5,9.934 1.643,9.589 1.897,9.335L10.525,0.707Z" style="fill:url(#_Linear2);"/>
        <g id="cut_shadow">
        </g>
        <path d="M14.5,14L1.5,14C1.224,14 1,14.224 1,14.5C1,14.776 1.224,15 1.5,15L14.5,15C14.776,15 15,14.776 15,14.5C15,14.224 14.776,14 14.5,14Z" style="fill:url(#_Linear3);"/>
    </g>
    <g id="menu">
    </g>
    <defs>
        <linearGradient id="_Linear1" x1="0" y1="0" x2="1" y2="0" gradientUnits="userSpaceOnUse" gradientTransform="matrix(2.53161,2.53161,-2.53161,2.53161,6.77226,3.87356)"><stop offset="0" style="stop-color:white;stop-opacity:0.2"/><stop offset="1" style="stop-color:white;stop-opacity:0"/></linearGradient>
        <linearGradient id="_Linear2" x1="0" y1="0" x2="1" y2="0" gradientUnits="userSpaceOnUse" gradientTransform="matrix(-4.82263,-5.88779,5.88779,-4.82263,8.38262,11.0879)"><stop offset="0" style="stop-color:black;stop-opacity:0.1"/><stop offset="1" style="stop-color:white;stop-opacity:0.3"/></linearGradient>
        <linearGradient id="_Linear3" x1="0" y1="0" x2="1" y2="0" gradientUnits="userSpaceOnUse" gradientTransform="matrix(14,0,0,1,0.5,14.5)"><stop offset="0" style="stop-color:rgb(72,72,74);stop-opacity:0"/><stop offset="0.17" style="stop-color:rgb(72,72,74);stop-opacity:0.4"/><stop offset="0.47" style="stop-color:rgb(72,72,74);stop-opacity:0.57"/><stop offset="1" style="stop-color:rgb(72,72,74);stop-opacity:1"/></linearGradient>
    </defs>
</svg>
