<?xml version="1.0" encoding="UTF-8" standalone="no"?>
<!DOCTYPE svg PUBLIC "-//W3C//DTD SVG 1.1//EN" "http://www.w3.org/Graphics/SVG/1.1/DTD/svg11.dtd">
<svg width="100%" height="100%" viewBox="0 0 20 20" version="1.1" xmlns="http://www.w3.org/2000/svg" xmlns:xlink="http://www.w3.org/1999/xlink" xml:space="preserve" xmlns:serif="http://www.serif.com/" style="fill-rule:evenodd;clip-rule:evenodd;stroke-linejoin:round;stroke-miterlimit:2;">
    <g id="light">
        <g id="blue">
            <path d="M19.03,2.155C19.218,1.933 19.261,1.622 19.138,1.358C19.016,1.094 18.752,0.925 18.461,0.925C15.522,0.925 9.328,0.925 6.389,0.925C6.098,0.925 5.834,1.094 5.712,1.358C5.589,1.622 5.632,1.933 5.82,2.155C7.914,4.618 12.425,9.925 12.425,9.925C12.425,9.925 16.936,4.618 19.03,2.155Z" style="fill:rgb(41,121,255);"/>
        </g>
        <g id="yellow">
        </g>
        <g id="red">
        </g>
        <g id="gray">
            <path d="M19.03,17.695C19.218,17.917 19.261,18.228 19.138,18.492C19.016,18.756 18.752,18.925 18.461,18.925C15.522,18.925 9.328,18.925 6.389,18.925C6.098,18.925 5.834,18.756 5.712,18.492C5.589,18.228 5.632,17.917 5.82,17.695C7.914,15.232 12.425,9.925 12.425,9.925C12.425,9.925 16.936,15.232 19.03,17.695ZM9.1,16.925L15.75,16.925L12.425,13.013L9.1,16.925Z" style="fill:rgb(114,114,114);"/>
        </g>
        <g id="text">
            <path d="M4.963,8.925L4.963,14.925C4.963,15.477 4.515,15.925 3.963,15.925C3.411,15.925 2.963,15.477 2.963,14.925L2.963,8.925L0.961,8.925C0.77,8.925 0.595,8.815 0.512,8.643C0.429,8.47 0.453,8.266 0.572,8.116C1.704,6.701 3.925,3.925 3.925,3.925C3.925,3.925 6.146,6.701 7.278,8.116C7.397,8.266 7.421,8.47 7.338,8.643C7.255,8.815 7.08,8.925 6.889,8.925L4.963,8.925Z" style="fill:rgb(72,72,74);"/>
        </g>
        <g id="working">
        </g>
    </g>
</svg>
