<?xml version="1.0" encoding="UTF-8" standalone="no"?>
<!DOCTYPE svg PUBLIC "-//W3C//DTD SVG 1.1//EN" "http://www.w3.org/Graphics/SVG/1.1/DTD/svg11.dtd">
<svg width="100%" height="100%" viewBox="0 0 20 20" version="1.1" xmlns="http://www.w3.org/2000/svg" xmlns:xlink="http://www.w3.org/1999/xlink" xml:space="preserve" xmlns:serif="http://www.serif.com/" style="fill-rule:evenodd;clip-rule:evenodd;stroke-linejoin:round;stroke-miterlimit:2;">
    <g id="light">
        <g id="blue">
            <path d="M14,11L12.518,11C10.023,11 8,13.023 8,15.518L8,16.5L8.009,16.631C8.033,16.838 8.111,16.996 8.212,17.116C8.386,17.337 8.65,17.484 8.949,17.499L9,17.5L9.043,17.495C9.234,17.468 10,17.309 10,16.488L10,15.518C10,14.127 11.127,13 12.517,13L14,13L14,14.926C14,15.117 14.11,15.292 14.282,15.375C14.455,15.458 14.659,15.434 14.809,15.315C16.224,14.183 19,11.962 19,11.962C19,11.962 16.224,9.741 14.809,8.609C14.659,8.49 14.455,8.466 14.282,8.549C14.11,8.632 14,8.807 14,8.998L14,11Z" style="fill:rgb(41,121,255);"/>
        </g>
        <g id="yellow">
        </g>
        <g id="red">
        </g>
        <g id="gray">
        </g>
        <g id="text">
            <path d="M17,14.843L15.434,16.096C14.984,16.455 14.368,16.526 13.849,16.276C13.33,16.027 13,15.502 13,14.926C13,14.926 13,14 13,14C13,14 12.518,14 12.517,14C11.679,14 11,14.679 11,15.518L11,16.488C11,18.085 9.554,18.433 9.182,18.485C9.049,18.502 8.969,18.501 8.898,18.497C8.3,18.467 7.771,18.174 7.436,17.746C7.235,17.504 7.076,17.193 7.021,16.788C7.011,16.698 7.004,16.602 7,16.5C7,16.5 7,15.518 7,15.518C7,12.47 9.47,10 12.518,10L13,10L13,8.998C13,8.422 13.33,7.897 13.849,7.648C14.368,7.398 14.984,7.469 15.434,7.828L17,9.081L17,6L12,1L3.75,1C3.336,1 3,1.336 3,1.751C3,4.679 3,15.321 3,18.249C3,18.449 3.079,18.639 3.22,18.78C3.361,18.921 3.551,19 3.751,19C6.181,19 13.819,19 16.249,19C16.449,19 16.639,18.921 16.78,18.78C16.921,18.639 17,18.449 17,18.249C17,17.052 17,14.843 17,14.843ZM11,7L11,3L15,7L11,7Z" style="fill:rgb(72,72,74);"/>
        </g>
        <g id="working">
        </g>
    </g>
</svg>
