<?xml version="1.0" encoding="UTF-8" standalone="no"?>
<!DOCTYPE svg PUBLIC "-//W3C//DTD SVG 1.1//EN" "http://www.w3.org/Graphics/SVG/1.1/DTD/svg11.dtd">
<svg width="100%" height="100%" viewBox="0 0 16 16" version="1.1" xmlns="http://www.w3.org/2000/svg" xmlns:xlink="http://www.w3.org/1999/xlink" xml:space="preserve" xmlns:serif="http://www.serif.com/" style="fill-rule:evenodd;clip-rule:evenodd;stroke-linejoin:round;stroke-miterlimit:2;">
    <g id="light">
        <g id="green">
            <path d="M5.825,1c-0.306,-0 -0.582,0.184 -0.699,0.467c-0.117,0.282 -0.052,0.607 0.164,0.823c1.764,1.764 4.71,4.71 4.71,4.71c0,0 2.946,-2.946 4.71,-4.71c0.216,-0.216 0.281,-0.541 0.164,-0.823c-0.117,-0.283 -0.393,-0.467 -0.699,-0.467c-2.26,0 -6.09,0 -8.35,0Z" style="fill:rgb(41,121,255);"/>
        </g>
        <g id="red">
        </g>
        <g id="gray">
            <path d="M5.825,15c-0.306,0 -0.582,-0.184 -0.699,-0.467c-0.117,-0.282 -0.052,-0.607 0.164,-0.823c1.764,-1.764 4.71,-4.71 4.71,-4.71c0,0 2.946,2.946 4.71,4.71c0.216,0.216 0.281,0.541 0.164,0.823c-0.117,0.283 -0.393,0.467 -0.699,0.467c-2.26,0 -6.09,0 -8.35,0Z" style="fill:rgb(114,114,114);"/>
        </g>
        <g id="yellow">
        </g>
        <g id="icon">
            <path d="M4,12.5l0,-6.5l2.5,-0l-3,-3l-3,3l2.5,-0l-0,6.51c-0,0.276 0.224,0.5 0.5,0.5c0.276,-0 0.5,-0.224 0.5,-0.5c0,-0.003 0,-0.007 -0,-0.01Z" style="fill:rgb(72,72,74);"/>
        </g>
    </g>
    <g id="menu">
    </g>
</svg>
