<?xml version="1.0" encoding="UTF-8" standalone="no"?>
<!DOCTYPE svg PUBLIC "-//W3C//DTD SVG 1.1//EN" "http://www.w3.org/Graphics/SVG/1.1/DTD/svg11.dtd">
<svg width="100%" height="100%" viewBox="0 0 16 16" version="1.1" xmlns="http://www.w3.org/2000/svg" xmlns:xlink="http://www.w3.org/1999/xlink" xml:space="preserve" xmlns:serif="http://www.serif.com/" style="fill-rule:evenodd;clip-rule:evenodd;stroke-linejoin:round;stroke-miterlimit:2;">
    <g id="green">
    </g>
    <g id="red">
        <path d="M6,5L6,1L1.543,5.5L6,10L6,6L9.501,6C10.429,6 11.319,6.369 11.975,7.025C12.631,7.681 13,8.571 13,9.499C13,9.5 13,9.5 13,9.501C13,11.433 11.433,13 9.501,13L9,13C8.724,13 8.5,13.224 8.5,13.5C8.5,13.775 8.722,13.998 8.997,14L9,14L9.617,13.999C12.048,13.937 14,11.947 14,9.501C14,9.5 14,9.5 14,9.499C14,8.306 13.526,7.162 12.682,6.318C11.838,5.474 10.694,5 9.501,5L6,5Z" style="fill:rgb(144,50,61);"/>
    </g>
    <g id="gray">
    </g>
    <g id="yellow">
    </g>
    <g id="icon">
    </g>
</svg>
