<?xml version="1.0" encoding="UTF-8" standalone="no"?>
<!DOCTYPE svg PUBLIC "-//W3C//DTD SVG 1.1//EN" "http://www.w3.org/Graphics/SVG/1.1/DTD/svg11.dtd">
<svg width="100%" height="100%" viewBox="0 0 16 16" version="1.1" xmlns="http://www.w3.org/2000/svg" xmlns:xlink="http://www.w3.org/1999/xlink" xml:space="preserve" xmlns:serif="http://www.serif.com/" style="fill-rule:evenodd;clip-rule:evenodd;stroke-linejoin:round;stroke-miterlimit:2;">
    <g id="light">
        </g>
    <g id="Layer1">
        <path d="M8,8.002C8,7.448 7.552,7 6.998,7L1.002,7C0.448,7 0,7.448 0,8.002C0,9.734 0,13.269 0,15C-0,15.265 0.105,15.519 0.293,15.707C0.481,15.895 0.735,16 1,16C2.537,16 5.463,16 7,16C7.265,16 7.519,15.895 7.707,15.707C7.895,15.519 8,15.265 8,15C8,13.269 8,9.734 8,8.002Z" style="fill:rgb(188,192,200);"/>
        <path d="M8,8.002C8,7.448 7.552,7 6.998,7L1.002,7C0.448,7 0,7.448 0,8.002C0,9.734 0,13.269 0,15C-0,15.265 0.105,15.519 0.293,15.707C0.481,15.895 0.735,16 1,16C2.537,16 5.463,16 7,16C7.265,16 7.519,15.895 7.707,15.707C7.895,15.519 8,15.265 8,15C8,13.269 8,9.734 8,8.002ZM7.5,8.002L7.5,15C7.5,15.132 7.447,15.26 7.353,15.353C7.26,15.447 7.132,15.5 7,15.5L1,15.5C0.868,15.5 0.74,15.447 0.647,15.353C0.553,15.26 0.5,15.132 0.5,15L0.5,8.002C0.5,7.725 0.725,7.5 1.002,7.5L6.998,7.5C7.275,7.5 7.5,7.725 7.5,8.002Z" style="fill:rgb(181,185,192);"/>
        <g id="move_shadow1" serif:id="move_shadow">
            <clipPath id="_clip1">
                <path d="M8,8.007C8,7.451 7.549,7 6.993,7C5.456,7 2.544,7 1.007,7C0.451,7 -0,7.451 -0,8.007C0,9.742 0,13.271 0,15C-0,15.265 0.105,15.519 0.293,15.707C0.481,15.895 0.735,16 1,16C2.537,16 5.463,16 7,16C7.265,16 7.519,15.895 7.707,15.707C7.895,15.519 8,15.265 8,15C8,13.271 8,9.742 8,8.007Z"/>
            </clipPath>
            <g clip-path="url(#_clip1)">
                <g opacity="0.5">
                    <g style="filter:url(#_Effect2);">
                        <path d="M7,9.5C7.265,9.5 7.519,9.395 7.707,9.207C7.895,9.019 8,8.765 8,8.5C8,6.768 8,3.232 8,1.5C8,1.235 7.895,0.981 7.707,0.793C7.519,0.605 7.265,0.5 7,0.5C5.463,0.5 2.537,0.5 1,0.5C0.735,0.5 0.481,0.605 0.293,0.793C0.105,0.981 -0,1.235 -0,1.5C0,3.232 0,6.768 0,8.5C-0,8.765 0.105,9.019 0.293,9.207C0.481,9.395 0.735,9.5 1,9.5C2.537,9.5 5.463,9.5 7,9.5Z"/>
                    </g>
                </g>
            </g>
        </g>
        <path d="M7,9C7.265,9 7.519,8.895 7.707,8.707C7.895,8.519 8,8.265 8,8C8,6.268 8,2.732 8,1C8,0.735 7.895,0.481 7.707,0.293C7.519,0.105 7.265,-0 7,0C5.463,0 2.537,0 1,0C0.735,-0 0.481,0.105 0.293,0.293C0.105,0.481 -0,0.735 0,1C0,2.732 0,6.268 0,8C-0,8.265 0.105,8.519 0.293,8.707C0.481,8.895 0.735,9 1,9C2.537,9 5.463,9 7,9Z" style="fill:rgb(41,121,255);"/>
        <path d="M12,3L10,3L13,0L16,3L14,3L14,8L12,8L12,3Z" style="fill:rgb(72,72,74);"/>
        <path d="M1,9C0.735,9 0.481,8.895 0.293,8.707C0.105,8.519 -0,8.265 0,8L0,7L0.5,7L0.5,8.006C0.5,8.279 0.721,8.5 0.994,8.5L7.006,8.5C7.279,8.5 7.5,8.279 7.5,8.006L7.5,7L8,7L8,8C8,8.265 7.895,8.519 7.707,8.707C7.519,8.895 7.265,9 7,9L1,9Z" style="fill:url(#_Linear3);"/>
        </g>
    <defs>
        <filter id="_Effect2" filterUnits="userSpaceOnUse" x="-12" y="-11.5" width="32" height="33">
            <feGaussianBlur in="SourceGraphic" stdDeviation="2"/>
        </filter>
        <linearGradient id="_Linear3" x1="0" y1="0" x2="1" y2="0" gradientUnits="userSpaceOnUse" gradientTransform="matrix(-7,8.57253e-16,-8.57253e-16,-7,7.5,8.5)"><stop offset="0" style="stop-color:white;stop-opacity:0"/><stop offset="0.25" style="stop-color:white;stop-opacity:0.3"/><stop offset="0.75" style="stop-color:white;stop-opacity:0.3"/><stop offset="1" style="stop-color:white;stop-opacity:0"/></linearGradient>
    </defs>
</svg>
