<?xml version="1.0" encoding="UTF-8" standalone="no"?>
<!DOCTYPE svg PUBLIC "-//W3C//DTD SVG 1.1//EN" "http://www.w3.org/Graphics/SVG/1.1/DTD/svg11.dtd">
<svg width="100%" height="100%" viewBox="0 0 16 16" version="1.1" xmlns="http://www.w3.org/2000/svg" xmlns:xlink="http://www.w3.org/1999/xlink" xml:space="preserve" xmlns:serif="http://www.serif.com/" style="fill-rule:evenodd;clip-rule:evenodd;stroke-linejoin:round;stroke-miterlimit:2;">
    <g id="light">
        <g id="green">
            <path d="M1.5,0.857C1.19,0.68 0.808,0.681 0.499,0.86C0.19,1.04 0,1.37 0,1.727C0,4.804 0,11.196 0,14.273C0,14.63 0.19,14.96 0.499,15.14C0.808,15.319 1.19,15.32 1.5,15.143C3.557,13.968 7,12 7,12L7,4C7,4 3.557,2.032 1.5,0.857ZM14.5,0.857C14.81,0.68 15.192,0.681 15.501,0.86C15.81,1.04 16,1.37 16,1.727C16,4.804 16,11.196 16,14.273C16,14.63 15.81,14.96 15.501,15.14C15.192,15.319 14.81,15.32 14.5,15.143C12.443,13.968 9,12 9,12L9,4C9,4 12.443,2.032 14.5,0.857Z" style="fill:rgb(41,121,255);"/>
        </g>
        </g>
    <g id="Layer1">
        </g>
    </svg>
