<?xml version="1.0" encoding="UTF-8" standalone="no"?>
<!DOCTYPE svg PUBLIC "-//W3C//DTD SVG 1.1//EN" "http://www.w3.org/Graphics/SVG/1.1/DTD/svg11.dtd">
<svg width="100%" height="100%" viewBox="0 0 16 16" version="1.1" xmlns="http://www.w3.org/2000/svg" xmlns:xlink="http://www.w3.org/1999/xlink" xml:space="preserve" xmlns:serif="http://www.serif.com/" style="fill-rule:evenodd;clip-rule:evenodd;stroke-linejoin:round;stroke-miterlimit:2;">
    <g id="light">
        <g id="green">
            <path d="M15,10.193c-0,0.302 -0.182,0.575 -0.462,0.691c-0.28,0.116 -0.602,0.052 -0.816,-0.162c-1.762,-1.762 -4.722,-4.722 -4.722,-4.722c-0,0 2.96,-2.96 4.722,-4.722c0.214,-0.214 0.536,-0.278 0.816,-0.162c0.28,0.116 0.462,0.389 0.462,0.691c-0,2.265 -0,6.121 -0,8.386Z" style="fill:rgb(41,121,255);"/>
        </g>
        <g id="red">
        </g>
        <g id="gray">
            <path d="M1,10.193c0,0.302 0.182,0.575 0.462,0.691c0.28,0.116 0.602,0.052 0.816,-0.162c1.762,-1.762 4.722,-4.722 4.722,-4.722c0,0 -2.96,-2.96 -4.722,-4.722c-0.214,-0.214 -0.536,-0.278 -0.816,-0.162c-0.28,0.116 -0.462,0.389 -0.462,0.691c0,2.265 0,6.121 0,8.386Z" style="fill:rgb(114,114,114);"/>
        </g>
        <g id="yellow">
        </g>
        <g id="icon">
            <path d="M3.51,13l6.5,0l-0,2.5l3,-3l-3,-3l-0,2.5l-6.51,-0c-0.276,-0 -0.5,0.224 -0.5,0.5c0,0.276 0.224,0.5 0.5,0.5c0.003,0 0.007,0 0.01,-0Z" style="fill:rgb(72,72,74);"/>
        </g>
    </g>
    <g id="menu">
    </g>
</svg>
