<?xml version="1.0" encoding="UTF-8" standalone="no"?>
<!DOCTYPE svg PUBLIC "-//W3C//DTD SVG 1.1//EN" "http://www.w3.org/Graphics/SVG/1.1/DTD/svg11.dtd">
<svg width="100%" height="100%" viewBox="0 0 16 16" version="1.1" xmlns="http://www.w3.org/2000/svg" xmlns:xlink="http://www.w3.org/1999/xlink" xml:space="preserve" xmlns:serif="http://www.serif.com/" style="fill-rule:evenodd;clip-rule:evenodd;stroke-linejoin:round;stroke-miterlimit:2;">
    <g id="light">
        <g id="green">
        </g>
        <g id="red">
        </g>
        <g id="gray">
        </g>
        <g id="yellow">
        </g>
        <g id="icon">
            <path d="M10.415,1.085c0.323,-0.323 0.847,-0.323 1.17,-0c0.863,0.863 2.467,2.467 3.33,3.33c0.323,0.323 0.323,0.847 0,1.17c-1.839,1.839 -7.491,7.491 -9.33,9.33c-0.323,0.323 -0.847,0.323 -1.17,0c-0.863,-0.863 -2.467,-2.467 -3.33,-3.33c-0.323,-0.323 -0.323,-0.847 -0,-1.17c1.839,-1.839 7.491,-7.491 9.33,-9.33Zm-6.604,8.019l-0.707,0.707l1.042,1.043c0.196,0.195 0.512,0.195 0.708,-0c0.195,-0.196 0.195,-0.512 -0,-0.708l-1.043,-1.042Zm2,-2l-0.707,0.707l1.042,1.043c0.196,0.195 0.512,0.195 0.708,-0c0.195,-0.196 0.195,-0.512 -0,-0.708l-1.043,-1.042Zm2,-2l-0.707,0.707l1.042,1.043c0.196,0.195 0.512,0.195 0.708,-0c0.195,-0.196 0.195,-0.512 -0,-0.708l-1.043,-1.042Zm2,-2l-0.707,0.707l1.042,1.043c0.196,0.195 0.512,0.195 0.708,-0c0.195,-0.196 0.195,-0.512 -0,-0.708l-1.043,-1.042Z" style="fill:rgb(72,72,74);"/>
        </g>
    </g>
    <g id="menu">
    </g>
</svg>
