<?xml version="1.0" encoding="UTF-8" standalone="no"?>
<!DOCTYPE svg PUBLIC "-//W3C//DTD SVG 1.1//EN" "http://www.w3.org/Graphics/SVG/1.1/DTD/svg11.dtd">
<svg width="100%" height="100%" viewBox="0 0 16 16" version="1.1" xmlns="http://www.w3.org/2000/svg" xmlns:xlink="http://www.w3.org/1999/xlink" xml:space="preserve" xmlns:serif="http://www.serif.com/" style="fill-rule:evenodd;clip-rule:evenodd;stroke-linejoin:round;stroke-miterlimit:2;">
    <g id="light">
        </g>
    <g id="Layer1">
        <path d="M16,2C16,1.47 15.789,0.961 15.414,0.586C15.039,0.211 14.53,-0 14,0L2,-0C1.47,-0 0.961,0.211 0.586,0.586C0.211,0.961 -0,1.47 0,2L-0,14C-0,14.53 0.211,15.039 0.586,15.414C0.961,15.789 1.47,16 2,16L14,16C14.53,16 15.039,15.789 15.414,15.414C15.789,15.039 16,14.53 16,14L16,2Z" style="fill:rgb(229,115,26);"/>
        <g style="filter:url(#_Effect1);">
            <path d="M7.975,12L8.025,12C12.274,11.987 14.415,8.779 14.415,8.779L14.603,8.499L14.414,8.22C14.414,8.22 12.255,5.013 8.025,5L7.975,5C3.745,5.013 1.586,8.22 1.586,8.22L1.397,8.499L1.585,8.779C1.585,8.779 3.726,11.987 7.975,12Z" style="fill-opacity:0.3;"/>
        </g>
        <path d="M7.975,11.5L8.025,11.5C12.274,11.487 14.415,8.279 14.415,8.279L14.603,7.999L14.414,7.72C14.414,7.72 12.255,4.513 8.025,4.5L7.975,4.5C3.745,4.513 1.586,7.72 1.586,7.72L1.397,7.999L1.585,8.279C1.585,8.279 3.726,11.487 7.975,11.5Z" style="fill:white;"/>
        <circle cx="8" cy="8" r="3" style="fill:rgb(41,121,255);"/>
        <circle cx="8" cy="8" r="3" style="fill:url(#_Linear2);"/>
        <circle cx="8" cy="8" r="1"/>
        <circle cx="8" cy="6.5" r="1.5" style="fill:white;fill-opacity:0.4;"/>
        </g>
    <defs>
        <filter id="_Effect1" filterUnits="userSpaceOnUse" x="-1.60301" y="2.00007" width="19.206" height="12.9999">
            <feGaussianBlur in="SourceGraphic" stdDeviation="0.5"/>
        </filter>
        <linearGradient id="_Linear2" x1="0" y1="0" x2="1" y2="0" gradientUnits="userSpaceOnUse" gradientTransform="matrix(3.67394e-16,6,-6,3.67394e-16,8,5)"><stop offset="0" style="stop-color:white;stop-opacity:0"/><stop offset="1" style="stop-color:white;stop-opacity:0.3"/></linearGradient>
        <filter id="_Effect3" filterUnits="userSpaceOnUse" x="21.6412" y="-1.46536" width="20.3241" height="20.3241">
            <feGaussianBlur in="SourceGraphic" stdDeviation="0.5"/>
        </filter>
    </defs>
</svg>
