<?xml version="1.0" encoding="UTF-8" standalone="no"?>
<!DOCTYPE svg PUBLIC "-//W3C//DTD SVG 1.1//EN" "http://www.w3.org/Graphics/SVG/1.1/DTD/svg11.dtd">
<svg width="100%" height="100%" viewBox="0 0 16 16" version="1.1" xmlns="http://www.w3.org/2000/svg" xmlns:xlink="http://www.w3.org/1999/xlink" xml:space="preserve" xmlns:serif="http://www.serif.com/" style="fill-rule:evenodd;clip-rule:evenodd;stroke-linejoin:round;stroke-miterlimit:2;">
    <g id="light">
        <g id="green">
            <path d="M15,1.749c-0,-0.414 -0.335,-0.749 -0.749,-0.749c-2.429,-0 -10.073,-0 -12.502,-0c-0.414,-0 -0.749,0.335 -0.749,0.749c0,1.158 0,3.251 0,3.251l14,0l0,-3.251Z" style="fill:rgb(41,121,255);"/>
        </g>
        <g id="red">
        </g>
        <g id="gray">
        </g>
        <g id="yellow">
        </g>
        <g id="icon">
            <path d="M15,6l-14,0l-0,8.251c0,0.414 0.335,0.749 0.749,0.749c2.429,0 10.073,0 12.502,0c0.414,0 0.749,-0.335 0.749,-0.749c-0,-2.16 -0,-8.251 -0,-8.251Zm-8,6.5l-0,1.5l-2,0l-0,-3l-2,0l5,-4l5,4l-2,0l-0,3l-2,-0l-0,-1.5c-0,-0.552 -0.448,-1 -1,-1c-0.55,0 -0.997,0.445 -1,0.994l-0,0.006Z" style="fill:rgb(72,72,74);"/>
        </g>
    </g>
    <g id="menu">
    </g>
</svg>
