<?xml version="1.0" encoding="UTF-8" standalone="no"?>
<!DOCTYPE svg PUBLIC "-//W3C//DTD SVG 1.1//EN" "http://www.w3.org/Graphics/SVG/1.1/DTD/svg11.dtd">
<svg width="100%" height="100%" viewBox="0 0 16 16" version="1.1" xmlns="http://www.w3.org/2000/svg" xmlns:xlink="http://www.w3.org/1999/xlink" xml:space="preserve" xmlns:serif="http://www.serif.com/" style="fill-rule:evenodd;clip-rule:evenodd;stroke-linejoin:round;stroke-miterlimit:2;">
    <g id="glight">
        <path d="M10,3.013C10,2.745 9.894,2.489 9.705,2.3C9.516,2.111 9.26,2.005 8.993,2.005C6.644,2.005 1,2.005 1,2.005L1,14.005L8.993,14.005C9.26,14.005 9.516,13.899 9.705,13.71C9.894,13.522 10,13.265 10,12.998C10,10.736 10,5.274 10,3.013Z" style="fill:rgb(114,114,114);"/>
        <path d="M5.5,0.011C5.5,0.011 6.428,0.01 6.5,0.011C6.594,0.012 6.688,0.039 6.769,0.091C6.913,0.184 7,0.343 7,0.515C7,3.299 7,12.712 7,15.496C7,15.667 6.913,15.827 6.769,15.92C6.688,15.972 6.594,15.999 6.5,16C6.428,16 5.5,16 5.5,16L5.5,0.011Z" style="fill:url(#_Linear1);"/>
        <path d="M1,2.005C1,2.005 3.907,0.684 5.288,0.056C5.444,-0.015 5.625,-0.002 5.769,0.091C5.913,0.184 6,0.343 6,0.515C6,3.299 6,12.712 6,15.496C6,15.667 5.913,15.827 5.769,15.92C5.625,16.012 5.444,16.025 5.288,15.955C3.907,15.327 1,14.005 1,14.005L1,2.005Z" style="fill:rgb(188,192,200);"/>
        <path d="M1,2.005C1,2.005 3.907,0.684 5.288,0.056C5.444,-0.015 5.625,-0.002 5.769,0.091C5.913,0.184 6,0.343 6,0.515C6,3.299 6,12.712 6,15.496C6,15.667 5.913,15.827 5.769,15.92C5.625,16.012 5.444,16.025 5.288,15.955C3.907,15.327 1,14.005 1,14.005L1,2.005ZM1.5,2.327L5.495,0.511C5.496,0.511 5.497,0.511 5.498,0.512C5.499,0.512 5.5,0.513 5.5,0.515C5.5,0.515 5.5,15.496 5.5,15.496C5.5,15.497 5.499,15.499 5.498,15.499C5.497,15.5 5.496,15.5 5.495,15.499C5.495,15.499 1.5,13.683 1.5,13.683L1.5,2.327Z" style="fill:rgb(181,185,192);"/>
        <path d="M12,7L12,5L15,8L12,11L12,9L7.5,9L7.5,7L12,7Z" style="fill:rgb(144,50,61);"/>
        <path d="M9.5,7.5L9.5,7L7.5,7L7.5,9L9.5,9L9.5,8.5L8,8.5L8,7.5L9.5,7.5Z" style="fill:url(#_Linear2);"/>
    </g>
    <defs>
        <linearGradient id="_Linear1" x1="0" y1="0" x2="1" y2="0" gradientUnits="userSpaceOnUse" gradientTransform="matrix(9.79717e-16,16,-16,9.79717e-16,6.30199,0)"><stop offset="0" style="stop-color:white;stop-opacity:1"/><stop offset="0.04" style="stop-color:rgb(204,204,204);stop-opacity:1"/><stop offset="0.97" style="stop-color:rgb(204,204,204);stop-opacity:1"/><stop offset="1" style="stop-color:rgb(138,138,138);stop-opacity:1"/></linearGradient>
        <linearGradient id="_Linear2" x1="0" y1="0" x2="1" y2="0" gradientUnits="userSpaceOnUse" gradientTransform="matrix(2,0,0,2,7.5,8)"><stop offset="0" style="stop-color:white;stop-opacity:0.2"/><stop offset="1" style="stop-color:white;stop-opacity:0"/></linearGradient>
    </defs>
</svg>
