<?xml version="1.0" encoding="UTF-8" standalone="no"?>
<!DOCTYPE svg PUBLIC "-//W3C//DTD SVG 1.1//EN" "http://www.w3.org/Graphics/SVG/1.1/DTD/svg11.dtd">
<svg width="100%" height="100%" viewBox="0 0 16 16" version="1.1" xmlns="http://www.w3.org/2000/svg" xmlns:xlink="http://www.w3.org/1999/xlink" xml:space="preserve" xmlns:serif="http://www.serif.com/" style="fill-rule:evenodd;clip-rule:evenodd;stroke-linejoin:round;stroke-miterlimit:2;">
    <g id="glight">
        <circle cx="8" cy="8" r="8" style="fill:rgb(229,115,26);"/>
        <path d="M8,0C12.415,0 16,3.585 16,8C16,12.415 12.415,16 8,16C3.585,16 0,12.415 0,8C0,3.585 3.585,0 8,0ZM8,0.5C12.139,0.5 15.5,3.861 15.5,8C15.5,12.139 12.139,15.5 8,15.5C3.861,15.5 0.5,12.139 0.5,8C0.5,3.861 3.861,0.5 8,0.5Z" style="fill:url(#_Linear2);"/>
        <path d="M6.204,6.005C6.466,5.665 6.791,5.337 7.206,5.149C7.565,4.985 8.007,4.906 8.5,4.977C9.215,5.08 9.513,5.807 9.513,6.032C9.513,6.654 9.26,7.247 8.866,7.605C8.508,7.931 7.854,8.472 7.506,9.084C7.278,9.485 7.14,10.244 7.134,11L8.866,11C8.863,10.556 9.058,9.672 9.612,9.251C9.998,8.958 10.768,8.338 11.079,7.767C11.349,7.271 11.498,6.71 11.487,5.968C11.471,5.334 11.24,4.513 10.667,3.925C10.108,3.351 9.243,3.013 8.5,3.023C7.673,3.046 6.977,3.227 6.398,3.536C5.725,3.894 5.195,4.396 4.796,4.995L6.204,6.005Z" style="fill:white;"/>
        <circle cx="8" cy="13" r="1" style="fill:white;"/>
    </g>
    <defs>
        <filter id="_Effect1" filterUnits="userSpaceOnUse" x="-2.35876" y="22.5346" width="20.3241" height="20.3241">
            <feGaussianBlur in="SourceGraphic" stdDeviation="0.5"/>
        </filter>
        <linearGradient id="_Linear2" x1="0" y1="0" x2="1" y2="0" gradientUnits="userSpaceOnUse" gradientTransform="matrix(6.15385,15.3846,-15.3846,6.15385,3.69231,0.615385)"><stop offset="0" style="stop-color:white;stop-opacity:0.3"/><stop offset="1" style="stop-color:white;stop-opacity:0"/></linearGradient>
    </defs>
</svg>
