<?xml version="1.0" encoding="UTF-8" standalone="no"?>
<!DOCTYPE svg PUBLIC "-//W3C//DTD SVG 1.1//EN" "http://www.w3.org/Graphics/SVG/1.1/DTD/svg11.dtd">
<svg width="100%" height="100%" viewBox="0 0 16 16" version="1.1" xmlns="http://www.w3.org/2000/svg" xmlns:xlink="http://www.w3.org/1999/xlink" xml:space="preserve" xmlns:serif="http://www.serif.com/" style="fill-rule:evenodd;clip-rule:evenodd;stroke-linejoin:round;stroke-miterlimit:2;">
    <g id="light">
        <g id="green">
        </g>
        <g id="red">
        </g>
        <g id="gray">
        </g>
        <g id="yellow">
            <path d="M9,2l1.198,0c0.197,0 0.384,0.088 0.508,0.241c0.125,0.152 0.175,0.352 0.137,0.545c-0.186,0.93 -0.494,2.47 -0.682,3.409c-0.094,0.468 -0.505,0.805 -0.982,0.805c-1.48,-0 -4.587,-0 -6.184,-0c-0.55,-0 -0.995,-0.445 -0.995,-0.995c0,-1.419 0,-3.99 0,-5.258c0,-0.412 0.335,-0.747 0.747,-0.747c1.346,0 4.16,0 5.506,0c0.198,0 0.388,0.079 0.528,0.219c0.14,0.14 0.219,0.33 0.219,0.528c0,0.568 0,1.253 0,1.253Zm-1,0l-3.378,0c-0.361,0 -0.673,0.255 -0.744,0.61c-0.211,1.056 -0.622,3.109 -0.622,3.109c0,0 -0.049,0.284 -0.143,0.281c-0.119,-0.003 -0.113,-0.223 -0.113,-0.281c0,-1.055 -0,-4.719 -0,-4.719l5,0l0,1Z" style="fill:rgb(229,115,26);"/>
        </g>
        <g id="icon">
            <path d="M2.5,15l11,0c0.276,-0 0.5,-0.224 0.5,-0.5c-0,-0.276 -0.224,-0.5 -0.5,-0.5l-11,0c-0.276,-0 -0.5,0.224 -0.5,0.5c-0,0.276 0.224,0.5 0.5,0.5Z" style="fill:rgb(72,72,74);"/>
            <path d="M2.5,12l11,0c0.276,0 0.5,-0.224 0.5,-0.5c0,-0.276 -0.224,-0.5 -0.5,-0.5l-11,0c-0.276,0 -0.5,0.224 -0.5,0.5c0,0.276 0.224,0.5 0.5,0.5Z" style="fill:rgb(72,72,74);"/>
            <path d="M2.5,9l11,0c0.276,-0 0.5,-0.224 0.5,-0.5c-0,-0.276 -0.224,-0.5 -0.5,-0.5l-11,0c-0.276,-0 -0.5,0.224 -0.5,0.5c-0,0.276 0.224,0.5 0.5,0.5Z" style="fill:rgb(72,72,74);"/>
            <path d="M11.5,6l2,0c0.276,-0 0.5,-0.224 0.5,-0.5c-0,-0.276 -0.224,-0.5 -0.5,-0.5l-2,0c-0.276,-0 -0.5,0.224 -0.5,0.5c-0,0.276 0.224,0.5 0.5,0.5Z" style="fill:rgb(72,72,74);"/>
        </g>
    </g>
    <g id="menu">
    </g>
</svg>
