<?xml version="1.0" encoding="UTF-8" standalone="no"?>
<!DOCTYPE svg PUBLIC "-//W3C//DTD SVG 1.1//EN" "http://www.w3.org/Graphics/SVG/1.1/DTD/svg11.dtd">
<svg width="100%" height="100%" viewBox="0 0 16 16" version="1.1" xmlns="http://www.w3.org/2000/svg" xmlns:xlink="http://www.w3.org/1999/xlink" xml:space="preserve" xmlns:serif="http://www.serif.com/" style="fill-rule:evenodd;clip-rule:evenodd;stroke-linejoin:round;stroke-miterlimit:2;">
    <g id="light">
        <g id="green">
        </g>
        <g id="red">
        </g>
        <g id="gray">
        </g>
        <g id="yellow">
            <path d="M8,1c3.863,0 7,3.137 7,7c0,3.863 -3.137,7 -7,7c-3.863,0 -7,-3.137 -7,-7c0,-3.863 3.137,-7 7,-7Zm0,10.5c0.404,0 0.733,0.328 0.733,0.733c-0,0.404 -0.329,0.732 -0.733,0.732c-0.404,0 -0.733,-0.328 -0.733,-0.732c0,-0.405 0.329,-0.733 0.733,-0.733Zm-2,-5.965l0,-0c0,-0 0.041,0.003 0.102,-0.011c0.145,-0.03 0.275,-0.124 0.345,-0.266l0.001,-0.002c0.076,-0.132 0.557,-0.721 2.052,-0.721c0.807,-0 1.5,0.693 1.5,1.5c0,0.948 -0.784,1.305 -1.368,1.639c-0.34,0.194 -0.64,0.382 -0.83,0.591c-0.197,0.216 -0.302,0.457 -0.302,0.735l0,1c0,0.276 0.224,0.5 0.5,0.5c0.276,-0 0.5,-0.224 0.5,-0.5l0,-1c0,-0.034 0.031,-0.053 0.057,-0.079c0.037,-0.036 0.08,-0.071 0.127,-0.105c0.225,-0.164 0.526,-0.314 0.825,-0.496c0.762,-0.462 1.491,-1.099 1.491,-2.285c0,-1.345 -1.155,-2.5 -2.5,-2.5c-2.44,-0 -2.954,1.29 -2.954,1.29c-0.116,0.251 -0.006,0.548 0.244,0.664c0.068,0.031 0.14,0.046 0.21,0.046Z" style="fill:rgb(229,115,26);"/>
        </g>
        <g id="icon">
        </g>
    </g>
    <g id="menu">
    </g>
</svg>
