<?xml version="1.0" encoding="UTF-8" standalone="no"?>
<!DOCTYPE svg PUBLIC "-//W3C//DTD SVG 1.1//EN" "http://www.w3.org/Graphics/SVG/1.1/DTD/svg11.dtd">
<svg width="100%" height="100%" viewBox="0 0 16 16" version="1.1" xmlns="http://www.w3.org/2000/svg" xmlns:xlink="http://www.w3.org/1999/xlink" xml:space="preserve" xmlns:serif="http://www.serif.com/" style="fill-rule:evenodd;clip-rule:evenodd;stroke-linejoin:round;stroke-miterlimit:2;">
    <g id="green">
    </g>
    <g id="red">
        <path d="M8.51,8L12,8L12,10.5L15,7.5L12,4.5L12,7L8.5,7C8.224,7 8,7.224 8,7.5C8,7.776 8.224,8 8.5,8C8.503,8 8.507,8 8.51,8Z" style="fill:rgb(144,50,61);"/>
    </g>
    <g id="gray">
    </g>
    <g id="yellow">
    </g>
    <g id="icon">
        <path d="M1,2L9,2L9,6L8,6L8,3L4,3L7,4L7,12L8,12L8,9L9,9L9,13L7,13L7,15L1,13L1,2Z" style="fill:rgb(72,72,74);"/>
    </g>
</svg>
