<?xml version="1.0" encoding="UTF-8" standalone="no"?>
<!DOCTYPE svg PUBLIC "-//W3C//DTD SVG 1.1//EN" "http://www.w3.org/Graphics/SVG/1.1/DTD/svg11.dtd">
<svg width="100%" height="100%" viewBox="0 0 16 16" version="1.1" xmlns="http://www.w3.org/2000/svg" xmlns:xlink="http://www.w3.org/1999/xlink" xml:space="preserve" xmlns:serif="http://www.serif.com/" style="fill-rule:evenodd;clip-rule:evenodd;stroke-linejoin:round;stroke-miterlimit:2;">
    <g id="glight">
        <path d="M9.576,6L7.09,6L7.327,4.582C7.372,4.31 7.188,4.052 6.916,4.007C6.643,3.962 6.386,4.146 6.34,4.418L6.076,6L5,6C4.724,6 4.5,6.224 4.5,6.5C4.5,6.776 4.724,7 5,7L5.91,7L5.576,9L4.5,9C4.224,9 4,9.224 4,9.5C4,9.776 4.224,10 4.5,10L5.41,10L5.173,11.418C5.128,11.69 5.312,11.948 5.584,11.993C5.857,12.039 6.114,11.854 6.16,11.582L6.424,10L8.91,10L8.673,11.418C8.628,11.69 8.812,11.948 9.084,11.993C9.357,12.039 9.614,11.854 9.66,11.582L9.924,10L11,10C11.276,10 11.5,9.776 11.5,9.5C11.5,9.224 11.276,9 11,9L10.09,9L10.424,7L11.5,7C11.776,7 12,6.776 12,6.5C12,6.224 11.776,6 11.5,6L10.59,6L10.827,4.582C10.872,4.31 10.688,4.052 10.416,4.007C10.143,3.962 9.886,4.146 9.84,4.418L9.576,6ZM6.924,7L6.59,9L9.076,9L9.41,7L6.924,7Z" style="fill:rgb(41,121,255);"/>
    </g>
    </svg>
