<?xml version="1.0" encoding="UTF-8" standalone="no"?>
<!DOCTYPE svg PUBLIC "-//W3C//DTD SVG 1.1//EN" "http://www.w3.org/Graphics/SVG/1.1/DTD/svg11.dtd">
<svg width="100%" height="100%" viewBox="0 0 16 16" version="1.1" xmlns="http://www.w3.org/2000/svg" xmlns:xlink="http://www.w3.org/1999/xlink" xml:space="preserve" xmlns:serif="http://www.serif.com/" style="fill-rule:evenodd;clip-rule:evenodd;stroke-linejoin:round;stroke-miterlimit:2;">
    <g id="glight">
        <path d="M16,2C16,1.47 15.789,0.961 15.414,0.586C15.039,0.211 14.53,-0 14,0L2,0C1.47,-0 0.961,0.211 0.586,0.586C0.211,0.961 -0,1.47 0,2L-0,14C-0,14.53 0.211,15.039 0.586,15.414C0.961,15.789 1.47,16 2,16L14,16C14.53,16 15.039,15.789 15.414,15.414C15.789,15.039 16,14.53 16,14L16,2Z" style="fill:rgb(229,115,26);"/>
        <path d="M8.96,4.303L11.5,10.231C11.5,10.231 14.04,4.303 14.04,4.303C14.149,4.049 14.443,3.932 14.697,4.04C14.951,4.149 15.068,4.443 14.96,4.697L11.96,11.697C11.96,11.697 11.814,12 11.5,12C11.186,12 11.04,11.697 11.04,11.697L8.04,4.697C7.932,4.443 8.049,4.149 8.303,4.04C8.557,3.932 8.851,4.049 8.96,4.303Z" style="fill:rgb(229,115,26);"/>
        <path d="M15.308,4L12,12L11,12L7.692,4L9.308,4L11.5,9.481L13.692,4L15.308,4Z" style="fill:white;"/>
        <path d="M3.108,10L5.892,10L6.692,12L8.308,12L5,4L4,4L0.692,12L2.308,12L3.108,10ZM3.508,9L5.492,9L4.5,6.519L3.508,9Z" style="fill:white;"/>
    </g>
    <defs>
        <filter id="_Effect1" filterUnits="userSpaceOnUse" x="21.6412" y="-25.4654" width="20.3241" height="20.3241">
            <feGaussianBlur in="SourceGraphic" stdDeviation="0.5"/>
        </filter>
    </defs>
</svg>
