<?xml version="1.0" encoding="UTF-8" standalone="no"?>
<!DOCTYPE svg PUBLIC "-//W3C//DTD SVG 1.1//EN" "http://www.w3.org/Graphics/SVG/1.1/DTD/svg11.dtd">
<svg width="100%" height="100%" viewBox="0 0 16 16" version="1.1" xmlns="http://www.w3.org/2000/svg" xmlns:xlink="http://www.w3.org/1999/xlink" xml:space="preserve" xmlns:serif="http://www.serif.com/" style="fill-rule:evenodd;clip-rule:evenodd;stroke-linejoin:round;stroke-miterlimit:2;">
    <g id="green">
    </g>
    <g id="red">
    </g>
    <g id="gray">
    </g>
    <g id="yellow">
    </g>
    <g id="icon">
        <path d="M9.812,1.239C8.625,0.92 7.375,0.92 6.188,1.239L6.119,3.099C5.604,3.296 5.124,3.573 4.696,3.92L3.05,3.05C2.181,3.919 1.557,5.001 1.239,6.188L2.815,7.179C2.728,7.723 2.728,8.277 2.815,8.821L1.239,9.812C1.557,10.999 2.181,12.081 3.05,12.95L4.696,12.08C5.124,12.427 5.604,12.704 6.119,12.901L6.188,14.761C7.375,15.08 8.625,15.08 9.812,14.761L9.881,12.901C10.396,12.704 10.876,12.427 11.304,12.08L12.95,12.95C13.819,12.081 14.443,10.999 14.761,9.812L13.185,8.821C13.272,8.277 13.272,7.723 13.185,7.179L14.761,6.188C14.443,5.001 13.819,3.919 12.95,3.05L11.304,3.92C10.876,3.573 10.396,3.296 9.881,3.099L9.812,1.239ZM8,6C9.104,6 10,6.896 10,8C10,9.104 9.104,10 8,10C6.896,10 6,9.104 6,8C6,6.896 6.896,6 8,6Z" style="fill:rgb(72,72,74);"/>
    </g>
</svg>
