<?xml version="1.0" encoding="UTF-8" standalone="no"?>
<!DOCTYPE svg PUBLIC "-//W3C//DTD SVG 1.1//EN" "http://www.w3.org/Graphics/SVG/1.1/DTD/svg11.dtd">
<svg width="100%" height="100%" viewBox="0 0 16 16" version="1.1" xmlns="http://www.w3.org/2000/svg" xmlns:xlink="http://www.w3.org/1999/xlink" xml:space="preserve" xmlns:serif="http://www.serif.com/" style="fill-rule:evenodd;clip-rule:evenodd;stroke-linejoin:round;stroke-miterlimit:2;">
    <g id="light">
        <g id="green">
            <path d="M6,1.751c-0,-0.199 -0.079,-0.39 -0.22,-0.531c-0.141,-0.141 -0.332,-0.22 -0.531,-0.22c-0.944,-0 -2.554,-0 -3.498,-0c-0.199,-0 -0.39,0.079 -0.531,0.22c-0.141,0.141 -0.22,0.332 -0.22,0.531c-0,2.431 -0,10.067 0,12.498c0,0.199 0.079,0.39 0.22,0.531c0.141,0.141 0.332,0.22 0.531,0.22c0.944,0 2.554,0 3.498,0c0.199,0 0.39,-0.079 0.531,-0.22c0.141,-0.141 0.22,-0.332 0.22,-0.531c0,-2.431 0,-10.067 0,-12.498Z" style="fill:rgb(41,121,255);"/>
        </g>
        <g id="red">
        </g>
        <g id="gray">
            <path d="M7,15l0,-5l7.249,0c0.199,-0 0.39,0.079 0.531,0.22c0.141,0.141 0.22,0.332 0.22,0.531c0,0.944 0,2.554 0,3.498c0,0.199 -0.079,0.39 -0.22,0.531c-0.141,0.141 -0.332,0.22 -0.531,0.22c-1.99,-0 -7.249,-0 -7.249,-0Z" style="fill:rgb(114,114,114);"/>
        </g>
        <g id="yellow">
        </g>
        <g id="icon">
            <path d="M9,5l-0,1.019c0,1.65 1.338,2.981 2.989,2.981c0.813,0 1.511,0 1.511,0c0.276,-0 0.5,-0.224 0.5,-0.5c-0,-0.276 -0.224,-0.5 -0.5,-0.5l-1.511,-0c-1.099,-0 -1.989,-0.883 -1.989,-1.981l0,-1.019l2.5,0l-3,-3l-3,3l2.5,0Z" style="fill:rgb(72,72,74);"/>
        </g>
    </g>
    <g id="menu">
    </g>
</svg>
