<?xml version="1.0" encoding="UTF-8" standalone="no"?>
<!DOCTYPE svg PUBLIC "-//W3C//DTD SVG 1.1//EN" "http://www.w3.org/Graphics/SVG/1.1/DTD/svg11.dtd">
<svg width="100%" height="100%" viewBox="0 0 16 16" version="1.1" xmlns="http://www.w3.org/2000/svg" xmlns:xlink="http://www.w3.org/1999/xlink" xml:space="preserve" xmlns:serif="http://www.serif.com/" style="fill-rule:evenodd;clip-rule:evenodd;stroke-linejoin:round;stroke-miterlimit:2;">
    <g id="light">
        <g id="green">
        </g>
        <g id="red">
        </g>
        <g id="gray">
        </g>
        <g id="yellow">
        </g>
        <g id="icon">
            <path d="M16,0.747c-0,-0.412 -0.335,-0.747 -0.747,-0.747l-14.506,0c-0.412,0 -0.747,0.335 -0.747,0.747l0,14.506c0,0.412 0.335,0.747 0.747,0.747l14.506,0c0.412,-0 0.747,-0.335 0.747,-0.747l-0,-14.506Zm-13.313,9.253l3.626,0l0.727,1.697c0.109,0.254 0.403,0.371 0.657,0.263c0.254,-0.109 0.371,-0.403 0.263,-0.657l-3,-7c-0,0 -0.146,-0.303 -0.46,-0.303c-0.314,0 -0.46,0.303 -0.46,0.303l-3,7c-0.108,0.254 0.009,0.548 0.263,0.657c0.254,0.108 0.548,-0.009 0.657,-0.263l0.727,-1.697Zm6.273,-5.697l2.54,5.928c-0,-0 2.54,-5.928 2.54,-5.928c0.109,-0.254 0.403,-0.371 0.657,-0.263c0.254,0.109 0.371,0.403 0.263,0.657l-3,7c-0,-0 -0.146,0.303 -0.46,0.303c-0.314,0 -0.46,-0.303 -0.46,-0.303l-3,-7c-0.108,-0.254 0.009,-0.548 0.263,-0.657c0.254,-0.108 0.548,0.009 0.657,0.263Zm-5.845,4.697l2.77,0l-1.385,-3.231l-1.385,3.231Z" style="fill:rgb(72,72,74);"/>
        </g>
    </g>
    <g id="menu">
    </g>
</svg>
