<?xml version="1.0" encoding="UTF-8" standalone="no"?>
<!DOCTYPE svg PUBLIC "-//W3C//DTD SVG 1.1//EN" "http://www.w3.org/Graphics/SVG/1.1/DTD/svg11.dtd">
<svg width="100%" height="100%" viewBox="0 0 20 20" version="1.1" xmlns="http://www.w3.org/2000/svg" xmlns:xlink="http://www.w3.org/1999/xlink" xml:space="preserve" xmlns:serif="http://www.serif.com/" style="fill-rule:evenodd;clip-rule:evenodd;stroke-linejoin:round;stroke-miterlimit:2;">
    <g id="light">
        <g id="blue">
            <path d="M8,1.749C8,1.55 7.921,1.36 7.781,1.219C7.64,1.079 7.45,1 7.251,1C5.906,1 3.094,1 1.749,1C1.55,1 1.36,1.079 1.219,1.219C1.079,1.36 1,1.55 1,1.749C1,4.675 1,15.325 1,18.251C1,18.45 1.079,18.64 1.219,18.781C1.36,18.921 1.55,19 1.749,19C3.094,19 5.906,19 7.251,19C7.45,19 7.64,18.921 7.781,18.781C7.921,18.64 8,18.45 8,18.251C8,15.325 8,4.675 8,1.749Z" style="fill:rgb(41,121,255);"/>
        </g>
        <g id="yellow">
        </g>
        <g id="red">
        </g>
        <g id="text">
            <path d="M11,6L11,7.502C11,8.43 11.369,9.32 12.024,9.976C12.68,10.631 13.57,11 14.498,11C15.952,11 17.5,11 17.5,11C18.052,11 18.5,10.552 18.5,10C18.5,9.448 18.052,9 17.5,9L14.498,9C14.101,9 13.72,8.842 13.439,8.561C13.158,8.28 13,7.899 13,7.502L13,6C13,6 14.926,6 14.926,6C15.117,6 15.292,5.89 15.375,5.718C15.458,5.545 15.434,5.341 15.315,5.191C14.183,3.776 11.962,1 11.962,1C11.962,1 9.741,3.776 8.609,5.191C8.49,5.341 8.466,5.545 8.549,5.718C8.632,5.89 8.807,6 8.998,6L11,6Z" style="fill:rgb(72,72,74);"/>
            <path d="M9,14L17,14L17,17L9,17L9,19C14.598,19 17.154,19 18.25,19C18.449,19 18.639,18.921 18.78,18.781C18.92,18.64 18.999,18.45 18.999,18.251C18.999,16.906 18.999,14.094 18.999,12.749C18.999,12.335 18.664,12 18.25,12C15.927,12 9,12 9,12L9,14Z" style="fill:rgb(72,72,74);"/>
        </g>
        <g id="working">
        </g>
    </g>
</svg>
