<?xml version="1.0" encoding="UTF-8" standalone="no"?>
<!DOCTYPE svg PUBLIC "-//W3C//DTD SVG 1.1//EN" "http://www.w3.org/Graphics/SVG/1.1/DTD/svg11.dtd">
<svg width="100%" height="100%" viewBox="0 0 16 16" version="1.1" xmlns="http://www.w3.org/2000/svg" xmlns:xlink="http://www.w3.org/1999/xlink" xml:space="preserve" xmlns:serif="http://www.serif.com/" style="fill-rule:evenodd;clip-rule:evenodd;stroke-linejoin:round;stroke-miterlimit:2;">
    <g id="light">
        </g>
    <g id="Layer1">
        <path d="M7.998,8C8.552,8 9,8.448 9,9.002L9,14.998C9,15.552 8.552,16 7.998,16C6.266,16 2.731,16 1,16C0.735,16 0.481,15.895 0.293,15.707C0.105,15.519 -0,15.265 -0,15C-0,13.463 -0,10.537 -0,9C-0,8.735 0.105,8.481 0.293,8.293C0.481,8.105 0.735,8 1,8C2.731,8 6.266,8 7.998,8Z" style="fill:rgb(188,192,200);"/>
        <path d="M7.998,8C8.552,8 9,8.448 9,9.002L9,14.998C9,15.552 8.552,16 7.998,16C6.266,16 2.731,16 1,16C0.735,16 0.481,15.895 0.293,15.707C0.105,15.519 -0,15.265 -0,15C-0,13.463 -0,10.537 -0,9C-0,8.735 0.105,8.481 0.293,8.293C0.481,8.105 0.735,8 1,8C2.731,8 6.266,8 7.998,8ZM7.998,8.5C8.275,8.5 8.5,8.725 8.5,9.002L8.5,14.998C8.5,15.275 8.275,15.5 7.998,15.5C6.266,15.5 2.731,15.5 1,15.5C0.868,15.5 0.74,15.447 0.647,15.353C0.553,15.26 0.5,15.132 0.5,15L0.5,9C0.5,8.868 0.553,8.74 0.647,8.647C0.74,8.553 0.868,8.5 1,8.5L7.998,8.5Z" style="fill:rgb(181,185,192);"/>
        <g id="move_shadow2" serif:id="move_shadow">
            <clipPath id="_clip1">
                <path d="M7.993,8C8.549,8 9,8.451 9,9.007C9,10.544 9,13.456 9,14.993C9,15.549 8.549,16 7.993,16C6.258,16 2.729,16 1,16C0.735,16 0.481,15.895 0.293,15.707C0.105,15.519 -0,15.265 -0,15C-0,13.463 -0,10.537 -0,9C-0,8.735 0.105,8.481 0.293,8.293C0.481,8.105 0.735,8 1,8C2.729,8 6.258,8 7.993,8Z"/>
            </clipPath>
            <g clip-path="url(#_clip1)">
                <g opacity="0.5">
                    <g style="filter:url(#_Effect2);">
                        <path d="M7,9C7,8.735 7.105,8.481 7.293,8.293C7.481,8.105 7.735,8 8,8C9.732,8 13.268,8 15,8C15.265,8 15.519,8.105 15.707,8.293C15.895,8.481 16,8.735 16,9C16,10.537 16,13.463 16,15C16,15.265 15.895,15.519 15.707,15.707C15.519,15.895 15.265,16 15,16C13.268,16 9.732,16 8,16C7.735,16 7.481,15.895 7.293,15.707C7.105,15.519 7,15.265 7,15C7,13.463 7,10.537 7,9Z"/>
                    </g>
                </g>
            </g>
        </g>
        <path d="M7,9C7,8.735 7.105,8.481 7.293,8.293C7.481,8.105 7.735,8 8,8C9.732,8 13.268,8 15,8C15.265,8 15.519,8.105 15.707,8.293C15.895,8.481 16,8.735 16,9C16,10.537 16,13.463 16,15C16,15.265 15.895,15.519 15.707,15.707C15.519,15.895 15.265,16 15,16C13.268,16 9.732,16 8,16C7.735,16 7.481,15.895 7.293,15.707C7.105,15.519 7,15.265 7,15C7,13.463 7,10.537 7,9Z" style="fill:rgb(41,121,255);"/>
        <path d="M13,2L13,0L16,3L13,6L13,4L8,4L8,2L13,2Z" style="fill:rgb(72,72,74);"/>
        <path d="M7,9C7,8.735 7.105,8.481 7.293,8.293C7.481,8.105 7.735,8 8,8L9,8L9,8.5L7.994,8.5C7.721,8.5 7.5,8.721 7.5,8.994L7.5,15.006C7.5,15.279 7.721,15.5 7.994,15.5L9,15.5L9,16L8,16C7.735,16 7.481,15.895 7.293,15.707C7.105,15.519 7,15.265 7,15L7,9Z" style="fill:url(#_Linear3);"/>
        </g>
    <defs>
        <filter id="_Effect2" filterUnits="userSpaceOnUse" x="-5" y="-4" width="33" height="32">
            <feGaussianBlur in="SourceGraphic" stdDeviation="2"/>
        </filter>
        <linearGradient id="_Linear3" x1="0" y1="0" x2="1" y2="0" gradientUnits="userSpaceOnUse" gradientTransform="matrix(-1.28588e-15,-7,7,-1.28588e-15,7.5,15.5)"><stop offset="0" style="stop-color:white;stop-opacity:0"/><stop offset="0.25" style="stop-color:white;stop-opacity:0.3"/><stop offset="0.75" style="stop-color:white;stop-opacity:0.3"/><stop offset="1" style="stop-color:white;stop-opacity:0"/></linearGradient>
    </defs>
</svg>
