<?xml version="1.0" encoding="UTF-8" standalone="no"?>
<!DOCTYPE svg PUBLIC "-//W3C//DTD SVG 1.1//EN" "http://www.w3.org/Graphics/SVG/1.1/DTD/svg11.dtd">
<svg width="100%" height="100%" viewBox="0 0 20 20" version="1.1" xmlns="http://www.w3.org/2000/svg" xmlns:xlink="http://www.w3.org/1999/xlink" xml:space="preserve" xmlns:serif="http://www.serif.com/" style="fill-rule:evenodd;clip-rule:evenodd;stroke-linejoin:round;stroke-miterlimit:2;">
    <g id="light">
        <g id="blue">
        </g>
        <g id="yellow">
        </g>
        <g id="red">
        </g>
        <g id="text">
            <path d="M13.376,9.721C12.25,10.077 11.023,9.662 10.346,8.695C8.642,6.274 6,2.5 6,2.5C6,2.5 5.827,2.621 5.594,2.784C5.267,3.013 5.045,3.362 4.975,3.755C4.906,4.148 4.996,4.552 5.225,4.879C7.372,7.946 12.798,15.695 12.965,15.934C13.915,17.291 15.787,17.621 17.144,16.671C18.5,15.721 18.83,13.849 17.88,12.493C17.671,12.195 16.942,11.153 16.733,10.855C15.985,9.786 14.663,9.354 13.472,9.684C13.447,9.692 13.414,9.704 13.376,9.721ZM9.39,12.571L7.035,15.934C6.085,17.291 4.213,17.621 2.856,16.671C1.5,15.721 1.17,13.849 2.12,12.493C2.329,12.195 3.058,11.153 3.267,10.855C4.015,9.786 5.337,9.354 6.528,9.684C6.553,9.692 6.586,9.704 6.624,9.721C6.907,9.81 7.196,9.851 7.482,9.847L9.39,12.571ZM14.604,14.787C14.395,14.489 13.665,13.447 13.457,13.149C13.14,12.697 13.25,12.073 13.702,11.756C14.154,11.44 14.778,11.55 15.095,12.002C15.304,12.3 16.033,13.342 16.242,13.64C16.559,14.092 16.449,14.716 15.996,15.033C15.544,15.349 14.92,15.239 14.604,14.787ZM5.396,14.787C5.605,14.489 6.335,13.447 6.543,13.149C6.86,12.697 6.75,12.073 6.298,11.756C5.846,11.44 5.222,11.55 4.905,12.002C4.696,12.3 3.967,13.342 3.758,13.64C3.441,14.092 3.551,14.716 4.004,15.033C4.456,15.349 5.08,15.239 5.396,14.787ZM10.611,7.333C12.198,5.073 14,2.5 14,2.5C14,2.5 14.173,2.621 14.406,2.784C14.733,3.013 14.955,3.362 15.025,3.755C15.094,4.148 15.004,4.552 14.775,4.879L12.052,8.769C11.701,8.66 11.386,8.437 11.165,8.121L10.611,7.333Z" style="fill:rgb(72,72,74);"/>
        </g>
        <g id="working">
        </g>
    </g>
</svg>
