<?xml version="1.0" encoding="UTF-8" standalone="no"?>
<!DOCTYPE svg PUBLIC "-//W3C//DTD SVG 1.1//EN" "http://www.w3.org/Graphics/SVG/1.1/DTD/svg11.dtd">
<svg width="100%" height="100%" viewBox="0 0 16 16" version="1.1" xmlns="http://www.w3.org/2000/svg" xmlns:xlink="http://www.w3.org/1999/xlink" xml:space="preserve" xmlns:serif="http://www.serif.com/" style="fill-rule:evenodd;clip-rule:evenodd;stroke-linejoin:round;stroke-miterlimit:2;">
    <g id="green">
    </g>
    <g id="red">
    </g>
    <g id="gray">
    </g>
    <g id="yellow">
        <path d="M11,2L11,3L13,3L13,8L3,8L3,3L5,3L5,2L2,2L2,15L14,15L14,2L11,2Z" style="fill:rgb(229,115,26);"/>
    </g>
    <g id="icon">
        <path d="M6,1.987C6.007,0.889 6.9,-0 8,0C9.104,0 10,0.896 10,2L10,4L12,4L12,7L4,7L4,4L6,4L6,1.987ZM8,1C8.552,1 9,1.448 9,2C9,2.552 8.552,3 8,3C7.448,3 7,2.552 7,2C7,1.448 7.448,1 8,1Z" style="fill:rgb(72,72,74);"/>
    </g>
</svg>
