<?xml version="1.0" encoding="UTF-8" standalone="no"?>
<!DOCTYPE svg PUBLIC "-//W3C//DTD SVG 1.1//EN" "http://www.w3.org/Graphics/SVG/1.1/DTD/svg11.dtd">
<svg width="100%" height="100%" viewBox="0 0 20 20" version="1.1" xmlns="http://www.w3.org/2000/svg" xmlns:xlink="http://www.w3.org/1999/xlink" xml:space="preserve" xmlns:serif="http://www.serif.com/" style="fill-rule:evenodd;clip-rule:evenodd;stroke-linejoin:round;stroke-miterlimit:2;">
    <g id="light">
        <g id="blue">
        </g>
        <g id="yellow">
        </g>
        <g id="red">
            <path d="M5.5,4.086L2.707,1.293C2.317,0.903 1.683,0.903 1.293,1.293C0.903,1.683 0.903,2.317 1.293,2.707L4.086,5.5L1.293,8.293C0.903,8.683 0.903,9.317 1.293,9.707C1.683,10.097 2.317,10.097 2.707,9.707L5.5,6.914L8.293,9.707C8.683,10.097 9.317,10.097 9.707,9.707C10.097,9.317 10.097,8.683 9.707,8.293L6.914,5.5L9.707,2.707C10.097,2.317 10.097,1.683 9.707,1.293C9.317,0.903 8.683,0.903 8.293,1.293L5.5,4.086Z" style="fill:rgb(144,50,61);"/>
        </g>
        <g id="text">
            <path d="M2,14L18,14C18.552,14 19,13.552 19,13C19,12.448 18.552,12 18,12L2,12C1.448,12 1,12.448 1,13C1,13.552 1.448,14 2,14Z" style="fill:rgb(72,72,74);"/>
            <path d="M12,10L18,10C18.552,10 19,9.552 19,9C19,8.448 18.552,8 18,8L12,8C11.448,8 11,8.448 11,9C11,9.552 11.448,10 12,10Z" style="fill:rgb(72,72,74);"/>
            <path d="M2,18L18,18C18.552,18 19,17.552 19,17C19,16.448 18.552,16 18,16L2,16C1.448,16 1,16.448 1,17C1,17.552 1.448,18 2,18Z" style="fill:rgb(72,72,74);"/>
        </g>
        <g id="working">
        </g>
    </g>
</svg>
