<?xml version="1.0" encoding="UTF-8" standalone="no"?>
<!DOCTYPE svg PUBLIC "-//W3C//DTD SVG 1.1//EN" "http://www.w3.org/Graphics/SVG/1.1/DTD/svg11.dtd">
<svg width="100%" height="100%" viewBox="0 0 16 16" version="1.1" xmlns="http://www.w3.org/2000/svg" xmlns:xlink="http://www.w3.org/1999/xlink" xml:space="preserve" xmlns:serif="http://www.serif.com/" style="fill-rule:evenodd;clip-rule:evenodd;stroke-linejoin:round;stroke-miterlimit:2;">
    <g transform="matrix(1,0,0,1,-48,-120)">
        <path d="M64,120L48,120L48,136L64,136L64,120ZM50.687,130L54.313,130L55.04,131.697C55.149,131.951 55.443,132.068 55.697,131.96C55.951,131.851 56.068,131.557 55.96,131.303L52.96,124.303C52.96,124.303 52.814,124 52.5,124C52.186,124 52.04,124.303 52.04,124.303L49.04,131.303C48.932,131.557 49.049,131.851 49.303,131.96C49.557,132.068 49.851,131.951 49.96,131.697L50.687,130ZM56.96,124.303L59.5,130.231C59.5,130.231 62.04,124.303 62.04,124.303C62.149,124.049 62.443,123.932 62.697,124.04C62.951,124.149 63.068,124.443 62.96,124.697L59.96,131.697C59.96,131.697 59.814,132 59.5,132C59.186,132 59.04,131.697 59.04,131.697L56.04,124.697C55.932,124.443 56.049,124.149 56.303,124.04C56.557,123.932 56.851,124.049 56.96,124.303ZM51.115,129L53.885,129L52.5,125.769L51.115,129Z" style="fill:rgb(114,114,114);"/>
        <g id="green_dark">
        </g>
        <g id="red_dark">
        </g>
        <g id="gray_dark">
        </g>
        <g id="yellow_dark">
        </g>
        <g id="icon_dark">
        </g>
    </g>
</svg>
