<?xml version="1.0" encoding="UTF-8" standalone="no"?>
<!DOCTYPE svg PUBLIC "-//W3C//DTD SVG 1.1//EN" "http://www.w3.org/Graphics/SVG/1.1/DTD/svg11.dtd">
<svg width="100%" height="100%" viewBox="0 0 16 16" version="1.1" xmlns="http://www.w3.org/2000/svg" xmlns:xlink="http://www.w3.org/1999/xlink" xml:space="preserve" xmlns:serif="http://www.serif.com/" style="fill-rule:evenodd;clip-rule:evenodd;stroke-linejoin:round;stroke-miterlimit:2;">
    <g id="glight">
        <path d="M0,14.471C0,14.809 0.17,15.123 0.453,15.308C0.735,15.493 1.092,15.522 1.401,15.387C5.301,13.681 16,9 16,9L0,9L0,14.471Z" style="fill:rgb(188,192,200);"/>
        <path d="M0,14.471C0,14.809 0.17,15.123 0.453,15.308C0.735,15.493 1.092,15.522 1.401,15.387C5.301,13.681 16,9 16,9L0,9L0,14.471ZM0.5,14.471L0.5,9.5C0.5,9.5 13.61,9.5 13.61,9.5C13.61,9.5 1.2,14.929 1.2,14.929C1.046,14.997 0.867,14.982 0.726,14.889C0.585,14.797 0.5,14.64 0.5,14.471Z" style="fill:rgb(181,185,192);"/>
        <path d="M0,1.529C0,1.191 0.17,0.877 0.453,0.692C0.735,0.507 1.092,0.478 1.401,0.613C5.301,2.319 16,7 16,7L0,7L0,1.529Z" style="fill:rgb(41,121,255);"/>
        </g>
    </svg>
