<?xml version="1.0" encoding="UTF-8" standalone="no"?>
<!DOCTYPE svg PUBLIC "-//W3C//DTD SVG 1.1//EN" "http://www.w3.org/Graphics/SVG/1.1/DTD/svg11.dtd">
<svg width="100%" height="100%" viewBox="0 0 16 16" version="1.1" xmlns="http://www.w3.org/2000/svg" xmlns:xlink="http://www.w3.org/1999/xlink" xml:space="preserve" xmlns:serif="http://www.serif.com/" style="fill-rule:evenodd;clip-rule:evenodd;stroke-linejoin:round;stroke-miterlimit:2;">
    <g id="light">
        <g id="green">
            <path d="M10.308,11.015l3.338,3.339c0.196,0.195 0.512,0.195 0.708,-0c0.195,-0.196 0.195,-0.512 -0,-0.708l-3.339,-3.338c0.616,-0.77 0.985,-1.746 0.985,-2.808c0,-2.484 -2.016,-4.5 -4.5,-4.5c-2.484,0 -4.5,2.016 -4.5,4.5c0,2.484 2.016,4.5 4.5,4.5c1.062,0 2.038,-0.369 2.808,-0.985Zm-3.308,-4.015l-1.5,-0c-0.276,-0 -0.5,0.224 -0.5,0.5c-0,0.276 0.224,0.5 0.5,0.5l1.5,0l-0,1.5c-0,0.276 0.224,0.5 0.5,0.5c0.276,0 0.5,-0.224 0.5,-0.5l-0,-1.5l1.5,0c0.276,-0 0.5,-0.224 0.5,-0.5c-0,-0.276 -0.224,-0.5 -0.5,-0.5l-1.5,0l-0,-1.5c-0,-0.276 -0.224,-0.5 -0.5,-0.5c-0.276,0 -0.5,0.224 -0.5,0.5l-0,1.5Z" style="fill:rgb(41,121,255);"/>
        </g>
        <g id="red">
        </g>
        <g id="gray">
        </g>
        <g id="yellow">
        </g>
        <g id="icon">
        </g>
    </g>
    <g id="menu">
    </g>
</svg>
