<?xml version="1.0" encoding="UTF-8" standalone="no"?>
<!DOCTYPE svg PUBLIC "-//W3C//DTD SVG 1.1//EN" "http://www.w3.org/Graphics/SVG/1.1/DTD/svg11.dtd">
<svg width="100%" height="100%" viewBox="0 0 16 16" version="1.1" xmlns="http://www.w3.org/2000/svg" xmlns:xlink="http://www.w3.org/1999/xlink" xml:space="preserve" xmlns:serif="http://www.serif.com/" style="fill-rule:evenodd;clip-rule:evenodd;stroke-linejoin:round;stroke-miterlimit:2;">
    <g id="glight">
        <path d="M14,16C14.53,16 15.039,15.789 15.414,15.414C15.789,15.039 16,14.53 16,14L16,2C16,1.47 15.789,0.961 15.414,0.586C15.039,0.211 14.53,-0 14,-0C10.926,-0 5.074,-0 2,-0C1.47,-0 0.961,0.211 0.586,0.586C0.211,0.961 -0,1.47 0,2C0,5.074 0,10.926 0,14C-0,14.53 0.211,15.039 0.586,15.414C0.961,15.789 1.47,16 2,16L14,16Z" style="fill:rgb(229,115,26);"/>
        <g style="filter:url(#_Effect1);">
            <path d="M4.091,9.934L10.993,3.032C11.477,2.548 12.235,2.522 12.687,2.974C12.957,3.244 13.256,3.543 13.526,3.813C13.978,4.265 13.952,5.023 13.468,5.507L6.566,12.409C6.566,12.409 2.5,14 2.5,14L4.091,9.934Z" style="fill-opacity:0.3;"/>
        </g>
        <path d="M10.101,3.424L10.993,2.532C11.477,2.048 12.235,2.022 12.687,2.474C12.957,2.744 13.256,3.043 13.526,3.313C13.978,3.765 13.952,4.523 13.468,5.007L12.576,5.899L10.101,3.424Z" style="fill:rgb(144,50,61);"/>
        <path d="M4.091,9.434L8.334,5.191L10.809,7.666L6.566,11.909L4.091,9.434Z" style="fill:rgb(41,121,255);"/>
        <path d="M2.5,13.5L6.566,11.909L4.091,9.434L2.5,13.5Z" style="fill:rgb(217,216,208);"/>
        <path d="M8.334,5.191L10.101,3.424L12.576,5.899L10.809,7.666L8.334,5.191Z" style="fill:rgb(188,192,200);"/>
        <path d="M4.091,9.434L10.993,2.532C11.477,2.048 12.235,2.022 12.687,2.474C12.957,2.744 13.256,3.043 13.526,3.313C13.978,3.765 13.952,4.523 13.468,5.007L6.566,11.909C6.566,11.909 2.5,13.5 2.5,13.5L4.091,9.434ZM6.153,11.497L13.055,4.595C13.295,4.355 13.308,3.979 13.084,3.755C13.084,3.755 12.651,3.321 12.651,3.321C12.427,3.097 12.051,3.11 11.811,3.35L4.909,10.252C4.909,10.252 3.759,12.241 3.759,12.241C3.759,12.241 6.153,11.497 6.153,11.497Z" style="fill:url(#_Linear2);"/>
        <path d="M2.5,13.5L4.533,12.705L3.295,11.467L2.5,13.5Z" style="fill:rgb(72,72,74);"/>
        <path d="M4.091,9.434L10.993,2.532C11.477,2.048 12.235,2.022 12.687,2.474C12.957,2.744 13.256,3.043 13.526,3.313C13.978,3.765 13.952,4.523 13.468,5.007L6.566,11.909C6.566,11.909 2.5,13.5 2.5,13.5L4.091,9.434Z" style="fill:url(#_Linear3);"/>
    </g>
    <defs>
        <filter id="_Effect1" filterUnits="userSpaceOnUse" x="-2.35876" y="-1.46536" width="20.3241" height="20.3241">
            <feGaussianBlur in="SourceGraphic" stdDeviation="0.5"/>
        </filter>
        <linearGradient id="_Linear2" x1="0" y1="0" x2="1" y2="0" gradientUnits="userSpaceOnUse" gradientTransform="matrix(-1.36435,-1.36435,-0.313244,0.313244,8.8844,7.5125)"><stop offset="0" style="stop-color:white;stop-opacity:0"/><stop offset="1" style="stop-color:white;stop-opacity:0.2"/></linearGradient>
        <linearGradient id="_Linear3" x1="0" y1="0" x2="1" y2="0" gradientUnits="userSpaceOnUse" gradientTransform="matrix(2.47487,2.47487,0.611919,-0.611919,7.00781,6.51732)"><stop offset="0" style="stop-color:white;stop-opacity:0"/><stop offset="0.5" style="stop-color:white;stop-opacity:0.3"/><stop offset="1" style="stop-color:white;stop-opacity:0"/></linearGradient>
    </defs>
</svg>
