<?xml version="1.0" encoding="UTF-8" standalone="no"?>
<!DOCTYPE svg PUBLIC "-//W3C//DTD SVG 1.1//EN" "http://www.w3.org/Graphics/SVG/1.1/DTD/svg11.dtd">
<svg width="100%" height="100%" viewBox="0 0 16 16" version="1.1" xmlns="http://www.w3.org/2000/svg" xmlns:xlink="http://www.w3.org/1999/xlink" xml:space="preserve" xmlns:serif="http://www.serif.com/" style="fill-rule:evenodd;clip-rule:evenodd;stroke-linejoin:round;stroke-miterlimit:2;">
    <g id="light">
        <g id="green">
            <path d="M12,9l-2.057,-0c-1.371,-0 -2.567,0.933 -2.899,2.264l-0.028,0.114c-0.01,0.036 -0.016,0.079 -0.016,0.122c0,0.276 0.224,0.5 0.5,0.5c0,-0 0.405,-0.058 0.514,-0.494l-0,0c0.221,-0.885 1.017,-1.506 1.929,-1.506l2.057,-0l0,2.5l3,-3l-3,-3l0,2.5Z" style="fill:rgb(41,121,255);"/>
        </g>
        <g id="red">
        </g>
        <g id="gray">
        </g>
        <g id="yellow">
        </g>
        <g id="icon">
            <path d="M13,12.914l-0.293,0.293c-0.286,0.286 -0.716,0.372 -1.09,0.217c-0.373,-0.155 -0.617,-0.52 -0.617,-0.924c0,0 0,-1.5 -0,-1.5c-0,-0 -1.057,-0 -1.057,-0c-0.454,-0 -0.849,0.309 -0.959,0.749c-0,-0 -0,-0 -0,-0c-0.297,1.188 -1.484,1.251 -1.484,1.251c-0.828,-0 -1.5,-0.672 -1.5,-1.5c0,-0.128 0.017,-0.252 0.045,-0.362l0.029,-0.117c0.443,-1.775 2.039,-3.021 3.869,-3.021l1.057,-0l0,-1.5c-0,-0.404 0.244,-0.769 0.617,-0.924c0.374,-0.155 0.804,-0.069 1.09,0.217l0.293,0.293l0,-1.586l-3.5,-3.5l-5.75,0c-0.414,-0 -0.75,0.336 -0.75,0.75c0,2.43 -0,10.07 0,12.5c0,0.199 0.079,0.39 0.22,0.53c0.14,0.141 0.331,0.22 0.53,0.22c1.856,0 6.644,0 8.5,0c0.199,0 0.39,-0.079 0.53,-0.22c0.141,-0.14 0.22,-0.331 0.22,-0.53c0,-0.598 0,-1.336 0,-1.336Zm-1,-7.914l-3,-3l0,3l3,0Z" style="fill:rgb(72,72,74);"/>
        </g>
    </g>
    <g id="menu">
    </g>
</svg>
