<?xml version="1.0" encoding="UTF-8" standalone="no"?>
<!DOCTYPE svg PUBLIC "-//W3C//DTD SVG 1.1//EN" "http://www.w3.org/Graphics/SVG/1.1/DTD/svg11.dtd">
<svg width="100%" height="100%" viewBox="0 0 16 16" version="1.1" xmlns="http://www.w3.org/2000/svg" xmlns:xlink="http://www.w3.org/1999/xlink" xml:space="preserve" xmlns:serif="http://www.serif.com/" style="fill-rule:evenodd;clip-rule:evenodd;stroke-linejoin:round;stroke-miterlimit:2;">
    <g id="glight">
        <path d="M8,3L16,3L16,15C16,15.265 15.895,15.519 15.707,15.707C15.519,15.895 15.265,16 15,16C13.463,16 10.537,16 9,16C8.735,16 8.481,15.895 8.293,15.707C8.105,15.519 8,15.265 8,15C8,11.954 8,3 8,3Z" style="fill:rgb(188,192,200);"/>
        <path d="M8,3L16,3L16,15C16,15.265 15.895,15.519 15.707,15.707C15.519,15.895 15.265,16 15,16C13.463,16 10.537,16 9,16C8.735,16 8.481,15.895 8.293,15.707C8.105,15.519 8,15.265 8,15C8,11.954 8,3 8,3ZM8.5,3.5L15.5,3.5C15.5,3.5 15.5,15 15.5,15C15.5,15.132 15.447,15.26 15.353,15.353C15.26,15.447 15.132,15.5 15,15.5L9,15.5C8.868,15.5 8.74,15.447 8.647,15.353C8.553,15.26 8.5,15.132 8.5,15L8.5,3.5Z" style="fill:rgb(181,185,192);"/>
        <g id="rotate_ccw_shadow">
            <clipPath id="_clip1">
                <path d="M8,3L16,3L16,15C16,15.265 15.895,15.519 15.707,15.707C15.519,15.895 15.265,16 15,16C13.463,16 10.537,16 9,16C8.735,16 8.481,15.895 8.293,15.707C8.105,15.519 8,15.265 8,15C8,11.954 8,3 8,3Z"/>
            </clipPath>
            <g clip-path="url(#_clip1)">
                <g opacity="0.5">
                    <g style="filter:url(#_Effect2);">
                        <path d="M1,9C0.735,9 0.481,8.895 0.293,8.707C0.105,8.519 -0,8.265 0,8C0,6.463 0,3.537 0,2C-0,1.735 0.105,1.481 0.293,1.293C0.481,1.105 0.735,1 1,1C3.873,1 12.127,1 15,1C15.265,1 15.519,1.105 15.707,1.293C15.895,1.481 16,1.735 16,2C16,3.537 16,6.463 16,8C16,8.265 15.895,8.519 15.707,8.707C15.519,8.895 15.265,9 15,9C12.127,9 3.873,9 1,9Z"/>
                    </g>
                </g>
            </g>
        </g>
        <path d="M1,8C0.735,8 0.481,7.895 0.293,7.707C0.105,7.519 -0,7.265 0,7C0,5.463 0,2.537 0,1C-0,0.735 0.105,0.481 0.293,0.293C0.481,0.105 0.735,0 1,-0C3.873,-0 12.127,-0 15,-0C15.265,0 15.519,0.105 15.707,0.293C15.895,0.481 16,0.735 16,1C16,2.537 16,5.463 16,7C16,7.265 15.895,7.519 15.707,7.707C15.519,7.895 15.265,8 15,8C12.127,8 3.873,8 1,8Z" style="fill:rgb(41,121,255);"/>
        <path d="M15.5,6L16,6L16,7C16,7.265 15.895,7.519 15.707,7.707C15.519,7.895 15.265,8 15,8L8,8L8,7.5L15.006,7.5C15.279,7.5 15.5,7.279 15.5,7.006L15.5,6Z" style="fill:url(#_Linear3);"/>
        <path d="M3.5,13L3.5,15L0.5,12L3.5,9L3.5,11L4,11C7.313,11 6.5,15.5 6.5,15.5C6.5,15.5 6.338,13 4,13L3.5,13Z" style="fill:rgb(72,72,74);"/>
        </g>
    <defs>
        <filter id="_Effect2" filterUnits="userSpaceOnUse" x="-12" y="-11" width="40" height="32">
            <feGaussianBlur in="SourceGraphic" stdDeviation="2"/>
        </filter>
        <linearGradient id="_Linear3" x1="0" y1="0" x2="1" y2="0" gradientUnits="userSpaceOnUse" gradientTransform="matrix(-7.5,0,0,30,15.5,8)"><stop offset="0" style="stop-color:white;stop-opacity:0"/><stop offset="0.25" style="stop-color:white;stop-opacity:0.15"/><stop offset="0.75" style="stop-color:white;stop-opacity:0.15"/><stop offset="1" style="stop-color:white;stop-opacity:0"/></linearGradient>
    </defs>
</svg>
