<?xml version="1.0" encoding="UTF-8" standalone="no"?>
<!DOCTYPE svg PUBLIC "-//W3C//DTD SVG 1.1//EN" "http://www.w3.org/Graphics/SVG/1.1/DTD/svg11.dtd">
<svg width="100%" height="100%" viewBox="0 0 20 20" version="1.1" xmlns="http://www.w3.org/2000/svg" xmlns:xlink="http://www.w3.org/1999/xlink" xml:space="preserve" xmlns:serif="http://www.serif.com/" style="fill-rule:evenodd;clip-rule:evenodd;stroke-linejoin:round;stroke-miterlimit:2;">
    <g id="light">
        <g id="blue">
            <path d="M1.749,2C1.551,2 1.36,2.079 1.22,2.22C1.079,2.36 1,2.551 1,2.749C1,4.275 1,7.725 1,9.251C1,9.449 1.079,9.64 1.22,9.78C1.36,9.921 1.551,10 1.749,10C3.444,10 7.556,10 9.251,10C9.449,10 9.64,9.921 9.78,9.78C9.921,9.64 10,9.449 10,9.251C10,7.725 10,4.275 10,2.749C10,2.551 9.921,2.36 9.78,2.22C9.64,2.079 9.449,2 9.251,2C7.556,2 3.444,2 1.749,2Z" style="fill:rgb(41,121,255);"/>
        </g>
        <g id="yellow">
        </g>
        <g id="red">
        </g>
        <g id="text">
            <path d="M9,13.962L15,13.962C15.552,13.962 16,14.41 16,14.962C16,15.514 15.552,15.962 15,15.962L9,15.962L9,17.964C9,18.155 8.89,18.33 8.718,18.413C8.545,18.496 8.341,18.472 8.191,18.353C6.776,17.221 4,15 4,15C4,15 6.776,12.779 8.191,11.647C8.341,11.528 8.545,11.504 8.718,11.587C8.89,11.67 9,11.845 9,12.036L9,13.962Z" style="fill:rgb(72,72,74);"/>
            <path d="M11,10L11,8L17,8L17,4L11,4L11,2C11,2 16.261,2 18.251,2C18.449,2 18.64,2.079 18.78,2.22C18.921,2.36 19,2.551 19,2.749L19,9.251C19,9.449 18.921,9.64 18.78,9.78C18.64,9.921 18.449,10 18.251,10C16.261,10 11,10 11,10Z" style="fill:rgb(72,72,74);"/>
        </g>
        <g id="working">
        </g>
    </g>
</svg>
