<?xml version="1.0" encoding="UTF-8" standalone="no"?>
<!DOCTYPE svg PUBLIC "-//W3C//DTD SVG 1.1//EN" "http://www.w3.org/Graphics/SVG/1.1/DTD/svg11.dtd">
<svg width="100%" height="100%" viewBox="0 0 16 16" version="1.1" xmlns="http://www.w3.org/2000/svg" xmlns:xlink="http://www.w3.org/1999/xlink" xml:space="preserve" xmlns:serif="http://www.serif.com/" style="fill-rule:evenodd;clip-rule:evenodd;stroke-linejoin:round;stroke-miterlimit:2;">
    <g id="light">
        </g>
    <g id="Layer1">
        <path d="M5.916,9.162C5.64,9.641 5.029,9.805 4.55,9.529C4.55,9.529 4.55,9.529 4.55,9.528C3.355,8.839 1.839,9.224 1.167,10.389C1.024,10.636 0.496,11.55 0.354,11.797C-0.319,12.962 0.105,14.468 1.3,15.158C2.495,15.848 4.012,15.462 4.684,14.297L6.928,10.41C7.117,10.083 7.38,9.804 7.695,9.596C7.98,9.408 8.34,9.17 8.622,8.984C8.921,8.786 9.155,8.503 9.292,8.171C9.73,7.109 10.753,4.626 11.399,3.059C11.746,2.218 11.583,1.254 10.98,0.574C10.94,0.529 10.916,0.502 10.916,0.502C10.916,0.502 7.272,6.814 5.916,9.162ZM3.385,13.547C3.528,13.3 4.055,12.386 4.198,12.139C4.462,11.682 4.269,11.098 3.8,10.828C3.331,10.557 2.73,10.682 2.466,11.139C2.323,11.386 1.796,12.3 1.653,12.547C1.389,13.004 1.581,13.588 2.05,13.859C2.519,14.129 3.121,14.004 3.385,13.547Z" style="fill:rgb(188,192,200);"/>
        <path d="M10.974,0.568C10.943,0.721 10.927,0.876 10.92,0.953L10.916,1.002L10.687,0.899L5.916,9.162C5.64,9.641 5.029,9.805 4.55,9.529C4.55,9.529 4.55,9.529 4.55,9.528C3.355,8.839 1.839,9.224 1.167,10.389C1.024,10.636 0.496,11.55 0.354,11.797C-0.319,12.962 0.105,14.468 1.3,15.158C2.495,15.848 4.012,15.462 4.684,14.297L6.928,10.41C7.117,10.083 7.38,9.804 7.695,9.596C7.98,9.408 8.34,9.17 8.622,8.984C8.921,8.786 9.155,8.503 9.292,8.171C9.73,7.109 10.753,4.626 11.399,3.059C11.746,2.218 11.583,1.254 10.98,0.574L10.974,0.568ZM10.944,1.454C11.123,1.901 11.127,2.408 10.937,2.868C10.937,2.868 8.829,7.98 8.829,7.98C8.731,8.22 8.562,8.424 8.346,8.567C8.346,8.567 7.419,9.179 7.419,9.179C7.039,9.43 6.723,9.766 6.495,10.16L4.251,14.047C3.715,14.976 2.503,15.275 1.55,14.725C0.597,14.174 0.251,12.976 0.787,12.047C0.929,11.8 1.457,10.886 1.6,10.639C2.136,9.71 3.347,9.411 4.3,9.962C4.3,9.962 4.3,9.962 4.3,9.962C5.018,10.376 5.935,10.13 6.349,9.412L10.944,1.454ZM3.818,13.797C3.961,13.55 4.488,12.636 4.631,12.389C5.031,11.696 4.761,10.805 4.05,10.395C3.339,9.984 2.433,10.196 2.033,10.889C1.89,11.136 1.363,12.05 1.22,12.297C0.82,12.99 1.089,13.881 1.8,14.292C2.511,14.702 3.418,14.49 3.818,13.797ZM3.385,13.547C3.528,13.3 4.055,12.386 4.198,12.139C4.462,11.682 4.269,11.098 3.8,10.828C3.331,10.557 2.73,10.682 2.466,11.139C2.323,11.386 1.796,12.3 1.653,12.547C1.389,13.004 1.581,13.588 2.05,13.859C2.519,14.129 3.121,14.004 3.385,13.547Z" style="fill:rgb(181,185,192);"/>
        <g id="cut_shadow">
            <clipPath id="_clip1">
                <path d="M5.916,9.162C5.64,9.641 5.029,9.805 4.55,9.529C4.55,9.529 4.55,9.529 4.55,9.528C3.355,8.839 1.839,9.224 1.167,10.389C1.024,10.636 0.496,11.55 0.354,11.797C-0.319,12.962 0.105,14.468 1.3,15.158C2.495,15.848 4.012,15.462 4.684,14.297L7.215,9.912L9.081,8.68L11.965,1.685L10.916,0.502C10.916,0.502 7.272,6.814 5.916,9.162ZM3.385,13.547C3.528,13.3 4.055,12.386 4.198,12.139C4.462,11.682 4.269,11.098 3.8,10.828C3.331,10.557 2.73,10.682 2.466,11.139C2.323,11.386 1.796,12.3 1.653,12.547C1.389,13.004 1.581,13.588 2.05,13.859C2.519,14.129 3.121,14.004 3.385,13.547Z"/>
            </clipPath>
            <g clip-path="url(#_clip1)">
                <g opacity="0.8">
                    <g style="filter:url(#_Effect2);">
                        <path d="M10.084,9.162C10.36,9.641 10.971,9.805 11.45,9.529C11.45,9.529 11.45,9.529 11.45,9.528C12.645,8.839 14.161,9.224 14.833,10.389C14.976,10.636 15.504,11.55 15.646,11.797C16.319,12.962 15.895,14.468 14.7,15.158C13.505,15.848 11.988,15.462 11.316,14.297L8.793,9.927C8.787,9.918 8.78,9.909 8.77,9.903C8.626,9.808 7.429,9.018 7.04,8.761C6.961,8.708 6.899,8.633 6.863,8.545C6.58,7.86 5.29,4.73 4.554,2.944C4.236,2.174 4.385,1.29 4.938,0.666C5.026,0.567 5.084,0.502 5.084,0.502C5.084,0.502 8.728,6.814 10.084,9.162ZM12.615,13.547C12.472,13.3 11.945,12.386 11.802,12.139C11.538,11.682 11.731,11.098 12.2,10.828C12.669,10.557 13.27,10.682 13.534,11.139C13.677,11.386 14.204,12.3 14.347,12.547C14.611,13.004 14.419,13.588 13.95,13.859C13.481,14.129 12.879,14.004 12.615,13.547Z"/>
                    </g>
                </g>
            </g>
        </g>
        <path d="M10.084,9.162C10.36,9.641 10.971,9.805 11.45,9.529C11.45,9.529 11.45,9.529 11.45,9.528C12.645,8.839 14.161,9.224 14.833,10.389C14.976,10.636 15.504,11.55 15.646,11.797C16.319,12.962 15.895,14.468 14.7,15.158C13.505,15.848 11.988,15.462 11.316,14.297L9.072,10.41C8.883,10.083 8.62,9.804 8.305,9.596C8.02,9.408 7.66,9.17 7.378,8.984C7.079,8.786 6.845,8.503 6.708,8.171C6.27,7.109 5.247,4.626 4.601,3.059C4.254,2.218 4.417,1.254 5.02,0.574C5.06,0.529 5.084,0.502 5.084,0.502C5.084,0.502 8.728,6.814 10.084,9.162ZM12.615,13.547C12.472,13.3 11.945,12.386 11.802,12.139C11.538,11.682 11.731,11.098 12.2,10.828C12.669,10.557 13.27,10.682 13.534,11.139C13.677,11.386 14.204,12.3 14.347,12.547C14.611,13.004 14.419,13.588 13.95,13.859C13.481,14.129 12.879,14.004 12.615,13.547Z" style="fill:rgb(188,192,200);"/>
        <path d="M5.084,1.002L5.228,0.752L10.084,9.162C10.36,9.641 10.971,9.805 11.45,9.529C11.45,9.529 11.45,9.529 11.45,9.528C12.645,8.839 14.161,9.224 14.833,10.389C14.976,10.636 15.504,11.55 15.646,11.797C16.319,12.962 15.895,14.468 14.7,15.158C13.505,15.848 11.988,15.462 11.316,14.297L9.072,10.41C8.883,10.083 8.62,9.804 8.305,9.596C8.02,9.408 7.66,9.17 7.378,8.984C7.079,8.786 6.845,8.503 6.708,8.171C6.27,7.109 5.247,4.626 4.601,3.059C4.271,2.259 4.402,1.347 4.936,0.674L5.084,1.002ZM5.056,1.454L9.651,9.412C10.065,10.13 10.982,10.376 11.7,9.962C11.7,9.962 11.7,9.962 11.7,9.962C12.653,9.411 13.864,9.71 14.4,10.639C14.543,10.886 15.071,11.8 15.213,12.047C15.749,12.976 15.403,14.174 14.45,14.725C13.497,15.275 12.285,14.976 11.749,14.047L9.505,10.16C9.277,9.766 8.961,9.43 8.581,9.179C8.581,9.179 7.654,8.567 7.654,8.567C7.438,8.424 7.269,8.22 7.171,7.98C7.171,7.98 5.063,2.868 5.063,2.868C4.873,2.408 4.877,1.901 5.056,1.454ZM12.182,13.797C12.582,14.49 13.489,14.702 14.2,14.292C14.911,13.881 15.18,12.99 14.78,12.297C14.637,12.05 14.11,11.136 13.967,10.889C13.567,10.196 12.661,9.984 11.95,10.395C11.239,10.805 10.969,11.696 11.369,12.389C11.512,12.636 12.039,13.55 12.182,13.797ZM12.615,13.547C12.472,13.3 11.945,12.386 11.802,12.139C11.538,11.682 11.731,11.098 12.2,10.828C12.669,10.557 13.27,10.682 13.534,11.139C13.677,11.386 14.204,12.3 14.347,12.547C14.611,13.004 14.419,13.588 13.95,13.859C13.481,14.129 12.879,14.004 12.615,13.547Z" style="fill:rgb(181,185,192);"/>
        <circle cx="8" cy="8" r="1" style="fill:rgb(72,72,74);"/>
        <path d="M8,7C8.552,7 9,7.448 9,8C9,8.552 8.552,9 8,9C7.448,9 7,8.552 7,8C7,7.448 7.448,7 8,7ZM8,7.5C8.276,7.5 8.5,7.724 8.5,8C8.5,8.276 8.276,8.5 8,8.5C7.724,8.5 7.5,8.276 7.5,8C7.5,7.724 7.724,7.5 8,7.5Z" style="fill:url(#_Linear3);"/>
        <path d="M15.643,11.796C16.315,12.961 15.891,14.467 14.696,15.157C13.502,15.847 11.985,15.461 11.313,14.296L10.5,12.889C9.827,11.724 10.252,10.218 11.446,9.528C12.641,8.838 14.158,9.224 14.83,10.389L15.643,11.796ZM14.342,12.547L14.06,12.06L14.062,12.059L13.531,11.139C13.267,10.681 12.666,10.556 12.196,10.827C11.727,11.098 11.535,11.681 11.799,12.139L12.408,13.193L12.406,13.194L12.61,13.547C12.874,14.005 13.475,14.13 13.944,13.859C14.413,13.588 14.606,13.005 14.342,12.547Z" style="fill:rgb(41,121,255);"/>
        <path d="M0.359,11.796C-0.314,12.961 0.11,14.467 1.305,15.157C2.5,15.847 4.016,15.461 4.689,14.296L5.501,12.889C6.174,11.724 5.75,10.218 4.555,9.528C3.36,8.838 1.844,9.224 1.171,10.389L0.359,11.796ZM1.66,12.547L1.941,12.06L1.939,12.059L2.47,11.139C2.734,10.681 3.336,10.556 3.805,10.827C4.274,11.098 4.466,11.681 4.202,12.139L3.594,13.193L3.596,13.194L3.392,13.547C3.128,14.005 2.526,14.13 2.057,13.859C1.588,13.588 1.396,13.005 1.66,12.547Z" style="fill:rgb(41,121,255);"/>
        <path d="M15.643,11.796C16.315,12.961 15.891,14.467 14.696,15.157C13.502,15.847 11.985,15.461 11.313,14.296L10.5,12.889C9.827,11.724 10.252,10.218 11.446,9.528C12.641,8.838 14.158,9.224 14.83,10.389L15.643,11.796ZM14.961,11.615L14.397,10.639C13.861,9.71 12.649,9.411 11.696,9.961C10.743,10.511 10.397,11.71 10.933,12.639L11.746,14.046C12.282,14.975 13.493,15.274 14.446,14.724C15.399,14.174 15.746,12.975 15.21,12.046L14.961,11.615Z" style="fill:url(#_Linear4);"/>
        <path d="M0.359,11.796C-0.314,12.961 0.11,14.467 1.305,15.157C2.5,15.847 4.016,15.461 4.689,14.296L5.501,12.889C6.174,11.724 5.75,10.218 4.555,9.528C3.36,8.838 1.844,9.224 1.171,10.389L0.359,11.796ZM1.04,11.615L1.604,10.639C2.141,9.71 3.352,9.411 4.305,9.961C5.258,10.511 5.605,11.71 5.068,12.639L4.256,14.046C3.719,14.975 2.508,15.274 1.555,14.724C0.602,14.174 0.255,12.975 0.792,12.046L1.04,11.615Z" style="fill:url(#_Linear5);"/>
        <path d="M11.982,13.455L11.978,13.454L12.177,13.797C12.577,14.49 13.483,14.703 14.194,14.292C14.905,13.882 15.175,12.99 14.775,12.297L14.495,11.809L13.964,10.889C13.564,10.195 12.657,9.983 11.946,10.394C11.235,10.804 10.966,11.695 11.366,12.389L11.982,13.455ZM14.342,12.547L14.06,12.06L14.062,12.059L13.531,11.139C13.267,10.681 12.666,10.556 12.196,10.827C11.727,11.098 11.535,11.681 11.799,12.139L12.408,13.193L12.406,13.194L12.61,13.547C12.874,14.005 13.475,14.13 13.944,13.859C14.413,13.588 14.606,13.005 14.342,12.547Z" style="fill:url(#_Linear6);"/>
        <path d="M4.019,13.455L4.023,13.454L3.825,13.797C3.425,14.49 2.518,14.703 1.807,14.292C1.096,13.882 0.827,12.99 1.227,12.297L1.506,11.809L2.037,10.889C2.437,10.195 3.344,9.983 4.055,10.394C4.766,10.804 5.035,11.695 4.635,12.389L4.019,13.455ZM1.66,12.547L1.941,12.06L1.939,12.059L2.47,11.139C2.734,10.681 3.336,10.556 3.805,10.827C4.274,11.098 4.466,11.681 4.202,12.139L3.594,13.193L3.596,13.194L3.392,13.547C3.128,14.005 2.526,14.13 2.057,13.859C1.588,13.588 1.396,13.005 1.66,12.547Z" style="fill:url(#_Linear7);"/>
    </g>
    <defs>
        <filter id="_Effect2" filterUnits="userSpaceOnUse" x="-4.16646" y="-8.34586" width="28.1292" height="32.344">
            <feGaussianBlur in="SourceGraphic" stdDeviation="1"/>
        </filter>
        <linearGradient id="_Linear3" x1="0" y1="0" x2="1" y2="0" gradientUnits="userSpaceOnUse" gradientTransform="matrix(1.22465e-16,2,-2,1.22465e-16,8,7)"><stop offset="0" style="stop-color:white;stop-opacity:0.2"/><stop offset="1" style="stop-color:black;stop-opacity:0.2"/></linearGradient>
        <linearGradient id="_Linear4" x1="0" y1="0" x2="1" y2="0" gradientUnits="userSpaceOnUse" gradientTransform="matrix(3.9801e-16,-6.5,6.5,3.9801e-16,13,15.5)"><stop offset="0" style="stop-color:black;stop-opacity:0.1"/><stop offset="1" style="stop-color:white;stop-opacity:0.3"/></linearGradient>
        <linearGradient id="_Linear5" x1="0" y1="0" x2="1" y2="0" gradientUnits="userSpaceOnUse" gradientTransform="matrix(-3.9801e-16,-6.5,-6.5,3.9801e-16,3.00141,15.5)"><stop offset="0" style="stop-color:black;stop-opacity:0.1"/><stop offset="1" style="stop-color:white;stop-opacity:0.3"/></linearGradient>
        <linearGradient id="_Linear6" x1="0" y1="0" x2="1" y2="0" gradientUnits="userSpaceOnUse" gradientTransform="matrix(2.63287e-16,4.2998,-4.2998,2.63287e-16,13,10.2002)"><stop offset="0" style="stop-color:black;stop-opacity:0.1"/><stop offset="1" style="stop-color:white;stop-opacity:0.3"/></linearGradient>
        <linearGradient id="_Linear7" x1="0" y1="0" x2="1" y2="0" gradientUnits="userSpaceOnUse" gradientTransform="matrix(-2.63287e-16,4.2998,4.2998,2.63287e-16,3.00141,10.2002)"><stop offset="0" style="stop-color:black;stop-opacity:0.1"/><stop offset="1" style="stop-color:white;stop-opacity:0.3"/></linearGradient>
    </defs>
</svg>
