<?xml version="1.0" encoding="UTF-8" standalone="no"?>
<!DOCTYPE svg PUBLIC "-//W3C//DTD SVG 1.1//EN" "http://www.w3.org/Graphics/SVG/1.1/DTD/svg11.dtd">
<svg width="100%" height="100%" viewBox="0 0 20 20" version="1.1" xmlns="http://www.w3.org/2000/svg" xmlns:xlink="http://www.w3.org/1999/xlink" xml:space="preserve" xmlns:serif="http://www.serif.com/" style="fill-rule:evenodd;clip-rule:evenodd;stroke-linejoin:round;stroke-miterlimit:2;">
    <g id="light">
        <g id="blue">
        </g>
        <g id="yellow">
        </g>
        <g id="red">
        </g>
        <g id="gray">
        </g>
        <g id="text">
            <path d="M19,1.749C19,1.335 18.665,1 18.251,1L1.749,1C1.335,1 1,1.335 1,1.749L1,18.251C1,18.665 1.335,19 1.749,19L18.251,19C18.665,19 19,18.665 19,18.251L19,1.749ZM13.486,11C13.464,11.023 13.443,11.047 13.423,11.07C13.333,11.177 13.253,11.287 13.253,11.4C13.253,11.768 13.561,11.974 13.78,12.178C14.057,12.435 14.253,12.693 14.253,13C14.253,13.307 14.057,13.566 13.781,13.824C13.562,14.03 13.253,14.236 13.253,14.6C13.253,14.713 13.333,14.823 13.423,14.93C13.443,14.953 13.464,14.977 13.486,15L13.5,15L17.5,13L13.5,11L13.486,11ZM7,11L7,15L12.349,15C12.287,14.867 12.253,14.732 12.253,14.6C12.253,14.09 12.553,13.741 12.873,13.441C12.966,13.355 13.059,13.273 13.138,13.19C13.195,13.129 13.253,13.073 13.253,13C13.253,12.928 13.195,12.873 13.139,12.813C13.06,12.731 12.967,12.65 12.874,12.563C12.554,12.265 12.253,11.916 12.253,11.4C12.253,11.268 12.287,11.133 12.349,11L7,11ZM6,11L4.501,11C3.672,11 3,11.538 3,12.201C3,12.706 3,13.294 3,13.799C3,14.462 3.672,15 4.501,15L6,15L6,11ZM13.486,5C13.464,5.023 13.443,5.047 13.423,5.07C13.333,5.177 13.253,5.287 13.253,5.4C13.253,5.768 13.561,5.974 13.78,6.178C14.057,6.435 14.253,6.693 14.253,7C14.253,7.307 14.057,7.566 13.781,7.824C13.562,8.03 13.253,8.236 13.253,8.6C13.253,8.713 13.333,8.823 13.423,8.93C13.443,8.953 13.464,8.977 13.486,9L13.5,9L17.5,7L13.5,5L13.486,5ZM7,5L7,9L12.349,9C12.287,8.867 12.253,8.732 12.253,8.6C12.253,8.09 12.553,7.741 12.873,7.441C12.966,7.355 13.059,7.273 13.138,7.19C13.195,7.129 13.253,7.073 13.253,7C13.253,6.928 13.195,6.873 13.139,6.813C13.06,6.731 12.967,6.65 12.874,6.563C12.554,6.265 12.253,5.916 12.253,5.4C12.253,5.268 12.287,5.133 12.349,5L7,5ZM6,5L4.501,5C3.672,5 3,5.538 3,6.201C3,6.706 3,7.294 3,7.799C3,8.462 3.672,9 4.501,9L6,9L6,5Z" style="fill:rgb(72,72,74);"/>
        </g>
        <g id="working">
        </g>
    </g>
</svg>
