<?xml version="1.0" encoding="UTF-8" standalone="no"?>
<!DOCTYPE svg PUBLIC "-//W3C//DTD SVG 1.1//EN" "http://www.w3.org/Graphics/SVG/1.1/DTD/svg11.dtd">
<svg width="100%" height="100%" viewBox="0 0 20 20" version="1.1" xmlns="http://www.w3.org/2000/svg" xmlns:xlink="http://www.w3.org/1999/xlink" xml:space="preserve" xmlns:serif="http://www.serif.com/" style="fill-rule:evenodd;clip-rule:evenodd;stroke-linejoin:round;stroke-miterlimit:2;">
    <g id="light">
        <g id="blue">
            <path d="M2.131,0.879C1.9,0.74 1.613,0.737 1.379,0.869C1.145,1.002 1,1.25 1,1.519C1,5.089 1,14.911 1,18.481C1,18.75 1.145,18.998 1.379,19.131C1.613,19.263 1.9,19.26 2.131,19.121C4.337,17.798 9,15 9,15L9,5C9,5 4.337,2.202 2.131,0.879ZM17.869,0.879C18.1,0.74 18.387,0.737 18.621,0.869C18.855,1.002 19,1.25 19,1.519C19,5.089 19,14.911 19,18.481C19,18.75 18.855,18.998 18.621,19.131C18.387,19.263 18.1,19.26 17.869,19.121C15.663,17.798 11,15 11,15L11,5C11,5 15.663,2.202 17.869,0.879Z" style="fill:rgb(41,121,255);"/>
        </g>
        <g id="yellow">
        </g>
        <g id="red">
        </g>
        <g id="gray">
        </g>
        <g id="text">
        </g>
        <g id="working">
        </g>
    </g>
</svg>
