<?xml version="1.0" encoding="UTF-8" standalone="no"?>
<!DOCTYPE svg PUBLIC "-//W3C//DTD SVG 1.1//EN" "http://www.w3.org/Graphics/SVG/1.1/DTD/svg11.dtd">
<svg width="100%" height="100%" viewBox="0 0 20 20" version="1.1" xmlns="http://www.w3.org/2000/svg" xmlns:xlink="http://www.w3.org/1999/xlink" xml:space="preserve" xmlns:serif="http://www.serif.com/" style="fill-rule:evenodd;clip-rule:evenodd;stroke-linejoin:round;stroke-miterlimit:2;">
    <g id="light">
        <g id="blue">
        </g>
        <g id="yellow">
        </g>
        <g id="red">
        </g>
        <g id="text">
            <path d="M11.5,8L11.5,11.205C11.5,11.49 11.662,11.751 11.918,11.877C12.173,12.003 12.479,11.974 12.705,11.8C14.825,10.179 19,6.987 19,6.987C19,6.987 14.825,3.795 12.705,2.173C12.479,2 12.173,1.97 11.918,2.097C11.662,2.223 11.5,2.484 11.5,2.769L11.5,6L7.5,6C4.464,6 2,8.464 2,11.5C2,14.536 4.464,17 7.5,17L9.5,17C10.052,17 10.5,16.552 10.5,16C10.5,15.448 10.052,15 9.5,15L7.5,15C5.568,15 4,13.432 4,11.5C4,9.568 5.568,8 7.5,8L11.5,8Z" style="fill:rgb(72,72,74);"/>
        </g>
        <g id="working">
        </g>
    </g>
</svg>
