<?xml version="1.0" encoding="UTF-8" standalone="no"?>
<!DOCTYPE svg PUBLIC "-//W3C//DTD SVG 1.1//EN" "http://www.w3.org/Graphics/SVG/1.1/DTD/svg11.dtd">
<svg width="100%" height="100%" viewBox="0 0 16 16" version="1.1" xmlns="http://www.w3.org/2000/svg" xmlns:xlink="http://www.w3.org/1999/xlink" xml:space="preserve" xmlns:serif="http://www.serif.com/" style="fill-rule:evenodd;clip-rule:evenodd;stroke-linejoin:round;stroke-miterlimit:2;">
    <g id="glight">
        <g id="rotate_ccw_shadow">
        </g>
        <g id="rotate_cw_shadow">
        </g>
        <g id="move_shadow">
        </g>
        <g id="move_shadow1" serif:id="move_shadow">
        </g>
        <g id="move_shadow2" serif:id="move_shadow">
        </g>
        <g id="move_shadow3" serif:id="move_shadow">
        </g>
        <g id="folder_shadow">
        </g>
        <g id="export_shadow">
        </g>
        <g id="copy_shadow">
        </g>
        <g id="copy_shadow1" serif:id="copy_shadow">
        </g>
        <g id="clip_shadow">
        </g>
        <g id="clip_shadow1" serif:id="clip_shadow">
        </g>
        <g id="cut_shadow">
        </g>
        <path d="M10.576,7L8.09,7L8.327,5.582C8.372,5.31 8.188,5.052 7.916,5.007C7.643,4.962 7.386,5.146 7.34,5.418L7.076,7L6,7C5.724,7 5.5,7.224 5.5,7.5C5.5,7.776 5.724,8 6,8L6.91,8L6.576,10L5.5,10C5.224,10 5,10.224 5,10.5C5,10.776 5.224,11 5.5,11L6.41,11L6.173,12.418C6.128,12.69 6.312,12.948 6.584,12.993C6.857,13.039 7.114,12.854 7.16,12.582L7.424,11L9.91,11L9.673,12.418C9.628,12.69 9.812,12.948 10.084,12.993C10.357,13.039 10.614,12.854 10.66,12.582L10.924,11L12,11C12.276,11 12.5,10.776 12.5,10.5C12.5,10.224 12.276,10 12,10L11.09,10L11.424,8L12.5,8C12.776,8 13,7.776 13,7.5C13,7.224 12.776,7 12.5,7L11.59,7L11.827,5.582C11.872,5.31 11.688,5.052 11.416,5.007C11.143,4.962 10.886,5.146 10.84,5.418L10.576,7ZM7.924,8L7.59,10L10.076,10L10.41,8L7.924,8Z" style="fill:rgb(41,121,255);"/>
    </g>
    <g id="menu">
    </g>
</svg>
