<?xml version="1.0" encoding="UTF-8" standalone="no"?>
<!DOCTYPE svg PUBLIC "-//W3C//DTD SVG 1.1//EN" "http://www.w3.org/Graphics/SVG/1.1/DTD/svg11.dtd">
<svg width="100%" height="100%" viewBox="0 0 16 16" version="1.1" xmlns="http://www.w3.org/2000/svg" xmlns:xlink="http://www.w3.org/1999/xlink" xml:space="preserve" xmlns:serif="http://www.serif.com/" style="fill-rule:evenodd;clip-rule:evenodd;stroke-linejoin:round;stroke-miterlimit:2;">
    <g transform="matrix(1,0,0,1,-48,-96)">
        <path d="M64,96L48,96L48,112L64,112L64,96ZM55.975,107.5L56.025,107.5C60.274,107.487 62.415,104.279 62.415,104.279L62.603,103.999L62.414,103.72C62.414,103.72 60.255,100.513 56.025,100.5L55.975,100.5C51.745,100.513 49.586,103.72 49.586,103.72L49.397,103.999L49.585,104.279C49.585,104.279 51.726,107.487 55.975,107.5ZM56,101.5C57.38,101.5 58.5,102.62 58.5,104C58.5,105.38 57.38,106.5 56,106.5C54.62,106.5 53.5,105.38 53.5,104C53.5,102.62 54.62,101.5 56,101.5ZM53.017,102.169C52.689,102.702 52.5,103.329 52.5,104C52.5,104.673 52.69,105.302 53.02,105.836C51.788,105.251 50.99,104.427 50.632,104.001L50.632,104.001C50.991,103.576 51.79,102.754 53.017,102.169ZM58.983,102.169C60.21,102.754 61.009,103.576 61.368,104.001C61.01,104.427 60.212,105.251 58.98,105.836C59.31,105.302 59.5,104.673 59.5,104C59.5,103.329 59.311,102.702 58.983,102.169ZM56,103C56.552,103 57,103.448 57,104C57,104.552 56.552,105 56,105C55.448,105 55,104.552 55,104C55,103.448 55.448,103 56,103Z" style="fill:rgb(114,114,114);"/>
        <g id="green_dark">
        </g>
        <g id="red_dark">
        </g>
        <g id="gray_dark">
        </g>
        <g id="yellow_dark">
        </g>
        <g id="icon_dark">
        </g>
    </g>
</svg>
