<?xml version="1.0" encoding="UTF-8" standalone="no"?>
<!DOCTYPE svg PUBLIC "-//W3C//DTD SVG 1.1//EN" "http://www.w3.org/Graphics/SVG/1.1/DTD/svg11.dtd">
<svg width="100%" height="100%" viewBox="0 0 16 16" version="1.1" xmlns="http://www.w3.org/2000/svg" xmlns:xlink="http://www.w3.org/1999/xlink" xml:space="preserve" xmlns:serif="http://www.serif.com/" style="fill-rule:evenodd;clip-rule:evenodd;stroke-linejoin:round;stroke-miterlimit:2;">
    <g id="light">
        </g>
    <g id="Layer1">
        <path d="M9,0L2,0L2,16L14,16L14,5L9,0Z" style="fill:rgb(41,121,255);"/>
        <path d="M8,9L8,11L11,8L8,5L8,7L7.5,7C4.187,7 5,11.5 5,11.5C5,11.5 5.162,9 7.5,9L8,9Z" style="fill:white;"/>
        <g id="export_shadow">
            <clipPath id="_clip1">
                <path d="M9,0L2,0L2,16L14,16L14,5L9,0Z"/>
            </clipPath>
            <g clip-path="url(#_clip1)">
                <g opacity="0.3">
                    <g style="filter:url(#_Effect2);">
                        <path d="M9,0L9,6L14,5L9,0Z"/>
                    </g>
                </g>
            </g>
        </g>
        <path d="M9,0L9,5L14,5L9,0Z" style="fill:rgb(141,177,237);"/>
        </g>
    <defs>
        <filter id="_Effect2" filterUnits="userSpaceOnUse" x="6" y="-3" width="11" height="12">
            <feGaussianBlur in="SourceGraphic" stdDeviation="0.5"/>
        </filter>
    </defs>
</svg>
