<?xml version="1.0" encoding="UTF-8" standalone="no"?>
<!DOCTYPE svg PUBLIC "-//W3C//DTD SVG 1.1//EN" "http://www.w3.org/Graphics/SVG/1.1/DTD/svg11.dtd">
<svg width="100%" height="100%" viewBox="0 0 20 20" version="1.1" xmlns="http://www.w3.org/2000/svg" xmlns:xlink="http://www.w3.org/1999/xlink" xml:space="preserve" xmlns:serif="http://www.serif.com/" style="fill-rule:evenodd;clip-rule:evenodd;stroke-linejoin:round;stroke-miterlimit:2;">
    <g id="light">
        <g id="blue">
            <path d="M8.5,8L8.5,11.205C8.5,11.49 8.338,11.751 8.082,11.877C7.827,12.003 7.521,11.974 7.295,11.8C5.175,10.179 1,6.987 1,6.987C1,6.987 5.175,3.795 7.295,2.173C7.521,2 7.827,1.97 8.082,2.097C8.338,2.223 8.5,2.484 8.5,2.769L8.5,6L12.5,6C15.536,6 18,8.464 18,11.5C18,14.536 15.536,17 12.5,17L10.5,17C9.948,17 9.5,16.552 9.5,16C9.5,15.448 9.948,15 10.5,15L12.5,15C14.432,15 16,13.432 16,11.5C16,9.568 14.432,8 12.5,8L8.5,8Z" style="fill:rgb(41,121,255);"/>
        </g>
        <g id="yellow">
        </g>
        <g id="red">
        </g>
        <g id="gray">
        </g>
        <g id="text">
        </g>
        <g id="working">
        </g>
    </g>
</svg>
