<?xml version="1.0" encoding="UTF-8" standalone="no"?>
<!DOCTYPE svg PUBLIC "-//W3C//DTD SVG 1.1//EN" "http://www.w3.org/Graphics/SVG/1.1/DTD/svg11.dtd">
<svg width="100%" height="100%" viewBox="0 0 16 16" version="1.1" xmlns="http://www.w3.org/2000/svg" xmlns:xlink="http://www.w3.org/1999/xlink" xml:space="preserve" xmlns:serif="http://www.serif.com/" style="fill-rule:evenodd;clip-rule:evenodd;stroke-linejoin:round;stroke-miterlimit:2;">
    <g transform="matrix(1,0,0,1,-72,-120)">
        <g id="green">
        </g>
        <g id="red">
        </g>
        <g id="gray">
        </g>
        <g id="yellow">
            <path d="M81,122L83,122C83,122 82.444,124.781 82.161,126.195C82.067,126.663 81.656,127 81.179,127C79.699,127 76.592,127 74.995,127C74.445,127 74,126.555 74,126.005C74,124.073 74,120 74,120L81,120L81,122ZM80,122L76,122L75.256,125.719C75.256,125.719 75.207,126.003 75.113,126C74.994,125.997 75,125.777 75,125.719C75,124.664 75,121 75,121L80,121L80,122Z" style="fill:rgb(229,115,26);"/>
        </g>
        <g id="icon">
            <path d="M74.5,135L85.5,135C85.776,135 86,134.776 86,134.5C86,134.224 85.776,134 85.5,134L74.5,134C74.224,134 74,134.224 74,134.5C74,134.776 74.224,135 74.5,135Z" style="fill:rgb(72,72,74);"/>
            <path d="M74.5,132L85.5,132C85.776,132 86,131.776 86,131.5C86,131.224 85.776,131 85.5,131L74.5,131C74.224,131 74,131.224 74,131.5C74,131.776 74.224,132 74.5,132Z" style="fill:rgb(72,72,74);"/>
            <path d="M74.5,129L85.5,129C85.776,129 86,128.776 86,128.5C86,128.224 85.776,128 85.5,128L74.5,128C74.224,128 74,128.224 74,128.5C74,128.776 74.224,129 74.5,129Z" style="fill:rgb(72,72,74);"/>
            <path d="M83.5,126L85.5,126C85.776,126 86,125.776 86,125.5C86,125.224 85.776,125 85.5,125L83.5,125C83.224,125 83,125.224 83,125.5C83,125.776 83.224,126 83.5,126Z" style="fill:rgb(72,72,74);"/>
        </g>
    </g>
</svg>
