<?xml version="1.0" encoding="UTF-8" standalone="no"?>
<!DOCTYPE svg PUBLIC "-//W3C//DTD SVG 1.1//EN" "http://www.w3.org/Graphics/SVG/1.1/DTD/svg11.dtd">
<svg width="100%" height="100%" viewBox="0 0 16 16" version="1.1" xmlns="http://www.w3.org/2000/svg" xmlns:xlink="http://www.w3.org/1999/xlink" xml:space="preserve" xmlns:serif="http://www.serif.com/" style="fill-rule:evenodd;clip-rule:evenodd;stroke-linejoin:round;stroke-miterlimit:2;">
    <g id="glight">
        <path d="M15,3.508C15,3.108 14.841,2.724 14.558,2.442C14.276,2.159 13.892,2 13.492,2L2.508,2C2.108,2 1.724,2.159 1.442,2.442C1.159,2.724 1,3.108 1,3.508L1,14.492C1,14.892 1.159,15.276 1.442,15.558C1.724,15.841 2.108,16 2.508,16L13.492,16C13.892,16 14.276,15.841 14.558,15.558C14.841,15.276 15,14.892 15,14.492L15,3.508Z" style="fill:rgb(229,115,26);"/>
        <g id="clip_shadow1" serif:id="clip_shadow">
            <clipPath id="_clip1">
                <path d="M15,3.508C15,3.108 14.841,2.724 14.558,2.442C14.276,2.159 13.892,2 13.492,2L2.508,2C2.108,2 1.724,2.159 1.442,2.442C1.159,2.724 1,3.108 1,3.508L1,14.492C1,14.892 1.159,15.276 1.442,15.558C1.724,15.841 2.108,16 2.508,16L13.492,16C13.892,16 14.276,15.841 14.558,15.558C14.841,15.276 15,14.892 15,14.492L15,3.508Z"/>
            </clipPath>
            <g clip-path="url(#_clip1)">
                <g opacity="0.6">
                    <g style="filter:url(#_Effect2);">
                        <path d="M10,4.5L12,4.5L12,5.787L4,5.787L4,4.5L6,4.5L6,2.487C6.007,1.389 6.9,0.5 8,0.5C9.104,0.5 10,1.396 10,2.5L10,4.5ZM8,1.5C8.552,1.5 9,1.948 9,2.5C9,3.052 8.552,3.5 8,3.5C7.448,3.5 7,3.052 7,2.5C7,1.948 7.448,1.5 8,1.5Z"/>
                    </g>
                </g>
            </g>
        </g>
        <path d="M10,4L11.502,4C11.777,4 12,4.223 12,4.498L12,5.502C12,5.777 11.777,6 11.502,6C10.066,6 5.934,6 4.498,6C4.223,6 4,5.777 4,5.502C4,5.195 4,4.805 4,4.498C4,4.223 4.223,4 4.498,4L6,4L6,1.987C6.007,0.889 6.9,-0 8,0C9.104,0 10,0.896 10,2L10,4ZM8,1C8.552,1 9,1.448 9,2C9,2.552 8.552,3 8,3C7.448,3 7,2.552 7,2C7,1.448 7.448,1 8,1Z" style="fill:rgb(188,192,200);"/>
        <path d="M12,4.498C12,4.366 11.947,4.239 11.854,4.146C11.761,4.053 11.634,4 11.502,4L4.498,4C4.366,4 4.239,4.053 4.146,4.146C4.053,4.239 4,4.366 4,4.498L4,5L12,5L12,4.498Z" style="fill:url(#_Linear3);"/>
        <path d="M8,0.75C8.69,0.75 9.25,1.31 9.25,2C9.25,2.69 8.69,3.25 8,3.25C7.31,3.25 6.75,2.69 6.75,2C6.75,1.31 7.31,0.75 8,0.75ZM8,1C8.552,1 9,1.448 9,2C9,2.552 8.552,3 8,3C7.448,3 7,2.552 7,2C7,1.448 7.448,1 8,1Z" style="fill:url(#_Linear4);"/>
        <path d="M9,11L9,13L6,10L9,7L9,9L9.5,9C12.813,9 12,13.5 12,13.5C12,13.5 11.838,11 9.5,11L9,11Z" style="fill:white;"/>
        </g>
    <defs>
        <filter id="_Effect2" filterUnits="userSpaceOnUse" x="1" y="-2.5" width="14" height="11.2868">
            <feGaussianBlur in="SourceGraphic" stdDeviation="0.5"/>
        </filter>
        <linearGradient id="_Linear3" x1="0" y1="0" x2="1" y2="0" gradientUnits="userSpaceOnUse" gradientTransform="matrix(6.12323e-17,-1,1,6.12323e-17,9,5)"><stop offset="0" style="stop-color:white;stop-opacity:0"/><stop offset="1" style="stop-color:white;stop-opacity:0.4"/></linearGradient>
        <linearGradient id="_Linear4" x1="0" y1="0" x2="1" y2="0" gradientUnits="userSpaceOnUse" gradientTransform="matrix(7.74585e-17,1.26499,-0.158124,9.68232e-18,8,2)"><stop offset="0" style="stop-color:black;stop-opacity:0.2"/><stop offset="1" style="stop-color:white;stop-opacity:0.5"/></linearGradient>
    </defs>
</svg>
