<?xml version="1.0" encoding="UTF-8" standalone="no"?>
<svg
   width="100%"
   height="100%"
   viewBox="0 0 16 16"
   version="1.1"
   xml:space="preserve"
   style="fill-rule:evenodd;clip-rule:evenodd;stroke-linejoin:round;stroke-miterlimit:2;"
   id="svg25"
   xmlns="http://www.w3.org/2000/svg"
   xmlns:svg="http://www.w3.org/2000/svg"
   xmlns:serif="http://www.serif.com/"><defs
   id="defs29" />
    <g
   id="glight">
        <g
   id="rotate_ccw_shadow">
        </g>
        <g
   id="rotate_cw_shadow">
        </g>
        <g
   id="move_shadow">
        </g>
        <g
   id="move_shadow1"
   serif:id="move_shadow">
        </g>
        <g
   id="move_shadow2"
   serif:id="move_shadow">
        </g>
        <g
   id="move_shadow3"
   serif:id="move_shadow">
        </g>
        <g
   id="folder_shadow">
        </g>
        <g
   id="export_shadow">
        </g>
        <g
   id="copy_shadow">
        </g>
        <g
   id="copy_shadow1"
   serif:id="copy_shadow">
        </g>
        <g
   id="clip_shadow">
        </g>
        <g
   id="clip_shadow1"
   serif:id="clip_shadow">
        </g>
        <g
   id="cut_shadow">
        </g>
        <path
   d="M 7.998,5.004 C 7.9977335,4.7380001 7.892,4.483 7.705,4.295 7.517,4.108 7.2619999,4.0022668 6.996,4.002 L 5.002,4 C 4.7360001,3.9997332 4.481,4.106 4.293,4.293 4.106,4.481 3.9997335,4.7360001 4,5.002 L 4.002,6.998 C 4.0022665,7.2639999 4.108,7.519 4.295,7.707 4.483,7.894 4.7380001,7.9997332 5.004,8 L 6.998,8.002 C 7.2639999,8.0022668 7.519,7.896 7.707,7.709 7.894,7.521 8.0002665,7.2659999 8,7 Z"
   style="fill:#2979ff"
   id="path15" />
        <path
   d="M 12.998,10.004 C 12.997733,9.7380001 12.892,9.483 12.705,9.295 12.517,9.108 12.262,9.0022668 11.996,9.002 L 10.002,9 C 9.7360001,8.9997332 9.481,9.106 9.293,9.293 9.106,9.481 8.9997335,9.7360001 9,10.002 l 0.002,1.996 c 2.665e-4,0.266 0.106,0.521 0.293,0.709 0.188,0.187 0.4430001,0.292733 0.709,0.293 l 1.994,0.002 c 0.266,2.67e-4 0.521,-0.106 0.709,-0.293 C 12.894,12.521 13.000267,12.266 13,12 Z"
   style="fill:#2979ff"
   id="path17" />
        <path
   d="M 12.998,5.004 C 12.997733,4.7380001 12.892,4.483 12.705,4.295 12.517,4.108 12.262,4.0022668 11.996,4.002 L 10.002,4 C 9.7360001,3.9997332 9.481,4.106 9.293,4.293 9.106,4.481 8.9997335,4.7360001 9,5.002 L 9.002,6.998 C 9.0022665,7.2639999 9.108,7.519 9.295,7.707 9.483,7.894 9.7380001,7.9997332 10.004,8 l 1.994,0.002 C 12.264,8.0022668 12.519,7.896 12.707,7.709 12.894,7.521 13.000267,7.2659999 13,7 Z"
   style="fill:#48484a"
   id="path19" />
        <path
   d="M 7.998,10.004 C 7.9977335,9.7380001 7.892,9.483 7.705,9.295 7.517,9.108 7.2619999,9.0022668 6.996,9.002 L 5.002,9 C 4.7360001,8.9997332 4.481,9.106 4.293,9.293 4.106,9.481 3.9997335,9.7360001 4,10.002 l 0.002,1.996 c 2.665e-4,0.266 0.106,0.521 0.293,0.709 0.188,0.187 0.4430001,0.292733 0.709,0.293 l 1.994,0.002 C 7.2639999,13.002267 7.519,12.896 7.707,12.709 7.894,12.521 8.0002665,12.266 8,12 Z"
   style="fill:#48484a"
   id="path21" />
    </g>
    <g
   id="menu">
    </g>
</svg>
