<?xml version="1.0" encoding="UTF-8" standalone="no"?>
<!DOCTYPE svg PUBLIC "-//W3C//DTD SVG 1.1//EN" "http://www.w3.org/Graphics/SVG/1.1/DTD/svg11.dtd">
<svg width="100%" height="100%" viewBox="0 0 16 16" version="1.1" xmlns="http://www.w3.org/2000/svg" xmlns:xlink="http://www.w3.org/1999/xlink" xml:space="preserve" xmlns:serif="http://www.serif.com/" style="fill-rule:evenodd;clip-rule:evenodd;stroke-linejoin:round;stroke-miterlimit:2;">
    <g id="light">
        </g>
    <g id="Layer1">
        <path d="M3,8L3,16L15,16C15.265,16 15.519,15.895 15.707,15.707C15.895,15.519 16,15.265 16,15C16,13.463 16,10.537 16,9C16,8.735 15.895,8.481 15.707,8.293C15.519,8.105 15.265,8 15,8C11.954,8 3,8 3,8Z" style="fill:rgb(188,192,200);"/>
        <path d="M3,8L3,16L15,16C15.265,16 15.519,15.895 15.707,15.707C15.895,15.519 16,15.265 16,15C16,13.463 16,10.537 16,9C16,8.735 15.895,8.481 15.707,8.293C15.519,8.105 15.265,8 15,8C11.954,8 3,8 3,8ZM3.5,8.5L15,8.5C15.132,8.5 15.26,8.553 15.353,8.647C15.447,8.74 15.5,8.868 15.5,9L15.5,15C15.5,15.132 15.447,15.26 15.353,15.353C15.26,15.447 15.132,15.5 15,15.5C15,15.5 3.5,15.5 3.5,15.5L3.5,8.5Z" style="fill:rgb(181,185,192);"/>
        <g id="rotate_cw_shadow">
            <clipPath id="_clip1">
                <path d="M3,8L3,16L15,16C15.265,16 15.519,15.895 15.707,15.707C15.895,15.519 16,15.265 16,15C16,13.463 16,10.537 16,9C16,8.735 15.895,8.481 15.707,8.293C15.519,8.105 15.265,8 15,8C11.954,8 3,8 3,8Z"/>
            </clipPath>
            <g clip-path="url(#_clip1)">
                <g opacity="0.5">
                    <g style="filter:url(#_Effect2);">
                        <path d="M8,1C8,0.735 7.895,0.481 7.707,0.293C7.519,0.105 7.265,-0 7,0C5.463,0 2.537,0 1,0C0.735,-0 0.481,0.105 0.293,0.293C0.105,0.481 0,0.735 0,1C0,3.873 0,12.127 0,15C0,15.265 0.105,15.519 0.293,15.707C0.481,15.895 0.735,16 1,16C2.537,16 5.463,16 7,16C7.265,16 7.519,15.895 7.707,15.707C7.895,15.519 8,15.265 8,15C8,12.127 8,3.873 8,1Z"/>
                    </g>
                </g>
            </g>
        </g>
        <path d="M8,1C8,0.735 7.895,0.481 7.707,0.293C7.519,0.105 7.265,-0 7,-0C5.463,-0 2.537,-0 1,-0C0.735,-0 0.481,0.105 0.293,0.293C0.105,0.481 0,0.735 0,1C0,3.873 0,12.127 0,15C0,15.265 0.105,15.519 0.293,15.707C0.481,15.895 0.735,16 1,16C2.537,16 5.463,16 7,16C7.265,16 7.519,15.895 7.707,15.707C7.895,15.519 8,15.265 8,15C8,12.127 8,3.873 8,1Z" style="fill:rgb(41,121,255);"/>
        <path d="M6,15.5L6,16L7,16C7.265,16 7.519,15.895 7.707,15.707C7.895,15.519 8,15.265 8,15L8,8L7.5,8L7.5,15.006C7.5,15.279 7.279,15.5 7.006,15.5L6,15.5Z" style="fill:url(#_Linear3);"/>
        <path d="M13,3.5L15,3.5L12,0.5L9,3.5L11,3.5L11,4C11,7.313 15.5,6.5 15.5,6.5C15.5,6.5 13,6.338 13,4L13,3.5Z" style="fill:rgb(72,72,74);"/>
        </g>
    <defs>
        <filter id="_Effect2" filterUnits="userSpaceOnUse" x="-12" y="-12" width="32" height="40">
            <feGaussianBlur in="SourceGraphic" stdDeviation="2"/>
        </filter>
        <linearGradient id="_Linear3" x1="0" y1="0" x2="1" y2="0" gradientUnits="userSpaceOnUse" gradientTransform="matrix(4.59243e-16,-7.5,30,1.83697e-15,8,15.5)"><stop offset="0" style="stop-color:white;stop-opacity:0"/><stop offset="0.25" style="stop-color:white;stop-opacity:0.3"/><stop offset="0.75" style="stop-color:white;stop-opacity:0.3"/><stop offset="1" style="stop-color:white;stop-opacity:0"/></linearGradient>
    </defs>
</svg>
