<?xml version="1.0" encoding="UTF-8" standalone="no"?>
<!DOCTYPE svg PUBLIC "-//W3C//DTD SVG 1.1//EN" "http://www.w3.org/Graphics/SVG/1.1/DTD/svg11.dtd">
<svg width="100%" height="100%" viewBox="0 0 20 20" version="1.1" xmlns="http://www.w3.org/2000/svg" xmlns:xlink="http://www.w3.org/1999/xlink" xml:space="preserve" xmlns:serif="http://www.serif.com/" style="fill-rule:evenodd;clip-rule:evenodd;stroke-linejoin:round;stroke-miterlimit:2;">
    <g id="light">
        <g id="blue">
        </g>
        <g id="yellow">
        </g>
        <g id="red">
        </g>
        <g id="gray">
        </g>
        <g id="text">
            <path d="M1.032,13.968C0.891,14.109 0.812,14.3 0.812,14.5C0.812,14.7 0.891,14.891 1.032,15.032C1.993,15.993 4.007,18.007 4.968,18.968C5.109,19.109 5.3,19.188 5.5,19.188C5.7,19.188 5.891,19.109 6.032,18.968C8.25,16.75 16.75,8.25 18.968,6.032C19.109,5.891 19.188,5.7 19.188,5.5C19.188,5.3 19.109,5.109 18.968,4.968C18.007,4.007 15.993,1.993 15.032,1.032C14.891,0.891 14.7,0.812 14.5,0.812C14.3,0.812 14.109,0.891 13.968,1.032C11.75,3.25 3.25,11.75 1.032,13.968ZM4.414,12L3,13.414L4.293,14.707C4.683,15.097 5.317,15.097 5.707,14.707C6.097,14.317 6.097,13.683 5.707,13.293L4.414,12ZM7.414,9L6,10.414L7.293,11.707C7.683,12.097 8.317,12.097 8.707,11.707C9.097,11.317 9.097,10.683 8.707,10.293L7.414,9ZM10.414,6L9,7.414L10.293,8.707C10.683,9.097 11.317,9.097 11.707,8.707C12.097,8.317 12.097,7.683 11.707,7.293L10.414,6ZM13.414,3L12,4.414L13.293,5.707C13.683,6.097 14.317,6.097 14.707,5.707C15.097,5.317 15.097,4.683 14.707,4.293L13.414,3Z" style="fill:rgb(41,121,255);"/>
        </g>
        <g id="working">
        </g>
    </g>
</svg>
