<?xml version="1.0" encoding="UTF-8" standalone="no"?>
<!DOCTYPE svg PUBLIC "-//W3C//DTD SVG 1.1//EN" "http://www.w3.org/Graphics/SVG/1.1/DTD/svg11.dtd">
<svg width="100%" height="100%" viewBox="0 0 16 16" version="1.1" xmlns="http://www.w3.org/2000/svg" xmlns:xlink="http://www.w3.org/1999/xlink" xml:space="preserve" xmlns:serif="http://www.serif.com/" style="fill-rule:evenodd;clip-rule:evenodd;stroke-linejoin:round;stroke-miterlimit:2;">
    <g id="light">
        <g id="green">
            <path d="M10,1.747c-0,-0.198 0.079,-0.388 0.219,-0.528c0.14,-0.14 0.33,-0.219 0.528,-0.219c0.945,0 2.561,0 3.506,0c0.198,0 0.388,0.079 0.528,0.219c0.14,0.14 0.219,0.33 0.219,0.528c0,2.428 0,10.078 0,12.506c0,0.198 -0.079,0.388 -0.219,0.528c-0.14,0.14 -0.33,0.219 -0.528,0.219c-0.945,0 -2.561,0 -3.506,0c-0.198,-0 -0.388,-0.079 -0.528,-0.219c-0.14,-0.14 -0.219,-0.33 -0.219,-0.528c0,-2.428 0,-10.078 0,-12.506Z" style="fill:rgb(41,121,255);"/>
        </g>
        <g id="red">
        </g>
        <g id="gray">
            <path d="M9,10l0,5l-7.255,0c-0.197,0 -0.387,-0.079 -0.527,-0.218c-0.139,-0.14 -0.218,-0.33 -0.218,-0.527c-0,-0.945 -0,-2.565 -0,-3.51c-0,-0.197 0.079,-0.387 0.218,-0.527c0.14,-0.139 0.33,-0.218 0.527,-0.218c1.986,0 7.255,-0 7.255,-0Z" style="fill:rgb(114,114,114);"/>
        </g>
        <g id="yellow">
        </g>
        <g id="icon">
            <path d="M7,5l0,1.011c-0,1.651 -1.338,2.989 -2.989,2.989c-0.813,0 -1.511,0 -1.511,0c-0.276,-0 -0.5,-0.224 -0.5,-0.5c0,-0.276 0.224,-0.5 0.5,-0.5l1.511,0c1.099,-0 1.989,-0.89 1.989,-1.989l-0,-1.011l-2.5,0l3,-3l3,3l-2.5,0Z" style="fill:rgb(72,72,74);"/>
        </g>
    </g>
    <g id="menu">
    </g>
</svg>
