<?xml version="1.0" encoding="UTF-8" standalone="no"?>
<!DOCTYPE svg PUBLIC "-//W3C//DTD SVG 1.1//EN" "http://www.w3.org/Graphics/SVG/1.1/DTD/svg11.dtd">
<svg width="100%" height="100%" viewBox="0 0 16 16" version="1.1" xmlns="http://www.w3.org/2000/svg" xmlns:xlink="http://www.w3.org/1999/xlink" xml:space="preserve" xmlns:serif="http://www.serif.com/" style="fill-rule:evenodd;clip-rule:evenodd;stroke-linejoin:round;stroke-miterlimit:2;">
    <g id="light">
        <g id="green">
        </g>
        <g id="red">
            <path d="M4.985,10.308c-0.616,-0.77 -0.985,-1.746 -0.985,-2.808c0,-2.484 2.016,-4.5 4.5,-4.5c2.484,0 4.5,2.016 4.5,4.5c0,2.484 -2.016,4.5 -4.5,4.5c-1.062,0 -2.038,-0.369 -2.808,-0.985l-3.338,3.339c-0.196,0.195 -0.512,0.195 -0.708,-0c-0.195,-0.196 -0.195,-0.512 0,-0.708l3.339,-3.338Zm1.515,-2.308l4,0c0.276,0 0.5,-0.224 0.5,-0.5c0,-0.276 -0.224,-0.5 -0.5,-0.5l-4,0c-0.276,0 -0.5,0.224 -0.5,0.5c0,0.276 0.224,0.5 0.5,0.5Z" style="fill:rgb(144,50,61);"/>
        </g>
        <g id="gray">
        </g>
        <g id="yellow">
        </g>
        <g id="icon">
        </g>
    </g>
    <g id="menu">
    </g>
</svg>
