<?xml version="1.0" encoding="UTF-8" standalone="no"?>
<!DOCTYPE svg PUBLIC "-//W3C//DTD SVG 1.1//EN" "http://www.w3.org/Graphics/SVG/1.1/DTD/svg11.dtd">
<svg width="100%" height="100%" viewBox="0 0 16 16" version="1.1" xmlns="http://www.w3.org/2000/svg" xmlns:xlink="http://www.w3.org/1999/xlink" xml:space="preserve" xmlns:serif="http://www.serif.com/" style="fill-rule:evenodd;clip-rule:evenodd;stroke-linejoin:round;stroke-miterlimit:2;">
    <g id="light">
        </g>
    <g id="Layer1">
        <path d="M0,15.002C0,15.553 0.447,16 0.998,16L15.002,16C15.553,16 16,15.553 16,15.002C16,11.8 16,2 16,2L14,-0L0.998,-0C0.447,-0 0,0.447 0,0.998C0,3.87 0,12.13 0,15.002Z" style="fill:rgb(41,121,255);"/>
        <path d="M12.501,6.5C12.687,6.5 12.864,6.426 12.996,6.295C13.127,6.164 13.201,5.986 13.201,5.801C13.201,4.319 13.2,-0 13.2,-0L3.8,0C3.8,0 3.801,4.319 3.801,5.801C3.801,5.986 3.874,6.164 4.005,6.295C4.137,6.426 4.314,6.5 4.5,6.5L12.501,6.5ZM11.301,5.058L9.7,5.058C9.701,5.058 9.7,1.242 9.7,1.242L11.3,1.242L11.301,5.058Z" style="fill-opacity:0.2;"/>
        <circle cx="4" cy="12" r="1.5" style="fill:white;"/>
        <circle cx="8" cy="12" r="1.5" style="fill:white;"/>
        <circle cx="12" cy="12" r="1.5" style="fill:white;"/>
        <path d="M12.499,6C12.632,6 12.76,5.947 12.853,5.853C12.947,5.76 13,5.632 13,5.499C13,4.058 13,-0 13,-0L4,-0L4,5.499C4,5.632 4.053,5.76 4.147,5.853C4.24,5.947 4.368,6 4.5,6C6.076,6 10.924,6 12.499,6ZM11.5,1L9.5,1L9.5,5C9.5,5 11.5,5 11.5,5L11.5,1Z" style="fill:rgb(188,192,200);"/>
        <path d="M13.5,0L13.5,6.005C13.5,6.136 13.448,6.262 13.355,6.355C13.262,6.448 13.136,6.5 13.005,6.5C11.179,6.5 4.842,6.5 3.004,6.5C2.87,6.5 2.742,6.447 2.648,6.352C2.553,6.258 2.5,6.13 2.5,5.996C2.5,4.47 2.5,0 2.5,0L2,-0C2,-0 2,4.067 2,6.001C2,6.266 2.105,6.52 2.293,6.707C2.48,6.895 2.734,7 2.999,7C5.259,7 10.741,7 13.001,7C13.266,7 13.52,6.895 13.707,6.707C13.895,6.52 14,6.266 14,6.001C14,4.067 14,-0 14,-0L13.5,0Z" style="fill:url(#_Linear1);"/>
        </g>
    <defs>
        <linearGradient id="_Linear1" x1="0" y1="0" x2="1" y2="0" gradientUnits="userSpaceOnUse" gradientTransform="matrix(6.78867e-17,1.10867,-0.596978,3.65544e-17,-10.5,5.89133)"><stop offset="0" style="stop-color:white;stop-opacity:0"/><stop offset="1" style="stop-color:white;stop-opacity:0.5"/></linearGradient>
    </defs>
</svg>
