<?xml version="1.0" encoding="UTF-8" standalone="no"?>
<!DOCTYPE svg PUBLIC "-//W3C//DTD SVG 1.1//EN" "http://www.w3.org/Graphics/SVG/1.1/DTD/svg11.dtd">
<svg width="100%" height="100%" viewBox="0 0 16 16" version="1.1" xmlns="http://www.w3.org/2000/svg" xmlns:xlink="http://www.w3.org/1999/xlink" xml:space="preserve" xmlns:serif="http://www.serif.com/" style="fill-rule:evenodd;clip-rule:evenodd;stroke-linejoin:round;stroke-miterlimit:2;">
    <g id="glight">
        <path d="M16,4L0,4L-0,13.998C-0,14.529 0.211,15.038 0.586,15.414C0.962,15.789 1.471,16 2.002,16C5.076,16 10.924,16 13.998,16C14.529,16 15.038,15.789 15.414,15.414C15.789,15.038 16,14.529 16,13.998C16,10.583 16,4 16,4Z" style="fill:rgb(188,192,200);"/>
        <path d="M16,4L0,4L-0,13.998C-0,14.529 0.211,15.038 0.586,15.414C0.962,15.789 1.471,16 2.002,16C5.076,16 10.924,16 13.998,16C14.529,16 15.038,15.789 15.414,15.414C15.789,15.038 16,14.529 16,13.998C16,10.583 16,4 16,4ZM15.5,4.5L15.5,13.998C15.5,14.396 15.342,14.778 15.06,15.06C14.778,15.342 14.396,15.5 13.998,15.5C10.924,15.5 5.076,15.5 2.002,15.5C1.604,15.5 1.222,15.342 0.94,15.06C0.658,14.778 0.5,14.396 0.5,13.998L0.5,4.5L15.5,4.5Z" style="fill:rgb(181,185,192);"/>
        <path d="M16,2.002C16,1.471 15.789,0.962 15.414,0.586C15.038,0.211 14.529,-0 13.998,0L2.002,0C1.471,-0 0.962,0.211 0.586,0.586C0.211,0.962 -0,1.471 -0,2.002L0,5L16,5L16,2.002Z" style="fill:rgb(41,121,255);"/>
        <path d="M-0,5L-0,2.002C-0,1.471 0.211,0.962 0.586,0.586C0.962,0.211 1.471,-0 2.002,0L13.998,0C14.529,-0 15.038,0.211 15.414,0.586C15.789,0.962 16,1.471 16,2.002L16,5L15.5,5L15.5,2.002C15.5,1.604 15.342,1.222 15.06,0.94C14.778,0.658 14.396,0.5 13.998,0.5L2.002,0.5C1.604,0.5 1.222,0.658 0.94,0.94C0.658,1.222 0.5,1.604 0.5,2.002L0.5,5L-0,5Z" style="fill:white;fill-opacity:0.3;"/>
        <path d="M7,12.5L7,14L5,14L5,11L3,11L8,7L13,11L11,11L11,14L9,14L9,12.5C9,11.948 8.552,11.5 8,11.5C7.45,11.5 7.003,11.945 7,12.494L7,12.5Z" style="fill:rgb(41,121,255);"/>
    </g>
    </svg>
